<svg width="85" height="86" viewBox="0 0 85 86" fill="none" xmlns="http://www.w3.org/2000/svg">
<path d="M12.2178 57.6566V30.5051H19.7619V41.4824H20.1418L28.5 30.5051H37.2924L27.903 42.596L37.5095 57.6566H28.5L22.2585 47.4748L19.7619 50.6566V57.6566H12.2178ZM48.2216 30.5051V57.6566H40.6775V30.5051H48.2216ZM52.9432 57.6566V30.5051H64.9377C67.0001 30.5051 68.8047 30.9029 70.3515 31.6983C71.8983 32.4938 73.1014 33.6118 73.9608 35.0525C74.8202 36.4931 75.2498 38.1768 75.2498 40.1036C75.2498 42.048 74.8066 43.7318 73.9201 45.1547C73.0427 46.5777 71.8079 47.6737 70.2159 48.4426C68.6329 49.2116 66.783 49.596 64.6663 49.596H57.5022V43.8688H63.1467C64.0331 43.8688 64.7885 43.7185 65.4126 43.418C66.0459 43.1087 66.5298 42.6711 66.8645 42.1055C67.2082 41.5398 67.38 40.8725 67.38 40.1036C67.38 39.3258 67.2082 38.663 66.8645 38.115C66.5298 37.5582 66.0459 37.1339 65.4126 36.8422C64.7885 36.5417 64.0331 36.3915 63.1467 36.3915H60.4872V57.6566H52.9432Z" fill="#D7A000"/>
<rect x="1.62305" y="1.96997" width="82.2218" height="82.2218" rx="41.1109" stroke="#D79F00" stroke-width="2"/>
</svg>
