<svg width="22" height="25" viewBox="0 0 22 25" fill="none" xmlns="http://www.w3.org/2000/svg">
<path d="M16.6921 11.9536C16.5887 11.9041 16.4837 11.8564 16.3774 11.8107C16.1921 8.39735 14.327 6.4432 11.1952 6.4232C11.181 6.42312 11.1669 6.42312 11.1527 6.42312C9.27955 6.42312 7.72164 7.22269 6.76275 8.67767L8.48512 9.85918C9.20145 8.77237 10.3256 8.54068 11.1536 8.54068C11.1631 8.54068 11.1727 8.54068 11.1822 8.54077C12.2134 8.54734 12.9915 8.84715 13.4951 9.43183C13.8616 9.85749 14.1067 10.4457 14.2281 11.1881C13.3139 11.0327 12.3251 10.9849 11.2681 11.0455C8.29059 11.217 6.37639 12.9536 6.50495 15.3666C6.57019 16.5906 7.17996 17.6436 8.22187 18.3315C9.1028 18.913 10.2374 19.1973 11.4165 19.133C12.9737 19.0476 14.1954 18.4535 15.0476 17.3671C15.6949 16.5421 16.1042 15.473 16.285 14.1258C17.0271 14.5737 17.5771 15.1631 17.8809 15.8716C18.3974 17.076 18.4275 19.0551 16.8126 20.6686C15.3977 22.0821 13.697 22.6936 11.1267 22.7125C8.27552 22.6913 6.11922 21.777 4.71726 19.9947C3.40444 18.3258 2.72596 15.9153 2.70065 12.8301C2.72596 9.7448 3.40444 7.33428 4.71726 5.66542C6.11922 3.88319 8.27549 2.96883 11.1266 2.94764C13.9985 2.96899 16.1924 3.88775 17.648 5.67858C18.3617 6.55678 18.8999 7.66118 19.2546 8.94887L21.273 8.41035C20.843 6.82535 20.1664 5.45954 19.2456 4.32683C17.3795 2.03091 14.6502 0.854472 11.1337 0.830078H11.1196C7.6102 0.854387 4.91151 2.0353 3.09854 4.33999C1.48524 6.39088 0.65305 9.24454 0.625087 12.8216L0.625 12.8301L0.625087 12.8385C0.65305 16.4156 1.48524 19.2693 3.09854 21.3202C4.91151 23.6248 7.6102 24.8058 11.1196 24.8301H11.1337C14.2537 24.8085 16.453 23.9916 18.2647 22.1815C20.6351 19.8133 20.5637 16.845 19.7825 15.0227C19.222 13.716 18.1534 12.6546 16.6921 11.9536ZM11.3051 17.0185C10.0001 17.092 8.6443 16.5062 8.57745 15.2516C8.5279 14.3213 9.23947 13.2833 11.3851 13.1597C11.6309 13.1455 11.872 13.1386 12.1089 13.1386C12.8882 13.1386 13.6174 13.2143 14.2802 13.3592C14.033 16.447 12.5827 16.9483 11.3051 17.0185Z" fill="#777E90"/>
</svg>
