<svg width="24" height="19" viewBox="0 0 24 19" fill="none" xmlns="http://www.w3.org/2000/svg">
<path d="M20.317 1.98565C18.7873 1.28377 17.147 0.766654 15.4319 0.470481C15.4007 0.464765 15.3695 0.479049 15.3534 0.50762C15.1424 0.882835 14.9087 1.37233 14.7451 1.75708C12.9004 1.48091 11.0652 1.48091 9.25832 1.75708C9.09465 1.36378 8.85248 0.882835 8.64057 0.50762C8.62448 0.480003 8.59328 0.465718 8.56205 0.470481C6.84791 0.765708 5.20756 1.28282 3.67693 1.98565C3.66368 1.99136 3.65233 2.0009 3.64479 2.01327C0.533392 6.66163 -0.31895 11.1957 0.0991801 15.6736C0.101072 15.6955 0.11337 15.7165 0.130398 15.7298C2.18321 17.2373 4.17171 18.1526 6.12328 18.7592C6.15451 18.7687 6.18761 18.7573 6.20748 18.7316C6.66913 18.1011 7.08064 17.4364 7.43348 16.7374C7.4543 16.6964 7.43442 16.6479 7.39186 16.6317C6.73913 16.3841 6.1176 16.0822 5.51973 15.7393C5.47244 15.7117 5.46865 15.6441 5.51216 15.6117C5.63797 15.5174 5.76382 15.4193 5.88396 15.3203C5.90569 15.3022 5.93598 15.2984 5.96153 15.3098C9.88928 17.1031 14.1415 17.1031 18.023 15.3098C18.0485 15.2974 18.0788 15.3013 18.1015 15.3193C18.2216 15.4184 18.3475 15.5174 18.4742 15.6117C18.5177 15.6441 18.5149 15.7117 18.4676 15.7393C17.8697 16.0888 17.2482 16.3841 16.5945 16.6307C16.552 16.6469 16.533 16.6964 16.5538 16.7374C16.9143 17.4354 17.3258 18.1002 17.7789 18.7306C17.7978 18.7573 17.8319 18.7687 17.8631 18.7592C19.8241 18.1526 21.8126 17.2373 23.8654 15.7298C23.8834 15.7165 23.8948 15.6965 23.8967 15.6746C24.3971 10.4976 23.0585 6.00072 20.3482 2.01421C20.3416 2.0009 20.3303 1.99136 20.317 1.98565ZM8.02002 12.9471C6.8375 12.9471 5.86313 11.8614 5.86313 10.5281C5.86313 9.19485 6.8186 8.1092 8.02002 8.1092C9.23087 8.1092 10.1958 9.20438 10.1769 10.5281C10.1769 11.8614 9.22141 12.9471 8.02002 12.9471ZM15.9947 12.9471C14.8123 12.9471 13.8379 11.8614 13.8379 10.5281C13.8379 9.19485 14.7933 8.1092 15.9947 8.1092C17.2056 8.1092 18.1705 9.20438 18.1516 10.5281C18.1516 11.8614 17.2056 12.9471 15.9947 12.9471Z" fill="#777E90"/>
</svg>
