<svg width="24" height="25" viewBox="0 0 24 25" fill="none" xmlns="http://www.w3.org/2000/svg">
<path fill-rule="evenodd" clip-rule="evenodd" d="M12.0099 0.830078C5.36875 0.830078 0 6.23841 0 12.9292C0 18.2776 3.43994 22.8048 8.21205 24.4072C8.80869 24.5276 9.02724 24.1469 9.02724 23.8265C9.02724 23.546 9.00757 22.5846 9.00757 21.5828C5.6667 22.3041 4.97099 20.1405 4.97099 20.1405C4.43409 18.7383 3.63858 18.3779 3.63858 18.3779C2.54511 17.6367 3.71823 17.6367 3.71823 17.6367C4.93117 17.7168 5.56763 18.8786 5.56763 18.8786C6.64118 20.7214 8.37111 20.2007 9.06706 19.8802C9.16638 19.0989 9.48473 18.5581 9.82275 18.2577C7.15817 17.9772 4.35469 16.9356 4.35469 12.2881C4.35469 10.966 4.8316 9.88436 5.58729 9.04311C5.46807 8.74271 5.0504 7.50051 5.70677 5.83794C5.70677 5.83794 6.72083 5.51738 9.00732 7.07989C9.98625 6.81505 10.9958 6.68032 12.0099 6.67918C13.024 6.67918 14.0577 6.81955 15.0123 7.07989C17.299 5.51738 18.3131 5.83794 18.3131 5.83794C18.9695 7.50051 18.5515 8.74271 18.4323 9.04311C19.2079 9.88436 19.6652 10.966 19.6652 12.2881C19.6652 16.9356 16.8617 17.957 14.1772 18.2577C14.6148 18.6382 14.9924 19.3593 14.9924 20.5011C14.9924 22.1236 14.9727 23.4258 14.9727 23.8263C14.9727 24.1469 15.1915 24.5276 15.7879 24.4074C20.56 22.8046 23.9999 18.2776 23.9999 12.9292C24.0196 6.23841 18.6312 0.830078 12.0099 0.830078Z" fill="#777E90"/>
</svg>
