<svg width="226" height="257" viewBox="0 0 226 257" fill="none" xmlns="http://www.w3.org/2000/svg">
<circle cx="112.67" cy="117.75" r="112.558" fill="#D79F00"/>
<rect x="107.92" y="26.2296" width="7.00865" height="4.38041" fill="#D9381F"/>
<path d="M92.4185 0C93.1445 0.216183 93.3494 0.477539 93.7091 1.12932H94.0318V1.45198C94.1768 1.47537 94.1768 1.47537 94.3254 1.49925C94.7513 1.63735 94.8804 1.7961 95.1514 2.1478C95.4612 2.53822 95.6774 2.76408 96.1 3.0448C96.6308 3.56106 96.5969 4.1241 96.6147 4.83557C96.7433 4.82621 96.8712 4.81685 97.0035 4.80717C98.5732 4.74038 98.5733 4.74038 99.1008 5.20889C99.2405 5.35199 99.3799 5.49444 99.5235 5.64287L100.027 5.89454C100.503 6.13331 100.795 6.36563 101.137 6.77218V7.09485C101.447 7.08512 101.755 7.07081 102.064 7.05451C102.237 7.04703 102.408 7.03954 102.586 7.03176C103.165 6.9148 103.333 6.7204 103.718 6.28803C104.218 6.12186 104.575 6.10573 105.099 6.10734C105.256 6.10692 105.412 6.10651 105.573 6.10608C105.977 6.12754 105.977 6.12754 106.299 6.28838V6.61105C106.512 6.66428 106.725 6.71752 106.945 6.77238V7.09504H107.267C107.307 7.19813 107.347 7.30154 107.388 7.40802C107.556 7.75649 107.556 7.75649 107.863 7.86136C109.226 8.00882 110.379 7.72745 111.589 7.11601C112.104 6.93532 112.104 6.93532 112.577 7.12609C112.687 7.22257 112.796 7.31969 112.909 7.4181V7.74076C113.069 7.74741 113.229 7.75407 113.393 7.76093C114.087 7.85499 114.497 8.20782 115.023 8.63857C115.369 8.90477 115.713 9.06287 116.131 9.19193C115.844 9.95664 115.458 10.6423 115.056 11.3538C114.81 11.799 114.81 11.799 114.679 12.4218H112.904C112.858 12.6783 112.811 12.9348 112.763 13.1978C112.661 13.7592 112.582 14.0335 112.26 14.5191C112.221 15.0724 112.221 15.0724 112.24 15.679C112.242 15.8839 112.245 16.0888 112.248 16.3018C112.252 16.4592 112.256 16.6164 112.26 16.7793C112.412 16.7735 112.565 16.7677 112.721 16.7617C113.228 16.7793 113.228 16.7793 113.591 17.0618C114.21 17.8588 114.21 17.8588 114.173 18.3863C114.129 18.7106 114.082 19.0365 114.035 19.3608C114.088 19.4673 114.141 19.5737 114.196 19.6834C114.209 19.9061 114.213 20.1271 114.212 20.3497C114.211 20.4798 114.211 20.6095 114.21 20.7434C114.209 20.8792 114.207 21.0144 114.206 21.1548C114.205 21.2917 114.205 21.429 114.204 21.5694C114.202 21.9082 114.199 22.247 114.196 22.5858C114.249 22.4793 114.302 22.3728 114.357 22.2631C115.832 21.7678 117.423 22.4583 118.762 23.0762C119.025 23.2209 119.276 23.386 119.526 23.5538C119.473 23.9797 119.42 24.4056 119.365 24.8444C119.518 24.901 119.671 24.9575 119.83 25.0154C120.53 25.309 121.101 25.7511 121.701 26.2109C122.293 26.5674 122.827 26.6416 123.508 26.5771C123.881 26.6174 123.881 26.6174 124.153 26.9498C124.387 27.4757 124.545 27.9968 124.687 28.5534C124.74 28.4469 124.794 28.3405 124.849 28.2307C125.405 28.0452 125.873 27.9081 126.462 27.9081C126.595 27.9889 126.595 27.9889 126.73 28.071C127.299 28.3114 127.854 28.242 128.456 28.2003C128.584 28.1926 128.712 28.1849 128.843 28.177C129.868 28.1044 130.827 27.9237 131.828 27.6688C132.267 27.5845 132.267 27.5845 132.751 27.7458C132.88 27.9604 132.88 27.9604 133.012 28.1798C133.451 28.8928 134.151 29.2494 134.851 29.6818C135.012 29.8431 135.012 29.8431 135.022 30.2561L135.012 30.6497L134.538 30.5591C134.375 30.5358 134.212 30.5124 134.044 30.4884C133.991 30.5416 133.938 30.5949 133.883 30.6497H133.56C133.513 30.4934 133.467 30.3368 133.419 30.1754C133.295 29.664 133.295 29.664 132.916 29.5204V29.8431H131.141C131.181 29.9896 131.221 30.1367 131.262 30.2867C131.302 30.8111 131.302 30.8111 131.06 31.1644C130.657 31.4564 130.657 31.4564 130.123 31.6581C129.445 31.9178 129.082 32.3937 128.637 32.9503C128.398 33.231 128.398 33.231 128.076 33.3924C128.091 33.5227 128.106 33.6537 128.121 33.7876C128.214 35.167 128.214 35.167 127.839 35.5945C127.497 35.7978 127.146 35.9608 126.783 36.1269C126.522 36.2979 126.262 36.4722 126.007 36.6512C125.606 36.9271 125.314 37.1014 124.848 37.2562C124.794 37.416 124.741 37.5757 124.686 37.7402C124.317 37.8707 124.317 37.8707 123.849 37.9725C123.254 38.1168 122.916 38.221 122.407 38.5775C121.766 38.9809 121.229 38.9292 120.487 38.8695C120.586 38.392 120.688 38.1629 120.971 37.7402C120.661 37.8051 120.661 37.8051 120.345 37.8712C120.229 37.8956 120.112 37.92 119.993 37.945C119.619 38.0505 119.619 38.0505 119.356 38.5467C119.023 38.6406 119.023 38.6406 118.64 38.6777C118.513 38.6921 118.388 38.7064 118.257 38.7213C117.904 38.7081 117.904 38.7081 117.42 38.3857L117.672 38.6777L117.904 39.031C117.851 39.1908 117.797 39.3505 117.743 39.515C117.559 39.55 117.559 39.55 117.37 39.5857C116.923 39.6706 116.923 39.6706 116.452 39.8374C116.558 40.1036 116.665 40.3698 116.775 40.644H117.097C117.15 40.857 117.204 41.0699 117.259 41.2893C116.847 41.1183 116.637 40.999 116.371 40.6343C116.089 40.2713 115.931 40.2213 115.484 40.16L115.494 40.6844C115.484 41.2893 115.484 41.2893 115.393 41.6427C115.306 42.0024 115.372 42.2331 115.484 42.58C114.556 43.2253 114.556 43.2253 114.193 43.2253V43.7093C113.874 43.8158 113.554 43.9223 113.225 44.032C113.219 44.1517 113.212 44.2707 113.205 44.395C113.008 45.0161 112.645 45.1677 112.095 45.4839C112.255 45.6969 112.414 45.9099 112.579 46.1293C112.419 46.4487 112.26 46.7681 112.095 47.0973H112.579C112.863 47.9507 112.562 48.8396 112.226 49.6624C111.651 50.3368 110.974 50.632 110.128 50.8014C109.428 50.9966 109.267 51.1951 108.868 51.7791H108.546C108.496 51.9088 108.496 51.9088 108.445 52.0404C108.137 52.5712 107.732 53.0036 107.254 53.3924H106.932V53.715C106.064 54.2136 105.397 54.4378 104.399 54.4927C104.029 54.5211 103.728 54.5444 103.382 54.683C103.079 55.1444 102.939 55.6736 102.768 56.1963C102.492 56.9755 102.182 57.4821 101.608 58.0678H102.092V58.3904C101.877 58.605 101.661 58.8212 101.446 59.0357C100.412 60.4667 100.582 62.2462 100.562 63.9402C100.558 64.1289 100.554 64.3161 100.549 64.5097C100.547 64.6791 100.545 64.8501 100.543 65.0243C100.448 65.7148 100.159 66.1375 99.6716 66.6247C99.6005 66.97 99.5377 67.3152 99.4796 67.6637C99.2683 68.6543 99.2683 68.6543 98.9166 68.9511C98.6133 69.0652 98.6133 69.0652 98.0583 69.206C97.5985 69.8949 97.6743 70.4951 97.7356 71.3033C97.8399 71.8615 97.8399 71.8615 98.0583 72.2713C98.218 72.3246 98.3777 72.3778 98.5423 72.4326C98.5655 72.5357 98.5889 72.6392 98.613 72.7456C98.643 72.8555 98.6728 72.965 98.7036 73.078C98.9166 73.1883 99.1328 73.2958 99.3489 73.4006C99.7974 73.983 99.6942 74.6364 99.6716 75.3366C99.8846 75.2834 100.098 75.2301 100.317 75.1753C100.998 77.0306 100.998 77.0306 101.285 77.9179H101.608C101.824 78.1857 102.04 78.4551 102.253 78.7246C102.373 78.811 102.493 78.8972 102.616 78.9859C102.756 79.0958 102.756 79.0958 102.898 79.2085V79.6925H103.221C104.028 80.5766 104.028 80.5766 104.028 80.9832C104.131 81.0264 104.234 81.0697 104.341 81.1142C104.673 81.3062 104.673 81.3062 104.834 81.7902C105.129 81.9268 105.129 81.9268 105.489 82.0128C106.665 82.3709 107.651 83.0437 108.538 83.8842C108.761 84.3376 108.761 84.3376 108.861 84.6909C109.064 84.7009 109.268 84.7109 109.476 84.7212C110.016 84.7872 110.106 84.7998 110.474 85.2359C110.636 85.6586 110.636 85.6586 110.636 86.1425H110.958C111.181 86.4055 111.397 86.6733 111.604 86.9492C111.415 87.4284 111.289 87.5881 110.847 87.8768C110.413 88.2173 110.413 88.2173 110.444 88.7835C111.083 91.8327 113.348 95.3497 115.8 97.2695C115.96 97.3228 116.119 97.376 116.284 97.4309C116.403 97.5501 116.521 97.6696 116.644 97.7922C117.234 98.3811 117.897 98.8215 118.58 99.2894C118.839 99.4701 119.093 99.6604 119.343 99.8524V100.175C119.437 100.219 119.531 100.263 119.628 100.309C120.37 100.699 120.998 101.173 121.322 101.954C121.382 102.188 121.382 102.188 121.443 102.429C121.603 102.698 121.764 102.967 121.927 103.235V103.558L122.311 103.679C122.734 103.881 122.734 103.881 122.866 104.174C123.134 104.666 123.503 104.878 123.965 105.191C124.26 105.391 124.55 105.597 124.833 105.817V106.139C124.943 106.172 125.052 106.206 125.165 106.24C125.706 106.493 126.078 106.816 126.519 107.214C126.766 107.445 126.766 107.445 127.091 107.592V107.915C127.208 107.955 127.324 107.994 127.445 108.036C127.953 108.261 128.306 108.495 128.705 108.883C128.758 109.152 128.812 109.42 128.866 109.689C129.308 110.117 129.807 110.418 130.328 110.738C131.288 111.336 131.288 111.336 131.609 111.787C131.664 112.114 131.69 112.44 131.718 112.771C131.754 113.113 131.754 113.113 132.033 113.471C132.53 113.798 132.959 113.839 133.546 113.884C133.599 113.564 133.653 113.245 133.708 112.916C134.585 113.155 134.585 113.155 135.482 113.4C135.589 113.879 135.695 114.358 135.805 114.852C135.965 114.799 136.124 114.745 136.289 114.691C136.449 114.744 136.608 114.797 136.773 114.852V115.175H137.096C137.042 115.707 136.989 116.239 136.934 116.788C137.413 116.948 137.892 117.107 138.386 117.272C138.37 117.422 138.353 117.572 138.336 117.725C138.361 117.98 138.361 117.98 138.386 118.24C138.749 118.517 138.749 118.517 139.193 118.724C139.565 119.056 139.565 119.056 139.838 119.369V119.692L140.12 119.803C140.855 120.23 141.198 120.922 141.532 121.674C142.027 122.703 142.678 123.578 143.371 124.465C143.453 124.57 143.536 124.675 143.62 124.783C143.694 124.876 143.768 124.97 143.844 125.065C144.025 125.327 144.025 125.327 144.186 125.811H144.509C145.046 126.282 145.312 126.58 145.477 127.263C145.573 127.309 145.67 127.356 145.769 127.404C146.287 127.67 146.482 128.056 146.767 128.553V129.037C147.125 128.725 147.125 128.725 147.251 128.23C147.543 128.26 147.543 128.26 147.897 128.391C148.332 128.956 148.46 129.464 148.542 130.166C148.702 130.219 148.861 130.272 149.026 130.327C148.902 131.379 148.902 131.379 148.681 131.839C148.498 132.399 148.613 132.665 148.815 133.21C148.877 133.381 148.939 133.552 149.004 133.728C149.215 134.267 149.441 134.798 149.672 135.328C149.838 135.787 150.001 136.246 150.162 136.708C150.314 137.135 150.314 137.135 150.64 137.587V138.071H150.962C151.553 139.037 151.519 139.894 151.532 140.991C151.553 141.787 151.633 142.238 152.092 142.911C152.175 143.309 152.175 143.309 152.223 143.727C152.366 144.655 152.739 145.357 153.178 146.18C153.444 146.757 153.466 147.13 153.383 147.753H153.06V148.559H153.383V148.882H153.705C154.047 149.721 154.265 150.511 154.425 151.399C154.508 151.765 154.623 152.062 154.784 152.399C154.996 152.913 154.996 152.913 154.996 153.367C154.834 153.72 154.834 153.72 154.028 154.043C153.975 154.628 153.921 155.214 153.867 155.817H154.189C154.219 156.118 154.219 156.118 154.25 156.422C154.313 156.937 154.429 157.294 154.672 157.753C154.734 158.074 154.789 158.397 154.834 158.721C154.567 158.828 154.301 158.934 154.027 159.044C153.953 159.77 153.99 160.198 154.421 160.786C154.494 160.875 154.567 160.964 154.642 161.056C155.048 161.595 154.993 162.1 154.985 162.75C154.987 164.492 155.51 165.492 156.568 166.848C157 167.43 157.415 167.99 157.415 168.735C157.262 168.795 157.108 168.855 156.95 168.916C156.405 169.176 156.405 169.176 156.224 169.732C156.191 169.882 156.158 170.032 156.124 170.186C156.006 170.198 155.888 170.21 155.767 170.223C155.201 170.379 154.965 170.623 154.56 171.042C154.436 171.168 154.313 171.294 154.186 171.423C153.715 171.973 153.513 172.41 153.442 173.133C153.422 173.333 153.402 173.533 153.382 173.738H153.866C154.09 173.998 154.09 173.998 154.3 174.343C154.405 174.511 154.405 174.511 154.513 174.683C154.672 175.029 154.672 175.029 154.672 175.674H154.995V175.997H155.317V176.481C154.68 176.39 154.233 176.203 153.704 175.835C153.651 175.729 153.598 175.622 153.543 175.513C153.277 175.566 153.01 175.619 152.736 175.674V175.997C152.836 176.097 152.936 176.197 153.039 176.3C153.538 176.799 153.693 177.095 153.735 177.802C153.704 178.255 153.704 178.255 153.543 178.417C153.469 179.477 153.528 180.466 153.793 181.498C153.881 181.876 153.889 182.229 153.865 182.613H154.187C154.246 182.848 154.303 183.084 154.358 183.32C154.39 183.451 154.422 183.581 154.455 183.716C154.51 184.065 154.51 184.065 154.348 184.388C154.045 184.478 154.045 184.478 153.703 184.549C153.543 184.602 153.383 184.655 153.219 184.71C153.101 185.036 153.101 185.036 153.058 185.356H153.38C153.729 186.567 153.7 187.227 153.129 188.389C152.685 189.189 152.685 189.189 152.24 189.374C151.898 189.406 151.898 189.406 151.283 189.396L150.799 189.719C150.749 190.201 150.724 190.658 150.718 191.14C150.7 192.802 150.7 192.802 150.154 193.431C149.591 193.494 149.155 193.469 148.611 193.31C148.005 193.248 147.716 193.551 147.25 193.915C146.888 194.212 146.779 194.364 146.624 194.812C146.443 195.206 146.443 195.206 146.109 195.408C145.472 195.57 144.838 195.635 144.189 195.69V196.013L143.686 196.174C143.149 196.398 142.91 196.653 142.587 197.132C142.115 197.824 141.593 198.163 140.796 198.432H140.474C140.367 198.752 140.261 199.071 140.151 199.4L139.585 199.448C139.336 199.473 139.088 199.497 138.84 199.521C138.717 199.531 138.594 199.541 138.468 199.552C137.609 199.641 137.131 199.852 136.436 200.368H136.113C136.073 200.471 136.033 200.575 135.992 200.681C135.823 201.097 135.648 201.51 135.468 201.922C135.414 202.044 135.361 202.165 135.306 202.291C135.145 202.628 135.145 202.628 134.822 203.112C134.4 203.19 134.4 203.19 133.874 203.233C132.832 203.37 132.148 203.714 131.276 204.276C130.763 204.577 130.268 204.772 129.707 204.968C128.863 205.273 128.269 205.652 127.593 206.226C126.678 206.942 125.593 207.357 124.479 207.667C124.125 207.81 123.952 208.006 123.687 208.275C123.284 208.305 123.284 208.305 122.881 208.275H122.397C122.124 208.033 122.124 208.033 121.913 207.791L121.782 208.185C121.718 208.321 121.655 208.457 121.59 208.598C121.43 208.651 121.27 208.704 121.106 208.759V209.082C120.999 209.028 120.893 208.975 120.783 208.92C120.836 208.814 120.89 208.707 120.944 208.598H121.267V208.114H121.59C121.696 207.847 121.803 207.581 121.912 207.307C121.763 207.287 121.612 207.267 121.459 207.246C120.944 207.146 120.944 207.146 120.46 206.824C120.038 206.827 119.639 206.845 119.22 206.884C119.106 206.893 118.994 206.903 118.876 206.912C118.597 206.935 118.318 206.96 118.039 206.985C118.065 207.135 118.092 207.285 118.119 207.438C118.2 207.953 118.2 207.953 118.2 208.437C118.003 208.384 117.808 208.331 117.605 208.276C117.185 208.167 116.903 208.115 116.466 208.145C116.103 208.114 116.103 208.114 115.73 207.711C115.595 207.511 115.595 207.511 115.458 207.307C115.298 207.361 115.138 207.414 114.974 207.469C115.08 207.522 115.186 207.575 115.296 207.63C115.824 208.442 115.837 209.118 115.78 210.05C115.677 210.072 115.574 210.093 115.469 210.115L115.065 210.201C114.865 210.243 114.865 210.243 114.662 210.286C114.333 210.342 114.333 210.342 114.167 210.535C113.739 210.608 113.309 210.648 112.876 210.696V211.019C112.976 211.054 113.075 211.089 113.178 211.126C114.199 211.508 115.065 211.992 115.937 212.633C115.849 213.054 115.808 213.244 115.503 213.56C115.032 213.815 114.688 213.797 114.162 213.762C114.177 213.952 114.177 213.952 114.192 214.146C114.182 214.286 114.172 214.425 114.162 214.569C113.607 214.94 113.204 214.978 112.549 215.053C112.808 215.558 112.963 215.821 113.467 216.101C113.59 216.181 113.714 216.261 113.839 216.343C113.89 216.777 113.89 216.777 113.839 217.15C113.391 217.374 113.046 217.34 112.549 217.311C112.166 217.15 112.166 217.15 111.903 216.989C111.85 217.042 111.797 217.095 111.742 217.15C111.473 217.157 111.205 217.157 110.935 217.15H110.774C110.934 217.34 110.934 217.34 111.097 217.534C111.419 217.957 111.419 217.957 111.419 218.279H111.742C112.552 219.541 112.552 219.541 112.539 220.264C112.283 220.999 112.097 221.406 111.419 221.827C110.664 221.942 109.909 221.95 109.209 221.625L108.836 221.343C108.606 221.222 108.375 221.104 108.141 220.99C108.029 220.934 107.917 220.879 107.801 220.822L107.547 220.698V220.375C107.163 220.147 107.163 220.147 106.741 220.052C107.141 220.61 107.141 220.61 107.547 221.182C106.641 221.362 106.641 221.362 106.095 221.182C106.13 221.268 106.165 221.354 106.201 221.443C106.609 222.534 106.742 223.54 106.48 224.686C106.256 225.062 106.256 225.062 105.782 225.258C105.59 225.303 105.396 225.348 105.198 225.394C104.402 225.597 103.685 225.818 102.939 226.168C102.41 226.41 101.871 226.622 101.331 226.835C100.563 227.14 99.8013 227.449 99.056 227.795C98.7527 227.929 98.4445 228.053 98.1348 228.172C95.8277 229.085 94.763 230.318 93.6659 232.48C93.6046 232.627 93.5431 232.775 93.4804 232.926C93.0464 233.967 92.4462 234.498 91.5444 235.137C91.0717 235.466 90.7313 235.759 90.3748 236.216C89.894 236.758 89.4519 236.945 88.7727 237.134C88.605 237.184 88.605 237.184 88.4339 237.234C87.2207 237.57 85.6913 237.891 84.4813 237.487C84.5359 236.979 84.6296 236.853 85.0363 236.519C85.1728 236.413 85.309 236.306 85.4493 236.197C85.6607 235.855 85.6607 235.855 85.772 235.551H86.0947V235.229C86.3608 235.175 86.627 235.122 86.9013 235.067C86.7948 234.748 86.6883 234.428 86.5786 234.099C86.4189 234.153 86.2592 234.206 86.0947 234.261C85.7736 234.325 85.4509 234.38 85.1267 234.422C85.0734 234.369 85.0202 234.316 84.9653 234.261C84.979 233.915 85.0034 233.57 85.0321 233.225C85.1033 232.292 85.1455 231.37 85.1607 230.434C85.1628 230.312 85.1649 230.189 85.1671 230.063C85.1715 229.808 85.1758 229.553 85.1801 229.298C85.2214 227.007 85.3219 224.716 85.5205 222.425C85.5304 222.308 85.5403 222.19 85.5505 222.069C85.8554 218.504 85.8554 218.504 86.7411 217.648C87.0622 217.432 87.3848 217.216 87.7091 217.003C87.8737 216.831 88.035 216.656 88.1931 216.479C88.5738 216.077 88.6351 216.04 89.2224 215.975C89.4321 216.005 89.4321 216.005 89.6451 216.036C89.5997 215.797 89.5523 215.558 89.5039 215.32C89.4778 215.187 89.4515 215.053 89.4245 214.916C89.3908 214.806 89.3571 214.697 89.3224 214.582C89.2159 214.529 89.1095 214.476 88.9998 214.421C88.9033 214.275 88.8062 214.127 88.7077 213.977C88.2818 213.443 87.8349 213.297 87.1945 213.08C86.362 212.795 85.8522 212.479 85.2262 211.861C84.6519 211.273 84.6519 211.273 83.8452 211.154C83.3741 211.346 83.2047 211.486 82.8676 211.84C82.4739 211.93 82.4739 211.93 82.0609 211.84C81.5802 211.246 81.272 210.585 80.9316 209.904C80.7969 209.739 80.7969 209.739 80.659 209.571C80.3911 209.176 80.4476 208.92 80.4476 208.452C80.2879 208.345 80.1282 208.239 79.9636 208.129C80.0833 208.066 80.204 208.003 80.3266 207.937C80.7864 207.666 80.7864 207.666 81.0929 207.242C81.5398 206.684 81.9512 206.388 82.6691 206.3C82.8271 206.302 82.9853 206.305 83.1483 206.307C83.3209 206.309 83.4919 206.31 83.6694 206.312C83.8468 206.316 84.0259 206.32 84.2082 206.324C84.3889 206.327 84.5696 206.329 84.7568 206.331C85.202 206.337 85.6473 206.345 86.0942 206.355C86.1416 206.23 86.189 206.104 86.2379 205.977C86.609 205.088 87.2656 204.501 88.0287 203.928C88.5724 203.717 88.5724 203.717 88.9967 203.605C89.039 202.931 89.0127 202.449 88.7547 201.815C88.5288 201.256 88.4127 200.821 88.5127 200.211C88.774 199.898 88.774 199.898 89.158 199.727C89.784 199.766 90.2196 199.935 90.7713 200.211C92.0458 200.61 92.0458 200.61 93.3526 200.534C93.6688 200.282 93.6688 200.282 93.9673 199.969C94.5319 199.421 94.532 199.421 95.045 199.346C95.3402 199.358 95.6371 199.375 95.9323 199.395C97.1503 199.419 98.3039 199.074 99.3202 198.437H99.6429V198.759H99.9656C100.203 199.083 100.203 199.083 100.459 199.516C100.544 199.656 100.629 199.797 100.717 199.942C100.929 200.363 101.027 200.716 101.095 201.181C101.39 201.096 101.39 201.096 101.69 201.01C102.457 200.821 102.915 200.868 103.61 201.252C104.359 201.599 105.118 201.704 105.933 201.826C105.91 201.571 105.887 201.315 105.863 201.06C105.849 200.917 105.836 200.776 105.823 200.629C105.778 200.263 105.709 199.922 105.61 199.567C105.876 199.461 106.142 199.355 106.417 199.245C106.168 198.483 105.92 197.725 105.61 196.986C105.493 197.025 105.376 197.064 105.257 197.104C104.803 197.148 104.803 197.148 104.406 196.904L104.008 196.552C103.561 196.167 103.172 195.846 102.656 195.554C101.964 195.007 101.64 194.453 101.415 193.601C101.372 192.909 101.389 192.217 101.431 191.52C101.474 190.602 101.373 190.141 100.769 189.407C100.618 189.054 100.618 189.054 100.608 188.762C100.797 188.503 100.797 188.503 101.092 188.278C101.492 188.23 101.492 188.23 101.929 188.247C102.075 188.252 102.22 188.256 102.37 188.26C102.481 188.266 102.591 188.272 102.705 188.277C102.808 188.102 102.912 187.924 103.018 187.743C103.076 187.644 103.134 187.545 103.194 187.443C103.373 187.127 103.373 187.127 103.512 186.666C104.48 186.462 105.061 186.553 105.932 186.988H106.416V187.311C106.595 187.301 106.595 187.301 106.779 187.291C107.223 187.311 107.223 187.311 107.505 187.467C107.991 187.689 108.424 187.702 108.957 187.735C109.241 187.753 109.241 187.753 109.53 187.771L109.965 187.795L109.96 187.429C109.957 187.19 109.957 187.19 109.955 186.948C109.953 186.791 109.951 186.633 109.949 186.472C109.965 186.02 109.965 186.02 110.046 185.703C110.157 185.252 110.142 184.828 110.137 184.367C110.134 184.105 110.134 184.105 110.132 183.839C110.13 183.707 110.128 183.575 110.127 183.439C110.615 183.276 110.927 183.265 111.435 183.271C111.677 183.27 111.677 183.27 111.924 183.268C112.263 183.267 112.601 183.271 112.94 183.279C113.871 183.282 113.871 183.282 114.65 182.824C114.913 182.478 114.913 182.478 115.12 182.117C115.297 181.825 115.297 181.825 115.62 181.664C116.017 181.63 116.412 181.603 116.81 181.583C117.769 181.567 117.769 181.567 118.682 181.341C118.735 181.181 118.788 181.022 118.843 180.857H119.166V180.534C119.389 180.273 119.389 180.273 119.65 180.05H119.973C120.027 179.926 120.027 179.926 120.084 179.799C120.898 178.287 120.898 178.287 121.842 177.992C121.962 177.961 122.082 177.93 122.205 177.898C122.565 177.811 122.565 177.811 122.899 177.625C123.328 177.417 123.565 177.491 124.009 177.639C124.082 177.722 124.155 177.805 124.231 177.891C124.506 178.178 124.506 178.178 125.048 178.183C125.645 178.12 125.832 178.025 126.267 177.637H126.59V177.315H126.913C127.368 175.877 127.472 174.508 127.46 173.007C127.457 172.649 127.46 172.293 127.463 171.934C127.462 171.704 127.462 171.473 127.461 171.242C127.46 171.037 127.46 170.831 127.459 170.62C127.374 169.844 127.069 169.319 126.644 168.684C126.146 167.759 126.341 166.538 126.61 165.554C126.891 164.72 127.283 163.94 127.662 163.15C127.943 162.501 128.077 161.885 128.204 161.198C128.258 161.145 128.311 161.091 128.366 161.036C128.497 159.197 128.459 157.681 127.559 156.035C127.434 155.787 127.31 155.538 127.186 155.29C127.096 155.111 127.007 154.93 126.914 154.745V154.422C126.807 154.369 126.701 154.315 126.591 154.261C126.431 154.154 126.272 154.048 126.107 153.938C126.049 153.535 126.017 153.164 126.006 152.759C125.976 151.724 125.976 151.724 125.784 150.71C125.485 150.473 125.485 150.473 125.138 150.387C125.032 150.44 124.925 150.494 124.816 150.548C124.784 150.457 124.753 150.366 124.721 150.272C124.679 150.154 124.637 150.035 124.594 149.914C124.553 149.796 124.511 149.679 124.469 149.558C124.355 149.23 124.355 149.23 124.009 149.098C124.062 148.779 124.116 148.459 124.171 148.13H124.493C124.51 148.047 124.526 147.964 124.544 147.878C124.655 147.485 124.655 147.485 124.907 146.951C125.153 146.318 125.15 145.897 125.139 145.224C125.24 144.71 125.24 144.71 125.461 144.256C125.616 144.17 125.771 144.082 125.931 143.993C126.604 143.479 126.696 143.011 126.883 142.203C126.932 142.017 126.932 142.017 126.982 141.828C127.308 140.554 127.308 140.554 127.397 139.247C127.29 139.087 127.184 138.928 127.074 138.763C127.111 137.605 127.111 137.605 127.577 137.118C127.677 137.024 127.777 136.93 127.881 136.835C127.897 136.319 127.681 136.146 127.335 135.756C126.937 135.356 126.937 135.356 126.429 135.222V134.415L126.771 134.297C126.917 134.243 127.064 134.189 127.216 134.132C127.362 134.08 127.508 134.027 127.658 133.974C128.105 133.736 128.21 133.599 128.365 133.123C128.409 132.801 128.409 132.801 128.395 132.478C128.393 132.365 128.39 132.252 128.388 132.136C128.374 131.821 128.374 131.821 128.264 131.489C128.203 131.187 128.203 131.187 128.364 130.752C128.543 130.163 128.535 129.75 128.475 129.14C128.459 128.959 128.443 128.779 128.427 128.593C128.379 128.112 128.379 128.112 128.203 127.636C127.883 127.743 127.564 127.849 127.235 127.959C127.128 127.853 127.022 127.746 126.912 127.636V126.991C126.806 126.938 126.699 126.885 126.589 126.83V126.669C126.354 126.614 126.118 126.561 125.883 126.507C125.752 126.477 125.621 126.447 125.486 126.417C125.144 126.335 125.144 126.335 124.815 126.346C124.76 126.233 124.706 126.12 124.65 126.004C124.578 125.857 124.506 125.71 124.432 125.559C124.326 125.339 124.326 125.339 124.216 125.117C123.934 124.594 123.771 124.439 123.201 124.249V123.119H122.879C122.772 122.96 122.666 122.8 122.556 122.635H122.395C122.262 121.688 122.262 121.688 122.59 121.238C123.135 120.738 123.679 120.459 124.365 120.206C124.85 120.023 125.099 119.926 125.463 119.551C125.699 118.829 125.967 117.857 125.615 117.147L125.121 117.258C124.376 117.317 124.001 117.191 123.362 116.824C123.252 116.609 123.145 116.395 123.04 116.178C122.559 115.991 122.559 115.991 122.072 115.856C121.965 115.749 121.859 115.643 121.749 115.533H121.265C121.186 115.212 121.107 114.893 121.03 114.572C120.878 113.918 120.878 113.918 120.368 113.505C119.61 113.187 118.869 112.95 118.045 112.95C117.153 112.031 116.888 110.966 116.754 109.724H116.27C116.23 109.84 116.19 109.956 116.149 110.077C115.923 110.587 115.698 110.943 115.302 111.337C114.851 111.416 114.576 111.362 114.142 111.226C113.61 110.84 113.544 110.282 113.407 109.663C113.187 109.029 112.924 108.696 112.469 108.219C111.885 107.538 111.85 106.875 111.814 106.008C111.808 105.887 111.802 105.766 111.796 105.641C111.751 104.69 111.735 103.737 111.754 102.785C111.594 102.732 111.434 102.679 111.27 102.624C110.805 102.453 110.381 102.27 109.979 101.978C109.747 101.404 109.747 101.404 109.657 100.849C109.603 100.689 109.55 100.53 109.495 100.365H109.173C108.592 99.6391 108.403 99.0083 108.205 98.1065C108.151 98.0533 108.098 98 108.043 97.9452C107.743 97.9552 107.743 97.9552 107.438 97.9653C106.23 97.858 105.309 96.8344 104.502 96.0132V95.6906C104.412 95.6573 104.323 95.6241 104.229 95.5897C103.7 95.2751 103.42 94.8928 103.05 94.3991V94.0764H102.727C102.497 93.8119 102.277 93.5376 102.063 93.2601C100.982 91.8775 100.982 91.8775 99.4976 91.0176C98.941 90.1448 98.5021 89.2107 98.0456 88.275C97.9839 88.1642 97.9225 88.054 97.8584 87.9394C97.7223 87.6297 97.7223 87.6297 97.7424 87.065C97.7179 86.3777 97.5585 86.3051 97.0777 85.855C97.0374 85.4114 97.0374 85.4114 97.0777 85.0484H96.7551C96.3098 84.6951 96.163 84.345 95.9984 83.8077C95.9579 83.6774 95.9173 83.5464 95.8755 83.4125C95.8315 83.2637 95.8315 83.2637 95.7866 83.1124C95.6801 83.139 95.5737 83.1657 95.464 83.1931C94.8412 83.297 94.3233 83.3249 93.6893 83.2737C93.357 82.9817 93.357 82.9817 93.2053 82.6284C93.2586 82.4687 93.3118 82.309 93.3667 82.1444C93.2502 82.1577 93.1343 82.171 93.0133 82.1848C92.4083 82.131 92.1954 81.9089 91.7533 81.4991C91.6136 81.3726 91.4742 81.2458 91.3307 81.1151C90.9322 80.6747 90.7192 80.2569 90.4627 79.7245C90.333 79.5998 90.333 79.5998 90.2013 79.4728C89.8851 79.1421 89.8674 78.8872 89.8174 78.4338C89.9314 77.9789 89.9314 77.9789 90.1094 77.5158C90.167 77.3621 90.2246 77.2077 90.2836 77.0496C90.4627 76.6576 90.4627 76.6576 90.7854 76.3349C90.7528 75.9106 90.6997 75.6267 90.4369 75.2863C90.0336 74.9571 89.6189 74.8119 89.1317 74.6312L88.5638 74.4215C88.0169 74.2295 87.4716 74.0682 86.9183 73.9166C86.7952 73.8567 86.6714 73.7968 86.5456 73.7359C86.0922 73.5882 85.8357 73.6041 85.3663 73.635C83.9062 73.6633 82.7366 72.7203 81.7041 71.7636C81.6126 71.6745 81.5217 71.5861 81.4266 71.4942L81.1797 71.2554C80.991 71.0683 80.8054 70.8795 80.6199 70.6875C80.2843 70.3519 80.1101 70.2793 79.6713 70.1325C79.1582 69.947 78.7775 69.755 78.3613 69.3969C77.5675 68.729 76.8206 68.2595 75.78 68.1062V67.7836H75.4573L75.2363 67.4883C74.7426 66.8333 73.9537 66.3993 73.139 66.2735C72.897 66.259 72.6534 66.2446 72.4114 66.2306C71.666 66.1015 71.1353 65.5627 70.6206 65.0416L71.0046 64.9206C71.4482 64.766 71.4482 64.766 71.566 64.4076C71.8145 63.9574 72.0774 63.8848 72.5469 63.6896C73.1003 63.4267 73.3374 63.2992 73.7166 62.8023C73.915 62.0408 73.8059 61.4552 73.5052 60.7373C73.339 60.2968 73.3407 60.1484 73.5254 59.7193C73.8771 59.5208 73.8771 59.5208 74.3127 59.366C74.4553 59.3137 74.5982 59.2616 74.745 59.2079C75.5259 58.9417 76.1567 58.9013 76.9714 58.9433L77.3409 58.9524C78.162 58.9934 78.5492 59.1476 79.1639 59.7203C80.1045 60.1656 81.0837 60.3883 82.1001 60.1043C82.5083 59.7833 82.6486 59.3799 82.8664 58.9137C83.3504 58.291 84.0877 58.0086 84.8347 57.8037C85.5139 57.2907 85.5268 56.6647 85.6688 55.8516C85.7722 55.3628 85.7722 55.3628 86.0947 54.8788H86.4173C86.4772 54.7491 86.4772 54.7491 86.5383 54.6174C86.74 54.2335 86.74 54.2335 87.0933 53.7705C87.4289 53.2897 87.4289 53.2897 87.3853 52.7525C87.1901 52.2039 87.0917 52.0846 86.5787 51.8151C86.2253 51.6835 85.8688 51.5651 85.509 51.4521C82.6535 50.5503 82.6535 50.5503 82.0566 49.8792C81.9786 49.2677 81.9728 48.8983 82.2792 48.3562C82.5406 48.1045 82.5406 48.1045 82.8632 48.1045V46.9752C82.5873 46.7768 82.5873 46.7768 82.2179 46.6525C81.7791 46.7795 81.7791 46.7795 81.4112 46.9752V47.2979C81.1596 47.4073 80.9079 47.5141 80.6546 47.6205C80.5142 47.6804 80.3739 47.7402 80.2287 47.8012C79.7802 47.9477 79.4575 47.9932 78.9897 47.9424C78.667 47.6197 78.667 47.6197 78.3443 47.1357V46.4904C78.482 46.4256 78.482 46.4256 78.6218 46.3594C79.3527 45.9884 79.8754 45.6415 80.3965 44.9978C80.7804 44.5202 80.874 44.4089 81.4854 44.2315H81.8985C81.8302 43.7878 81.7841 43.4909 81.5758 43.1021C81.1709 42.8166 80.7482 42.6294 80.2851 42.4568V42.1342C80.1853 42.0909 80.0851 42.0477 79.9818 42.0032C79.6382 41.8112 79.6382 41.8112 79.3172 41.3272C79.0397 41.2118 78.7606 41.0965 78.4815 40.9868C78.0152 40.7593 77.7119 40.4286 77.3812 40.0365V39.7139C77.2352 39.6902 77.2352 39.6902 77.086 39.666C75.9986 39.4627 75.9986 39.4627 75.6066 39.0577C75.1645 38.6302 74.787 38.6286 74.1901 38.5657C73.7706 38.5878 73.5383 38.6793 73.1866 38.9077L72.8639 39.3917C72.4187 39.4869 72.4187 39.4869 71.8766 39.543C70.936 39.6648 70.2955 39.8963 69.4728 40.3594H69.1501C68.9904 40.945 68.8307 41.5306 68.6661 42.134H68.3434L68.0208 42.9406C67.4868 42.971 67.4868 42.971 66.8915 42.9406C66.8164 42.8651 66.7413 42.7896 66.664 42.7116C66.2445 42.2937 65.7073 42.2453 65.1459 42.1082C65.0299 42.0633 64.9135 42.0183 64.7942 41.972L64.6328 41.488C63.9456 41.2589 63.2615 41.2654 62.5355 41.2267C62.0467 41.1655 62.0467 41.1655 61.5627 40.8427C61.403 40.8227 61.2433 40.8027 61.0787 40.7822C60.5947 40.6814 60.5947 40.6814 60.2914 40.3692C60.1107 40.0369 60.1107 40.0369 60.1107 39.7142L59.6574 39.7445C59.1427 39.7142 59.1427 39.7142 58.8814 39.4928C58.8081 39.4064 58.7349 39.3202 58.6588 39.2315L58.3442 39.094C57.9392 38.8682 57.8424 38.6794 57.6504 38.2632C57.5964 38.1501 57.5423 38.0373 57.4859 37.9212C57.3675 37.6179 57.3675 37.6179 57.3675 37.2952L57.1061 37.1944C56.2333 36.6894 55.6428 35.9747 55.2669 35.0325C55.1559 34.4888 55.1559 34.4888 55.1056 34.0645C54.9459 34.0113 54.7862 33.9581 54.6216 33.9032C54.7245 33.4208 54.891 33.0304 55.1153 32.5932C55.3847 32.014 55.4541 31.6059 55.4186 30.9638C55.3891 30.3685 55.427 30.0861 55.8219 29.6328C55.9584 29.4963 56.0946 29.3601 56.2349 29.2198C56.4269 28.6454 56.4124 28.1808 56.4059 27.5742C56.4045 27.3693 56.403 27.1644 56.4015 26.9515L56.3958 26.4739H54.9439V26.1513H54.6212L54.48 25.5963L54.2993 25.022L53.9767 24.8606L53.9969 25.2946C53.9759 25.8512 53.9317 26.1561 53.6548 26.6353C52.8853 27.2854 52.8853 27.2854 52.2529 27.2709C51.8479 27.1064 51.6656 26.9757 51.3962 26.6353C51.3717 26.3207 51.3717 26.3207 51.4063 25.9706C51.4389 25.1026 51.1465 24.488 50.7513 23.7281C50.6435 23.5135 50.5367 23.2973 50.4286 23.0828H50.106V22.7601C49.9156 22.6902 49.9156 22.6902 49.722 22.6189C49.2993 22.4382 49.2993 22.4382 48.9766 22.1156C48.93 21.9891 48.8834 21.8623 48.8355 21.7316C48.6322 21.2589 48.3741 21.0169 48.0095 20.6636V20.3409L47.6965 20.2099C47.3641 20.018 47.3641 20.018 47.2028 19.534C46.9882 19.4241 46.7737 19.3178 46.5575 19.2113C46.2413 18.9499 45.9331 18.6805 45.6298 18.4047L45.3814 18.1836C45.1749 17.9949 44.9781 17.7964 44.7828 17.598V17.2753C44.6231 17.2221 44.4634 17.1689 44.2989 17.114C43.9746 16.5155 43.9455 16.0121 43.9762 15.3394H45.4282L45.4685 14.9054C45.6064 14.2956 45.8299 14.031 46.2348 13.5647L46.4058 13.2227C46.5572 12.9194 46.5572 12.9194 46.7898 12.7081C47.0915 12.3822 47.2077 12.0337 47.3738 11.6255C47.6916 10.9592 48.1224 10.159 48.8339 9.88316L49.1388 9.85283L49.6228 10.3368C50.1051 10.4439 50.1051 10.4439 50.5908 10.4981C51.2974 10.7337 51.9363 11.0838 52.5913 11.4258C52.7298 11.4953 52.8687 11.5647 53.0107 11.6355C53.7577 12.0227 54.3223 12.3438 54.7854 13.0794C54.812 13.1959 54.8386 13.3118 54.866 13.4328C54.9172 13.7506 54.9172 13.7506 55.2193 13.8861L55.592 14.0474L56.0454 14.3798C56.6116 14.7234 57.0343 14.8008 57.6909 14.8541L57.8716 14.4911C58.1749 14.0474 58.1749 14.0474 58.6686 13.7457C59.209 13.3553 59.1978 13.2133 59.322 12.5938C59.5946 11.9824 60.1851 11.6129 60.6901 11.1903C61.0676 10.8321 61.2467 10.5675 61.4499 10.0948C61.7226 9.53016 61.7226 9.53016 62.1049 9.30753C62.6438 9.38464 62.9148 9.62374 63.2778 10.019C63.5908 10.4739 63.736 10.9418 63.8764 11.4726C63.9643 11.8211 63.9643 11.8211 64.3023 12.1098C64.7863 12.1771 64.7863 12.1771 65.2702 12.1098C65.5816 11.6436 65.6461 11.4403 65.7349 10.9095C65.8638 10.2707 66.0301 9.93511 66.5609 9.52855C67.4563 10.2578 68.271 11.058 69.0777 11.884C69.5504 12.3825 69.5504 12.3825 70.1166 12.7568V13.0794L70.7619 13.2408V13.5634C71.2411 13.6167 71.7203 13.6699 72.2139 13.7248C72.2433 13.5521 72.2727 13.3779 72.3028 13.2004C72.3436 12.9681 72.3846 12.7374 72.4258 12.5051C72.4448 12.3915 72.4638 12.2776 72.4833 12.1615C72.6227 11.3855 72.8463 10.7289 73.1819 10.0158H73.5046V9.69311C74.0676 9.22202 74.6081 8.90743 75.3437 8.82515C75.7664 8.88565 75.7664 8.88565 76.0891 9.04779C76.1899 9.54146 76.1899 9.54146 76.2504 10.0158H76.5731V10.3384C77.5669 10.7079 78.1816 10.7837 79.1544 10.3384V10.0158H79.477V9.69311C80.1304 9.07521 80.7725 8.83322 81.6711 8.84612C81.9631 8.8574 82.2568 8.87064 82.5488 8.88646C83.1844 8.88646 83.5248 8.85677 84.0104 8.43795C84.2331 8.21209 84.4509 7.97978 84.6622 7.74262C84.9655 7.4377 85.2204 7.27799 85.6125 7.11182C85.5466 6.55845 85.4579 6.15674 85.1994 5.65984C84.9462 5.12906 84.9268 4.78704 84.9671 4.20786C86.1255 3.60287 86.1255 3.60287 86.7579 3.41089C87.3451 3.19309 87.7146 2.83655 88.1905 2.43322C88.8197 2.12992 89.4295 2.03473 90.1104 1.92987C90.9138 1.76693 91.3703 1.63947 91.8689 0.971565C92.0721 0.644063 92.0721 0.644063 92.2222 0.335921C92.2754 0.229443 92.3287 0.122965 92.3835 0.0132598L92.4185 0ZM80.48 27.7489V27.9102H81.7706V27.7489H80.48ZM109.681 27.7489V27.9102H112.585V27.7489H109.681ZM124.846 35.4928V36.2994H125.007V35.4928H124.846ZM144.851 127.129V127.451H145.174V127.129H144.851ZM154.047 157.136C153.994 157.243 153.94 157.349 153.886 157.459H154.208C154.155 157.352 154.102 157.246 154.047 157.136ZM115.327 204.406C115.381 204.566 115.434 204.726 115.489 204.89V204.406H115.327ZM112.907 207.471C113.014 207.578 113.12 207.684 113.23 207.794C113.283 207.688 113.337 207.581 113.391 207.471H112.907ZM116.295 207.471C116.349 207.578 116.402 207.684 116.457 207.794C116.563 207.741 116.67 207.688 116.779 207.633C116.62 207.58 116.46 207.526 116.295 207.471ZM111.617 210.053V210.214H113.069V210.053H111.617ZM100.969 214.893C101.075 214.999 101.182 215.106 101.292 215.215C101.345 215.109 101.398 215.002 101.453 214.893H100.969ZM105.325 219.41C105.431 219.516 105.538 219.623 105.648 219.733V219.41H105.325Z" fill="#D9381F"/>
<path d="M192.444 248.449C193.51 248.822 193.51 248.822 193.834 249.398C194.152 250.2 194.202 250.99 194.057 251.834C193.562 252.928 192.468 253.786 191.476 254.415C191.032 254.542 191.032 254.542 190.669 254.577C190.38 254.288 190.472 253.878 190.467 253.488C190.483 251.91 190.685 250.148 191.798 248.938H192.121V248.616C192.227 248.562 192.334 248.509 192.444 248.454V248.449Z" fill="#D9381F"/>
<path d="M162.114 252.321C163.135 252.305 163.583 252.4 164.469 252.896C164.601 252.969 164.732 253.043 164.869 253.118C164.97 253.175 165.071 253.231 165.176 253.289V253.773C164.976 253.756 164.776 253.739 164.569 253.721C164.304 253.701 164.04 253.682 163.774 253.663C163.642 253.651 163.511 253.639 163.375 253.627C162.59 253.573 162.099 253.571 161.472 254.096C161.22 254.346 160.978 254.606 160.746 254.872C160.62 255.014 160.494 255.156 160.365 255.303C160.089 255.627 159.831 255.955 159.576 256.294C159.213 256.678 159.213 256.678 158.769 256.747C158.406 256.676 158.406 256.676 158.245 256.515C158.135 255.634 158.314 255.053 158.766 254.288C159.347 253.559 160.158 253.054 160.992 252.643C161.368 252.636 161.746 252.636 162.122 252.643V252.32L162.114 252.321Z" fill="#D9381F"/>
<path d="M72.2524 207.794C73.0897 208.27 73.4753 208.68 73.8657 209.569C73.8159 209.948 73.8159 209.948 73.7044 210.375C73.6662 210.53 73.6279 210.685 73.5884 210.843C73.5045 211.169 73.4206 211.495 73.3367 211.821C73.1431 212.642 73.0399 213.402 73.0592 214.241H72.7366C72.4833 213.576 72.2397 212.915 72.0299 212.24C71.5927 210.856 71.5927 210.856 70.6231 209.885C70.5218 209.835 70.4199 209.786 70.3166 209.734C70.2634 209.575 70.2101 209.415 70.1553 209.25C70.2085 209.144 70.2618 209.037 70.3166 208.928C70.6215 208.863 70.6215 208.863 70.9313 208.797C71.4846 208.674 71.596 208.616 72.0106 208.182C72.0904 208.055 72.1703 207.929 72.2526 207.798L72.2524 207.794Z" fill="#D9381F"/>
<path d="M176.472 243.448C176.525 244.406 176.579 245.368 176.633 246.352C176.367 246.405 176.101 246.459 175.827 246.513C176.04 246.567 176.253 246.62 176.472 246.675C175.932 246.735 175.73 246.725 175.293 246.383C175.02 246.029 175.02 246.029 175.02 245.545H173.891C173.838 245.386 173.784 245.226 173.729 245.061H172.923C172.816 244.689 172.71 244.316 172.6 243.932C173.605 242.927 175.262 242.842 176.472 243.448Z" fill="#D9381F"/>
<path d="M193.25 111.318C193.612 111.581 193.612 111.581 193.946 111.892C194.058 111.996 194.17 112.099 194.286 112.205C194.37 112.285 194.454 112.365 194.539 112.447C194.442 113.011 194.393 113.08 193.913 113.465C193.663 113.6 193.663 113.6 193.41 113.738C193.25 113.685 193.09 113.632 192.926 113.577C192.81 113.202 192.703 112.827 192.603 112.447L192.281 112.125C191.961 112.231 191.642 112.338 191.313 112.447H191.635C191.676 113.677 191.676 113.677 191.313 114.222C190.94 114.31 190.94 114.31 190.506 114.343C190.363 114.356 190.22 114.368 190.072 114.381C189.699 114.383 189.699 114.383 189.377 114.222C189.276 113.728 189.276 113.728 189.215 113.254C189.319 113.222 189.422 113.191 189.528 113.158C190.522 112.815 191.085 112.434 191.722 111.593C192.181 111.063 192.631 111.129 193.25 111.318V111.318Z" fill="#D9381F"/>
<path d="M194.541 116.642C194.651 116.719 194.761 116.795 194.873 116.874C194.832 117.175 194.832 117.175 194.712 117.52C193.691 118.268 192.26 118.428 191.034 118.268C190.915 118.234 190.797 118.201 190.674 118.166C190.621 118.059 190.568 117.953 190.513 117.843H190.835C190.889 117.683 190.942 117.523 190.997 117.359H191.319V117.036C192.41 116.288 193.304 115.986 194.53 116.643L194.541 116.642Z" fill="#D9381F"/>
<path d="M165.824 246.675C166.694 246.771 166.694 246.771 167.084 247.028C167.379 247.478 167.447 247.746 167.438 248.288C167.184 248.749 166.886 249.095 166.47 249.417C165.789 249.542 165.313 249.386 164.695 249.095C164.625 248.393 164.632 247.959 165.079 247.417C165.502 247.004 165.502 247.004 165.824 247.004V246.681V246.675Z" fill="#D9381F"/>
<path d="M192.443 111.157C193.116 111.241 193.452 111.433 193.945 111.893C194.058 111.996 194.17 112.099 194.286 112.206C194.37 112.285 194.454 112.365 194.539 112.448C194.442 113.011 194.393 113.08 193.913 113.466C193.663 113.6 193.663 113.6 193.41 113.738C193.25 113.685 193.09 113.632 192.926 113.577C192.811 113.203 192.705 112.825 192.603 112.448C192.36 111.991 192.36 111.991 192.119 111.641C192.226 111.481 192.332 111.321 192.442 111.157H192.443Z" fill="#D9381F"/>
<path d="M199.22 115.029V115.513C198.431 116.22 197.673 116.279 196.638 116.32C196.517 115.957 196.517 115.957 196.477 115.513C197.263 114.413 198.139 114.467 199.22 115.029Z" fill="#D9381F"/>
<path d="M206.802 119.385C206.742 119.804 206.691 119.987 206.365 120.269C206.253 120.336 206.141 120.404 206.025 120.474C205.859 120.577 205.859 120.577 205.689 120.684C205.155 120.926 204.763 120.858 204.219 120.676C204.108 120.344 204.108 120.344 204.058 120.031C205.102 119.295 205.541 119.168 206.801 119.385L206.802 119.385Z" fill="#D9381F"/>
<path d="M202.929 105.188C203.298 105.48 203.298 105.48 203.432 105.836C203.442 105.931 203.451 106.027 203.461 106.125C203.228 106.129 202.998 106.133 202.765 106.135C202.572 106.138 202.572 106.138 202.373 106.141C202.009 106.125 202.009 106.125 201.525 105.963V105.479C201.152 105.533 200.779 105.586 200.396 105.641C200.43 105.134 200.556 104.997 200.941 104.653C201.778 104.452 202.202 104.779 202.925 105.189L202.929 105.188Z" fill="#D9381F"/>
<path d="M119.36 40.6554C119.686 40.8117 120.009 40.9716 120.328 41.1394V41.7847H120.006V42.5913C119.683 42.43 119.683 42.43 119.38 42.188C119.035 41.9444 118.796 41.8783 118.392 41.7847L118.07 41.462V40.8167C118.572 40.5118 118.809 40.444 119.36 40.6554Z" fill="#D9381F"/>
<path d="M177.439 248.45C177.46 249.539 177.46 249.539 177.278 249.902C176.189 249.781 176.189 249.781 175.826 249.418C175.846 249.014 175.846 249.014 175.988 248.611C176.488 248.217 176.847 248.285 177.439 248.45Z" fill="#D9381F"/>
<path d="M190.831 102.929C190.777 103.195 190.724 103.461 190.669 103.736C190.005 103.944 189.432 104.1 188.733 104.058C188.764 103.674 188.764 103.674 188.895 103.252C189.516 102.868 190.116 102.902 190.831 102.929Z" fill="#D9381F"/>
<path d="M191.797 248.933C191.904 248.987 192.01 249.04 192.12 249.095C192.015 249.29 192.015 249.29 191.909 249.488C191.195 250.994 190.481 252.925 190.991 254.586C190.831 254.533 190.671 254.48 190.507 254.425C190.417 252.408 190.585 250.618 191.797 248.94V248.933Z" fill="#D9381F"/>
<path d="M156.467 171.011C156.484 171.114 156.5 171.217 156.517 171.324C156.554 171.433 156.591 171.543 156.628 171.656C156.788 171.709 156.948 171.762 157.112 171.817V172.624C156.74 172.73 156.367 172.837 155.983 172.947H156.306C156.252 173.106 156.199 173.266 156.144 173.431C155.931 173.218 155.718 173.005 155.499 172.785C155.609 172.606 155.609 172.606 155.722 172.422C155.933 172.064 156.125 171.708 156.306 171.333C156.359 171.227 156.412 171.12 156.467 171.011Z" fill="#D9381F"/>
<path d="M194.864 119.385V120.191C194.144 120.271 194.144 120.271 193.412 120.353C193.359 120.087 193.305 119.82 193.25 119.546C193.828 119.169 194.206 119.235 194.864 119.385Z" fill="#D9381F"/>
<path d="M139.527 116.158C139.437 116.679 139.306 116.962 138.881 117.288H138.397V116.158C138.902 115.99 139.041 116.008 139.527 116.158Z" fill="#D9381F"/>
<path d="M192.766 116.642C192.558 116.777 192.35 116.912 192.14 117.045C192.024 117.12 191.908 117.195 191.788 117.273C191.474 117.449 191.474 117.449 191.151 117.449V118.255C190.938 118.149 190.725 118.042 190.506 117.933C190.612 117.88 190.719 117.826 190.829 117.771C190.882 117.612 190.935 117.452 190.99 117.287H191.313V116.965C191.863 116.552 192.113 116.436 192.764 116.642H192.766Z" fill="#D9381F"/>
<path d="M191.96 111.318H192.283V111.964C192.19 112.003 192.097 112.043 192 112.085C191.589 112.314 191.312 112.59 190.992 112.932C190.886 112.878 190.779 112.825 190.669 112.77C190.876 112.527 191.086 112.286 191.295 112.044C191.47 111.843 191.47 111.843 191.647 111.636C191.751 111.531 191.854 111.426 191.962 111.318H191.96Z" fill="#D9381F"/>
<path d="M202.608 107.124H203.253C203.306 107.337 203.359 107.55 203.414 107.769C203.201 107.822 202.988 107.875 202.769 107.93C202.929 107.984 203.088 108.037 203.253 108.092C202.987 108.038 202.721 107.985 202.446 107.93C202.446 107.285 202.446 107.285 202.608 107.124Z" fill="#D9381F"/>
<path d="M127.266 38.8807V39.2033H126.943V39.526H125.814V39.042C126.309 38.895 126.75 38.8662 127.266 38.8807Z" fill="#D9381F"/>
<path d="M127.266 37.9128H127.589C127.535 38.2323 127.482 38.5517 127.427 38.8808H126.621C126.825 38.5517 127.042 38.2291 127.266 37.9128Z" fill="#D9381F"/>
<path d="M107.099 221.346C107.499 221.426 107.499 221.426 107.906 221.507C107.959 221.667 108.012 221.827 108.067 221.991C107.583 221.991 107.583 221.991 107.099 221.668V221.346Z" fill="#D9381F"/>
<path d="M185.184 123.741H185.506C185.559 123.9 185.613 124.06 185.667 124.225C185.401 124.278 185.135 124.331 184.861 124.386C184.967 124.173 185.074 123.96 185.184 123.741Z" fill="#D9381F"/>
<path d="M208.577 109.866C208.79 109.92 209.003 109.973 209.222 110.028V110.512H208.738C208.685 110.299 208.632 110.086 208.577 109.866Z" fill="#D9381F"/>
<path d="M184.7 123.741C184.806 123.794 184.913 123.847 185.022 123.902C184.969 124.115 184.916 124.328 184.861 124.547H184.377V123.902C184.483 123.849 184.59 123.795 184.7 123.741Z" fill="#D9381F"/>
<path d="M112.907 235.382C112.96 235.595 113.014 235.808 113.068 236.027C112.909 236.08 112.749 236.133 112.584 236.188C112.726 235.562 112.726 235.562 112.907 235.382Z" fill="#D9381F"/>
<path d="M79.5117 208.117C79.9102 208.277 79.9102 208.277 80.3184 208.44C80.1054 208.493 79.8925 208.546 79.673 208.601C79.6198 208.441 79.5666 208.282 79.5117 208.117Z" fill="#D9381F"/>
<path d="M154.531 179.238H155.337V179.561C155.071 179.508 154.805 179.455 154.531 179.4V179.238Z" fill="#D9381F"/>
<path d="M120.652 208.601C120.705 208.814 120.758 209.026 120.813 209.246H120.329C120.436 209.033 120.542 208.82 120.652 208.601Z" fill="#D9381F"/>
<path d="M155.015 159.072C155.337 159.395 155.337 159.395 155.337 159.879H155.015V159.072Z" fill="#D9381F"/>
<path d="M133.719 31.9434V32.266H132.751C133.356 31.9434 133.356 31.9434 133.719 31.9434Z" fill="#D9381F"/>
<path d="M202.284 106.317H203.252V106.478H202.284V106.317Z" fill="#D9381F"/>
<path d="M117.585 208.278C117.745 208.331 117.905 208.385 118.069 208.439C117.91 208.493 117.75 208.546 117.585 208.601V208.278Z" fill="#D9381F"/>
<path d="M94.8384 199.244H95.645V199.405H94.8384V199.244Z" fill="#D9381F"/>
<path d="M119.038 113.254H119.845V113.415H119.038V113.254Z" fill="#D9381F"/>
<path d="M67.251 43.0752H68.0576V43.2365H67.251V43.0752Z" fill="#D9381F"/>
<path d="M118.393 38.7194H119.2V38.8807H118.393V38.7194Z" fill="#D9381F"/>
<path d="M74.5107 38.7194H75.3174V38.8807H74.5107V38.7194Z" fill="#D9381F"/>
<path d="M114.359 210.375H114.682V210.698H114.359V210.375Z" fill="#D9381F"/>
<path d="M156.951 172.785C157.11 172.865 157.11 172.865 157.273 172.947C157.167 173.053 157.06 173.16 156.951 173.269V172.785Z" fill="#D9381F"/>
<path d="M127.266 39.3646H127.588V39.6873H127.266V39.3646Z" fill="#D9381F"/>
<path d="M128.234 37.106H128.557V37.4286H128.234V37.106Z" fill="#D9381F"/>
<path d="M158.563 256.677C158.67 256.784 158.776 256.89 158.886 257H158.563V256.677Z" fill="#D9381F"/>
<path d="M176.31 249.74C176.417 249.847 176.523 249.953 176.633 250.063H176.31V249.74Z" fill="#D9381F"/>
<path d="M113.553 234.898C113.606 235.004 113.659 235.111 113.714 235.22C113.608 235.167 113.501 235.114 113.392 235.059C113.445 235.006 113.498 234.952 113.553 234.898Z" fill="#D9381F"/>
<path d="M106.131 221.185C106.291 221.265 106.291 221.265 106.454 221.346C106.294 221.426 106.294 221.426 106.131 221.507V221.185Z" fill="#D9381F"/>
<path d="M86.6104 212.957C87.0943 213.118 87.0943 213.118 87.0943 213.118L86.6104 212.957Z" fill="#D9381F"/>
<path d="M151.788 189.241C152.272 189.402 152.272 189.402 152.272 189.402L151.788 189.241Z" fill="#D9381F"/>
<path d="M127.266 135.679L127.588 136.002H127.266V135.679Z" fill="#D9381F"/>
<path d="M142.431 119.223C142.915 119.385 142.915 119.385 142.915 119.385L142.431 119.223Z" fill="#D9381F"/>
<path d="M84.5132 51.1418C84.9972 51.3032 84.9972 51.3032 84.9972 51.3032L84.5132 51.1418Z" fill="#D9381F"/>
<path d="M119.199 42.2687C119.683 42.43 119.683 42.43 119.683 42.43L119.199 42.2687Z" fill="#D9381F"/>
<path d="M62.7339 41.3008C63.2179 41.4621 63.2179 41.4621 63.2179 41.4621L62.7339 41.3008Z" fill="#D9381F"/>
<path d="M125.007 39.8488C125.491 40.0101 125.491 40.0101 125.491 40.0101L125.007 39.8488Z" fill="#D9381F"/>
<path d="M58.5386 39.2034L58.8612 39.526H58.5386V39.2034Z" fill="#D9381F"/>
<path d="M127.428 39.0421C127.912 39.2034 127.912 39.2034 127.912 39.2034L127.428 39.0421Z" fill="#D9381F"/>
<path d="M54.1831 33.8795C54.6671 34.0408 54.6671 34.0408 54.6671 34.0408L54.1831 33.8795Z" fill="#D9381F"/>
<rect x="75.5059" y="26.2296" width="7.00865" height="4.38041" fill="#D9381F"/>
<path d="M90.8366 21.4111L93.0002 28.0701H100.002L94.3374 32.1855L96.501 38.8444L90.8366 34.729L85.1722 38.8444L87.3358 32.1855L81.6714 28.0701H88.673L90.8366 21.4111Z" fill="#FFF500"/>
</svg>
