<svg width="439" height="640" viewBox="0 0 439 640" fill="none" xmlns="http://www.w3.org/2000/svg">
<circle cx="277.998" cy="277.998" r="277.998" fill="#D79F00"/>
<rect x="190" y="112.879" width="16" height="10" fill="#D9381F"/>
<path d="M154.61 53C156.267 53.4935 156.735 54.0902 157.556 55.5781H158.293V56.3147C158.624 56.3681 158.624 56.3681 158.963 56.4226C159.936 56.7379 160.23 57.1003 160.849 57.9032C161.556 58.7945 162.05 59.3101 163.015 59.9509C164.226 61.1295 164.149 62.4149 164.19 64.0391C164.483 64.0177 164.775 63.9964 165.077 63.9743C168.661 63.8218 168.661 63.8218 169.865 64.8913C170.184 65.218 170.502 65.5432 170.83 65.8821L171.979 66.4566C173.066 67.0017 173.732 67.5321 174.513 68.4602V69.1968C175.22 69.1746 175.924 69.1419 176.631 69.1047C177.025 69.0876 177.415 69.0705 177.82 69.0528C179.143 68.7858 179.526 68.342 180.406 67.3549C181.548 66.9756 182.362 66.9387 183.558 66.9424C183.916 66.9415 184.273 66.9405 184.641 66.9395C185.562 66.9885 185.562 66.9885 186.299 67.3557V68.0923C186.785 68.2139 187.271 68.3354 187.772 68.4606V69.1972H188.508C188.6 69.4326 188.691 69.6686 188.785 69.9117C189.168 70.7072 189.168 70.7073 189.867 70.9466C192.98 71.2833 195.613 70.641 198.375 69.2451C199.55 68.8326 199.55 68.8326 200.629 69.2681C200.88 69.4884 201.13 69.7101 201.388 69.9347V70.6713C201.753 70.6865 202.117 70.7017 202.493 70.7174C204.077 70.9321 205.012 71.7376 206.213 72.7209C207.005 73.3286 207.789 73.6896 208.743 73.9842C208.087 75.73 207.207 77.2952 206.29 78.9194C205.727 79.936 205.727 79.936 205.428 81.3576H201.377C201.27 81.9432 201.164 82.5288 201.055 83.1291C200.822 84.4108 200.642 85.0369 199.906 86.1455C199.816 87.4088 199.816 87.4088 199.86 88.7936C199.866 89.2613 199.873 89.7291 199.88 90.2152C199.888 90.5747 199.897 90.9334 199.906 91.3054C200.253 91.2921 200.602 91.2788 200.959 91.2653C202.115 91.3054 202.115 91.3054 202.944 91.9503C204.358 93.7697 204.358 93.7697 204.274 94.9741C204.172 95.7143 204.065 96.4583 203.957 97.1986C204.079 97.4417 204.2 97.6848 204.326 97.9352C204.356 98.4435 204.365 98.948 204.362 99.4563C204.36 99.7531 204.359 100.049 204.358 100.355C204.355 100.665 204.352 100.974 204.349 101.294C204.347 101.607 204.345 101.92 204.344 102.241C204.339 103.014 204.333 103.788 204.326 104.561C204.447 104.318 204.569 104.075 204.694 103.824C208.06 102.694 211.692 104.27 214.748 105.681C215.349 106.011 215.923 106.388 216.494 106.771C216.373 107.743 216.251 108.715 216.126 109.717C216.475 109.846 216.826 109.975 217.187 110.108C218.785 110.778 220.089 111.787 221.459 112.837C222.811 113.651 224.03 113.82 225.584 113.673C226.435 113.765 226.435 113.765 227.057 114.523C227.591 115.724 227.952 116.914 228.276 118.184C228.398 117.941 228.519 117.698 228.644 117.448C229.915 117.024 230.983 116.711 232.327 116.711C232.631 116.896 232.631 116.896 232.939 117.083C234.239 117.632 235.506 117.474 236.88 117.378C237.172 117.361 237.465 117.343 237.764 117.325C240.102 117.159 242.294 116.747 244.577 116.165C245.579 115.972 245.579 115.972 246.684 116.341C246.98 116.831 246.98 116.831 247.28 117.331C248.282 118.959 249.881 119.773 251.479 120.76C251.847 121.129 251.847 121.129 251.87 122.071L251.847 122.97L250.764 122.763C250.392 122.71 250.02 122.657 249.637 122.602C249.515 122.723 249.394 122.845 249.268 122.97H248.532C248.425 122.613 248.319 122.256 248.21 121.887C247.927 120.72 247.927 120.72 247.06 120.392V121.129H243.009C243.1 121.463 243.191 121.799 243.285 122.141C243.377 123.338 243.377 123.338 242.825 124.145C241.904 124.812 241.904 124.812 240.685 125.272C239.138 125.865 238.31 126.951 237.293 128.222C236.748 128.863 236.748 128.863 236.011 129.231C236.046 129.529 236.08 129.828 236.115 130.134C236.328 133.283 236.328 133.283 235.47 134.259C234.69 134.723 233.89 135.095 233.062 135.474C232.465 135.864 231.872 136.262 231.29 136.671C230.373 137.301 229.706 137.698 228.642 138.052C228.521 138.417 228.399 138.781 228.274 139.157C227.43 139.455 227.43 139.455 226.362 139.687C225.003 140.017 224.234 140.254 223.07 141.068C221.608 141.989 220.381 141.871 218.687 141.735C218.913 140.645 219.147 140.122 219.792 139.157C219.085 139.305 219.085 139.305 218.363 139.456C218.098 139.512 217.832 139.567 217.56 139.624C216.705 139.865 216.705 139.865 216.105 140.998C215.346 141.212 215.346 141.212 214.47 141.297C214.182 141.33 213.895 141.363 213.597 141.397C212.79 141.366 212.79 141.366 211.685 140.631L212.26 141.297L212.79 142.104C212.669 142.468 212.547 142.833 212.422 143.209C212.002 143.289 212.002 143.289 211.571 143.37C210.551 143.564 210.551 143.564 209.476 143.944C209.719 144.552 209.962 145.16 210.212 145.786H210.949C211.07 146.272 211.192 146.758 211.317 147.259C210.378 146.869 209.899 146.596 209.292 145.764C208.647 144.935 208.286 144.821 207.266 144.681L207.289 145.878C207.266 147.259 207.266 147.259 207.059 148.066C206.861 148.887 207.011 149.414 207.266 150.206C205.148 151.679 205.148 151.679 204.319 151.679V152.784C203.59 153.027 202.861 153.27 202.109 153.52C202.094 153.794 202.079 154.065 202.063 154.349C201.614 155.767 200.785 156.113 199.53 156.835C199.894 157.321 200.259 157.807 200.634 158.308C200.27 159.037 199.905 159.767 199.53 160.518H200.634C201.283 162.466 200.596 164.496 199.828 166.374C198.517 167.914 196.97 168.587 195.04 168.974C193.442 169.42 193.073 169.873 192.163 171.206H191.427C191.313 171.502 191.313 171.502 191.197 171.803C190.493 173.014 189.569 174.002 188.479 174.889H187.742V175.626C185.761 176.764 184.239 177.276 181.96 177.401C181.116 177.466 180.428 177.519 179.639 177.836C178.947 178.889 178.627 180.097 178.236 181.29C177.606 183.069 176.899 184.226 175.588 185.562H176.693V186.299C176.203 186.789 175.71 187.282 175.22 187.772C172.859 191.039 173.246 195.101 173.202 198.969C173.192 199.4 173.182 199.827 173.172 200.269C173.167 200.655 173.162 201.046 173.157 201.444C172.94 203.02 172.28 203.985 171.168 205.097C171.006 205.885 170.862 206.674 170.73 207.469C170.247 209.73 170.247 209.73 169.445 210.408C168.752 210.668 168.752 210.668 167.485 210.99C166.435 212.563 166.609 213.933 166.749 215.778C166.986 217.052 166.986 217.052 167.485 217.988C167.85 218.109 168.214 218.231 168.59 218.356C168.643 218.591 168.696 218.827 168.751 219.071C168.82 219.321 168.888 219.571 168.958 219.829C169.445 220.081 169.938 220.326 170.432 220.566C171.455 221.895 171.22 223.387 171.168 224.985C171.654 224.864 172.14 224.742 172.641 224.617C174.196 228.853 174.196 228.853 174.851 230.878H175.588C176.081 231.49 176.575 232.105 177.061 232.72C177.335 232.917 177.61 233.114 177.89 233.316C178.209 233.567 178.209 233.567 178.534 233.825V234.93H179.271C181.112 236.948 181.112 236.948 181.112 237.876C181.348 237.975 181.584 238.073 181.827 238.175C182.585 238.613 182.585 238.613 182.954 239.718C183.628 240.03 183.628 240.03 184.449 240.226C187.134 241.044 189.384 242.58 191.41 244.499C191.918 245.534 191.918 245.534 192.147 246.34C192.611 246.363 193.075 246.386 193.55 246.41C194.784 246.56 194.99 246.589 195.83 247.584C196.198 248.549 196.198 248.549 196.198 249.654H196.935C197.443 250.255 197.936 250.866 198.408 251.496C197.977 252.59 197.69 252.954 196.68 253.613C195.69 254.391 195.69 254.391 195.76 255.683C197.218 262.644 202.389 270.673 207.987 275.056C208.352 275.178 208.716 275.299 209.092 275.424C209.363 275.696 209.634 275.969 209.913 276.249C211.261 277.594 212.775 278.599 214.333 279.667C214.926 280.08 215.504 280.514 216.075 280.952V281.689C216.291 281.79 216.506 281.891 216.727 281.994C218.421 282.885 219.854 283.968 220.594 285.751C220.731 286.285 220.731 286.285 220.87 286.834C221.235 287.449 221.603 288.064 221.975 288.675V289.412L222.852 289.688C223.817 290.148 223.817 290.148 224.119 290.819C224.73 291.942 225.574 292.424 226.627 293.139C227.301 293.596 227.964 294.067 228.608 294.568V295.304C228.859 295.38 229.109 295.456 229.367 295.535C230.601 296.113 231.452 296.849 232.457 297.759C233.021 298.286 233.021 298.286 233.765 298.621V299.358C234.031 299.449 234.295 299.54 234.571 299.634C235.731 300.149 236.538 300.683 237.448 301.567C237.57 302.182 237.693 302.794 237.816 303.409C238.825 304.385 239.963 305.074 241.153 305.803C243.344 307.169 243.344 307.169 244.077 308.197C244.203 308.944 244.263 309.688 244.327 310.443C244.41 311.224 244.41 311.224 245.046 312.042C246.18 312.79 247.16 312.882 248.5 312.985C248.622 312.256 248.743 311.526 248.869 310.775C250.872 311.32 250.872 311.32 252.92 311.88C253.163 312.974 253.406 314.068 253.657 315.195C254.021 315.073 254.386 314.951 254.761 314.826C255.126 314.948 255.491 315.069 255.866 315.195V315.931H256.603C256.481 317.147 256.36 318.362 256.235 319.614C257.329 319.979 258.422 320.343 259.549 320.719C259.511 321.061 259.474 321.404 259.434 321.754C259.492 322.336 259.492 322.336 259.549 322.929C260.378 323.562 260.378 323.562 261.391 324.034C262.242 324.792 262.242 324.792 262.864 325.507V326.244L263.509 326.497C265.184 327.473 265.969 329.053 266.731 330.769C267.862 333.119 269.346 335.115 270.93 337.141C271.117 337.381 271.306 337.62 271.497 337.866C271.666 338.079 271.836 338.294 272.009 338.511C272.421 339.108 272.422 339.108 272.79 340.212H273.526C274.753 341.288 275.361 341.969 275.736 343.527C275.956 343.634 276.178 343.74 276.403 343.849C277.585 344.457 278.031 345.337 278.683 346.472V347.577C279.5 346.866 279.5 346.866 279.788 345.735C280.454 345.804 280.454 345.804 281.261 346.103C282.255 347.393 282.546 348.553 282.734 350.155C283.099 350.276 283.463 350.398 283.839 350.523C283.556 352.924 283.556 352.924 283.051 353.974C282.634 355.252 282.896 355.86 283.357 357.105C283.499 357.495 283.641 357.885 283.788 358.287C284.27 359.517 284.786 360.729 285.313 361.94C285.692 362.986 286.064 364.036 286.432 365.089C286.779 366.065 286.779 366.065 287.523 367.097V368.202H288.259C289.607 370.408 289.53 372.363 289.559 374.868C289.608 376.684 289.791 377.715 290.837 379.251C291.029 380.16 291.029 380.16 291.136 381.114C291.465 383.232 292.315 384.834 293.317 386.712C293.924 388.031 293.976 388.882 293.784 390.303H293.048V392.145H293.784V392.881H294.521C295.302 394.797 295.799 396.601 296.164 398.627C296.353 399.463 296.617 400.141 296.985 400.91C297.467 402.085 297.467 402.085 297.467 403.12C297.099 403.927 297.099 403.927 295.258 404.663C295.136 406 295.015 407.337 294.889 408.715H295.626C295.694 409.4 295.694 409.4 295.764 410.096C295.908 411.271 296.173 412.085 296.729 413.134C296.87 413.867 296.996 414.604 297.097 415.344C296.49 415.587 295.882 415.83 295.256 416.081C295.087 417.738 295.17 418.714 296.154 420.058C296.321 420.262 296.488 420.463 296.659 420.673C297.587 421.904 297.462 423.056 297.444 424.541C297.448 428.518 298.64 430.802 301.057 433.895C302.044 435.225 302.99 436.503 302.99 438.205C302.641 438.341 302.29 438.478 301.929 438.617C300.685 439.21 300.685 439.21 300.272 440.481C300.196 440.822 300.12 441.166 300.042 441.516C299.774 441.544 299.504 441.572 299.228 441.6C297.935 441.956 297.397 442.514 296.473 443.471C296.191 443.759 295.91 444.046 295.619 444.34C294.543 445.596 294.083 446.594 293.921 448.244C293.875 448.701 293.83 449.158 293.783 449.626H294.887C295.399 450.218 295.399 450.218 295.878 451.007C296.119 451.39 296.119 451.39 296.364 451.784C296.728 452.572 296.728 452.572 296.728 454.045H297.465V454.782H298.201V455.887C296.747 455.679 295.726 455.253 294.518 454.413C294.397 454.17 294.275 453.927 294.15 453.677C293.542 453.798 292.935 453.92 292.309 454.045V454.782C292.537 455.01 292.765 455.238 293.001 455.474C294.139 456.612 294.493 457.29 294.588 458.903C294.519 459.938 294.519 459.938 294.15 460.306C293.981 462.726 294.117 464.984 294.721 467.341C294.921 468.203 294.942 469.009 294.885 469.886H295.622C295.755 470.423 295.885 470.961 296.012 471.499C296.084 471.798 296.157 472.096 296.232 472.405C296.357 473.201 296.357 473.2 295.989 473.937C295.297 474.144 295.297 474.144 294.516 474.305C294.151 474.427 293.787 474.548 293.411 474.674C293.141 475.418 293.141 475.418 293.043 476.147H293.779C294.575 478.913 294.509 480.419 293.205 483.071C292.192 484.898 292.192 484.898 291.175 485.321C290.395 485.395 290.395 485.395 288.991 485.372L287.886 486.108C287.773 487.21 287.714 488.252 287.702 489.353C287.66 493.147 287.66 493.147 286.413 494.583C285.128 494.726 284.133 494.67 282.892 494.307C281.507 494.165 280.848 494.855 279.784 495.688C278.959 496.366 278.708 496.712 278.355 497.736C277.942 498.634 277.942 498.634 277.18 499.095C275.725 499.467 274.278 499.614 272.797 499.739V500.476L271.648 500.844C270.422 501.356 269.877 501.938 269.14 503.032C268.061 504.612 266.871 505.385 265.052 506H264.315C264.072 506.73 263.829 507.459 263.579 508.21L262.286 508.319C261.719 508.375 261.151 508.43 260.584 508.486C260.304 508.509 260.024 508.532 259.737 508.556C257.774 508.758 256.684 509.241 255.097 510.419H254.36C254.269 510.655 254.178 510.891 254.084 511.134C253.697 512.084 253.299 513.027 252.887 513.966C252.765 514.244 252.644 514.522 252.519 514.809C252.15 515.579 252.15 515.579 251.414 516.684C250.449 516.862 250.449 516.862 249.248 516.96C246.869 517.271 245.307 518.058 243.318 519.339C242.147 520.028 241.016 520.474 239.735 520.919C237.809 521.616 236.453 522.481 234.91 523.792C232.822 525.427 230.343 526.374 227.802 527.081C226.992 527.409 226.597 527.855 225.993 528.47C225.073 528.539 225.073 528.539 224.152 528.47H223.047C222.425 527.917 222.425 527.917 221.942 527.365L221.643 528.263C221.499 528.575 221.354 528.886 221.205 529.206C220.84 529.328 220.476 529.449 220.1 529.575V530.311C219.857 530.19 219.614 530.068 219.363 529.943C219.485 529.7 219.606 529.457 219.732 529.206H220.468V528.101H221.205C221.448 527.494 221.691 526.886 221.941 526.26C221.6 526.214 221.256 526.168 220.906 526.122C219.732 525.892 219.732 525.892 218.627 525.157C217.662 525.163 216.752 525.206 215.794 525.295C215.536 525.316 215.279 525.336 215.01 525.358C214.373 525.41 213.736 525.467 213.099 525.525C213.159 525.867 213.22 526.21 213.283 526.56C213.467 527.735 213.467 527.735 213.467 528.84C213.017 528.718 212.572 528.597 212.108 528.471C211.15 528.223 210.506 528.104 209.508 528.172C208.679 528.103 208.679 528.103 207.828 527.182C207.521 526.725 207.521 526.725 207.206 526.261C206.841 526.382 206.476 526.504 206.101 526.629C206.344 526.751 206.587 526.872 206.837 526.997C208.042 528.85 208.071 530.393 207.942 532.522C207.707 532.571 207.471 532.62 207.231 532.67L206.311 532.867C205.854 532.963 205.854 532.963 205.39 533.061C204.639 533.188 204.639 533.188 204.259 533.628C203.283 533.796 202.3 533.887 201.313 533.997V534.733C201.54 534.814 201.766 534.895 202.002 534.978C204.333 535.851 206.311 536.956 208.3 538.418C208.099 539.379 208.005 539.814 207.309 540.536C206.233 541.117 205.449 541.077 204.248 540.996C204.282 541.43 204.282 541.43 204.317 541.872C204.295 542.191 204.272 542.51 204.248 542.837C202.981 543.684 202.061 543.773 200.565 543.942C201.158 545.095 201.512 545.695 202.661 546.336C202.942 546.519 203.224 546.701 203.512 546.889C203.627 547.879 203.627 547.879 203.512 548.73C202.488 549.242 201.7 549.165 200.565 549.099C199.692 548.73 199.692 548.73 199.092 548.362C198.97 548.483 198.849 548.605 198.724 548.73C198.109 548.746 197.497 548.746 196.882 548.73H196.514C196.879 549.165 196.879 549.165 197.251 549.607C197.987 550.572 197.987 550.572 197.987 551.308H198.724C200.573 554.188 200.573 554.188 200.543 555.838C199.958 557.518 199.534 558.446 197.987 559.407C196.263 559.669 194.54 559.688 192.941 558.947L192.091 558.302C191.564 558.026 191.037 557.757 190.503 557.496C190.247 557.369 189.991 557.242 189.726 557.113L189.148 556.829V556.093C188.271 555.573 188.271 555.573 187.306 555.356C188.22 556.63 188.22 556.63 189.148 557.934C187.078 558.347 187.078 558.347 185.833 557.934C185.913 558.131 185.993 558.328 186.075 558.531C187.007 561.02 187.309 563.319 186.712 565.934C186.2 566.792 186.2 566.792 185.117 567.241C184.679 567.343 184.237 567.445 183.784 567.55C181.968 568.014 180.329 568.519 178.628 569.318C177.42 569.871 176.19 570.353 174.956 570.839C173.203 571.535 171.464 572.243 169.763 573.031C169.07 573.337 168.367 573.62 167.66 573.893C162.393 575.977 159.962 578.791 157.458 583.726C157.318 584.063 157.178 584.4 157.034 584.746C156.044 587.122 154.673 588.334 152.615 589.792C151.535 590.543 150.758 591.214 149.944 592.256C148.847 593.494 147.838 593.921 146.287 594.352C145.904 594.465 145.904 594.465 145.514 594.58C142.744 595.346 139.253 596.079 136.49 595.158C136.615 593.998 136.829 593.711 137.757 592.948C138.069 592.705 138.38 592.462 138.7 592.212C139.183 591.431 139.183 591.431 139.437 590.739H140.173V590.002C140.781 589.88 141.389 589.759 142.015 589.634C141.772 588.904 141.529 588.175 141.278 587.424C140.914 587.545 140.549 587.667 140.173 587.792C139.44 587.939 138.704 588.064 137.964 588.161C137.842 588.039 137.721 587.917 137.595 587.792C137.626 587.004 137.682 586.216 137.748 585.428C137.91 583.299 138.007 581.192 138.041 579.056C138.046 578.777 138.051 578.496 138.056 578.209C138.066 577.627 138.076 577.045 138.086 576.463C138.18 571.233 138.409 566.004 138.863 560.774C138.885 560.504 138.908 560.236 138.931 559.96C139.627 551.82 139.627 551.82 141.649 549.868C142.382 549.375 143.119 548.881 143.859 548.395C144.235 548.001 144.603 547.603 144.964 547.198C145.833 546.281 145.973 546.196 147.314 546.049C147.792 546.117 147.792 546.117 148.279 546.187C148.175 545.642 148.067 545.097 147.956 544.552C147.897 544.248 147.837 543.944 147.775 543.631C147.698 543.38 147.621 543.13 147.542 542.869C147.299 542.747 147.056 542.626 146.805 542.5C146.585 542.166 146.363 541.83 146.139 541.488C145.167 540.268 144.146 539.933 142.684 539.44C140.784 538.788 139.62 538.066 138.191 536.655C136.88 535.315 136.88 535.315 135.038 535.042C133.963 535.481 133.576 535.801 132.806 536.608C131.908 536.815 131.908 536.815 130.965 536.608C129.867 535.252 129.164 533.742 128.387 532.188C128.079 531.812 128.079 531.812 127.764 531.429C127.153 530.527 127.282 529.941 127.282 528.873C126.917 528.63 126.553 528.387 126.177 528.137C126.45 527.992 126.726 527.848 127.006 527.698C128.055 527.08 128.055 527.08 128.755 526.111C129.775 524.837 130.714 524.163 132.353 523.96C132.714 523.966 133.075 523.972 133.447 523.978C133.841 523.981 134.232 523.985 134.637 523.988C135.042 523.998 135.451 524.007 135.867 524.017C136.279 524.021 136.692 524.026 137.119 524.032C138.136 524.045 139.152 524.063 140.172 524.085C140.281 523.801 140.389 523.515 140.501 523.224C141.348 521.194 142.847 519.854 144.589 518.546C145.83 518.064 145.83 518.064 146.798 517.81C146.895 516.27 146.835 515.169 146.246 513.721C145.73 512.447 145.465 511.453 145.694 510.06C146.29 509.346 146.29 509.346 147.167 508.956C148.596 509.045 149.59 509.431 150.85 510.06C153.759 510.97 153.759 510.97 156.743 510.797C157.464 510.223 157.464 510.223 158.146 509.508C159.435 508.256 159.435 508.256 160.606 508.086C161.28 508.114 161.958 508.151 162.632 508.197C165.412 508.251 168.046 507.464 170.366 506.01H171.103V506.746H171.839C172.381 507.486 172.381 507.486 172.966 508.473C173.16 508.794 173.353 509.114 173.556 509.446C174.038 510.407 174.263 511.214 174.417 512.274C175.091 512.081 175.091 512.081 175.776 511.884C177.526 511.453 178.572 511.56 180.159 512.436C181.868 513.228 183.603 513.468 185.463 513.748C185.41 513.166 185.356 512.58 185.301 511.998C185.271 511.673 185.242 511.35 185.211 511.015C185.108 510.179 184.951 509.402 184.725 508.591C185.332 508.348 185.94 508.105 186.566 507.855C185.999 506.116 185.432 504.385 184.725 502.699C184.458 502.787 184.191 502.876 183.918 502.967C182.883 503.067 182.883 503.067 181.977 502.511L181.067 501.708C180.047 500.828 179.16 500.095 177.981 499.428C176.401 498.179 175.661 496.916 175.149 494.972C175.049 493.392 175.088 491.812 175.184 490.22C175.283 488.125 175.053 487.072 173.674 485.396C173.329 484.589 173.329 484.589 173.306 483.923C173.737 483.333 173.737 483.333 174.411 482.818C175.324 482.71 175.324 482.71 176.322 482.748C176.654 482.758 176.985 482.768 177.328 482.779C177.581 482.791 177.832 482.804 178.094 482.817C178.329 482.416 178.565 482.011 178.808 481.598C178.941 481.372 179.073 481.145 179.21 480.913C179.619 480.191 179.619 480.191 179.935 479.138C182.145 478.674 183.471 478.881 185.46 479.875H186.565V480.611C186.974 480.588 186.974 480.588 187.393 480.565C188.406 480.611 188.406 480.611 189.051 480.967C190.159 481.475 191.15 481.504 192.365 481.578C193.014 481.619 193.014 481.619 193.673 481.662L194.667 481.716L194.654 480.88C194.649 480.335 194.649 480.335 194.644 479.782C194.64 479.423 194.636 479.064 194.631 478.696C194.667 477.665 194.667 477.665 194.852 476.939C195.104 475.912 195.07 474.943 195.059 473.89C195.054 473.293 195.054 473.293 195.049 472.685C195.044 472.383 195.04 472.081 195.036 471.772C196.152 471.4 196.862 471.374 198.022 471.389C198.575 471.386 198.575 471.386 199.138 471.382C199.912 471.38 200.685 471.388 201.459 471.405C203.584 471.412 203.584 471.412 205.363 470.367C205.963 469.579 205.963 469.579 206.435 468.754C206.84 468.087 206.84 468.087 207.576 467.719C208.482 467.642 209.385 467.581 210.294 467.535C212.482 467.497 212.482 467.497 214.567 466.982C214.688 466.618 214.81 466.253 214.935 465.877H215.671V465.141C216.18 464.544 216.18 464.544 216.776 464.036H217.513C217.638 463.751 217.638 463.751 217.766 463.461C219.626 460.01 219.626 460.01 221.781 459.336C222.055 459.265 222.33 459.195 222.61 459.122C223.431 458.923 223.431 458.923 224.193 458.499C225.173 458.024 225.714 458.193 226.727 458.531C226.894 458.721 227.062 458.91 227.235 459.106C227.862 459.761 227.862 459.761 229.099 459.772C230.462 459.629 230.889 459.413 231.883 458.527H232.62V457.791H233.357C234.395 454.509 234.635 451.382 234.605 447.957C234.599 447.139 234.605 446.326 234.612 445.508C234.611 444.981 234.61 444.455 234.608 443.928C234.607 443.46 234.605 442.989 234.604 442.506C234.409 440.735 233.713 439.538 232.744 438.087C231.606 435.976 232.052 433.188 232.666 430.942C233.307 429.037 234.202 427.259 235.068 425.454C235.709 423.973 236.014 422.566 236.305 420.997C236.427 420.876 236.548 420.754 236.673 420.629C236.973 416.431 236.888 412.969 234.832 409.212C234.547 408.645 234.265 408.077 233.981 407.51C233.776 407.101 233.572 406.689 233.359 406.265V405.529C233.116 405.407 232.873 405.286 232.622 405.161C232.258 404.917 231.893 404.674 231.517 404.424C231.384 403.503 231.312 402.656 231.287 401.732C231.219 399.371 231.219 399.371 230.779 397.054C230.097 396.513 230.097 396.513 229.306 396.318C229.063 396.439 228.819 396.561 228.569 396.686C228.498 396.477 228.427 396.27 228.353 396.056C228.257 395.786 228.161 395.515 228.063 395.238C227.969 394.969 227.875 394.701 227.778 394.425C227.519 393.677 227.519 393.677 226.728 393.375C226.85 392.646 226.971 391.916 227.097 391.165H227.833C227.871 390.975 227.909 390.786 227.948 390.591C228.201 389.692 228.201 389.692 228.777 388.473C229.34 387.029 229.333 386.068 229.307 384.532C229.537 383.357 229.537 383.357 230.044 382.322C230.397 382.124 230.751 381.924 231.115 381.722C232.651 380.547 232.861 379.479 233.288 377.634C233.401 377.21 233.401 377.21 233.515 376.779C234.259 373.87 234.259 373.87 234.461 370.886C234.218 370.522 233.975 370.157 233.725 369.782C233.809 367.137 233.809 367.137 234.874 366.025C235.102 365.812 235.331 365.598 235.566 365.38C235.604 364.202 235.11 363.808 234.322 362.916C233.412 362.003 233.412 362.003 232.252 361.697V359.856L233.032 359.585C233.368 359.462 233.703 359.339 234.049 359.21C234.382 359.09 234.716 358.97 235.058 358.847C236.078 358.306 236.318 357.993 236.671 356.906C236.773 356.17 236.773 356.17 236.741 355.433C236.735 355.176 236.73 354.918 236.725 354.652C236.694 353.934 236.694 353.934 236.441 353.176C236.303 352.487 236.303 352.487 236.67 351.492C237.079 350.148 237.06 349.205 236.924 347.813C236.888 347.401 236.851 346.988 236.813 346.565C236.703 345.467 236.703 345.467 236.302 344.381C235.572 344.624 234.843 344.867 234.092 345.117C233.849 344.874 233.606 344.631 233.355 344.381V342.907C233.112 342.786 232.869 342.664 232.618 342.539V342.171C232.081 342.047 231.543 341.924 231.005 341.802C230.706 341.734 230.409 341.666 230.099 341.595C229.319 341.41 229.319 341.41 228.567 341.434C228.443 341.177 228.319 340.918 228.192 340.653C228.027 340.318 227.863 339.983 227.694 339.637C227.451 339.136 227.451 339.136 227.201 338.628C226.556 337.434 226.184 337.081 224.884 336.646V334.068H224.148C223.904 333.703 223.661 333.339 223.411 332.963H223.043C222.74 330.801 222.74 330.801 223.488 329.774C224.733 328.632 225.974 327.995 227.54 327.417C228.648 327 229.215 326.779 230.048 325.921C230.585 324.275 231.197 322.054 230.393 320.434L229.266 320.687C227.565 320.822 226.71 320.535 225.252 319.696C225 319.206 224.755 318.717 224.515 318.223C223.418 317.796 223.418 317.796 222.305 317.486C222.062 317.243 221.819 317 221.569 316.75H220.464C220.284 316.017 220.104 315.288 219.926 314.555C219.58 313.063 219.58 313.063 218.416 312.12C216.685 311.395 214.995 310.853 213.113 310.853C211.076 308.754 210.472 306.323 210.166 303.487H209.061C208.97 303.753 208.879 304.018 208.785 304.294C208.269 305.458 207.754 306.272 206.851 307.17C205.82 307.351 205.194 307.228 204.203 306.917C202.988 306.037 202.837 304.762 202.524 303.348C202.023 301.901 201.423 301.142 200.384 300.052C199.051 298.498 198.97 296.984 198.889 295.006C198.875 294.729 198.861 294.454 198.846 294.166C198.744 291.997 198.708 289.82 198.751 287.647C198.386 287.526 198.021 287.404 197.646 287.279C196.585 286.889 195.616 286.473 194.699 285.806C194.169 284.495 194.169 284.495 193.963 283.228C193.841 282.863 193.72 282.499 193.594 282.123H192.858C191.532 280.466 191.101 279.025 190.648 276.967C190.526 276.845 190.405 276.724 190.28 276.598C189.595 276.621 189.595 276.621 188.899 276.644C186.14 276.4 184.037 274.063 182.195 272.188V271.451C181.99 271.376 181.787 271.3 181.573 271.221C180.365 270.503 179.724 269.63 178.881 268.503V267.767H178.144C177.618 267.163 177.117 266.536 176.627 265.903C174.159 262.747 174.159 262.747 170.771 260.784C169.5 258.791 168.498 256.659 167.456 254.522C167.315 254.269 167.175 254.018 167.029 253.756C166.718 253.049 166.718 253.049 166.764 251.76C166.708 250.191 166.344 250.025 165.247 248.998C165.155 247.985 165.155 247.985 165.247 247.156H164.51C163.494 246.35 163.158 245.551 162.783 244.324C162.69 244.027 162.597 243.728 162.502 243.422C162.402 243.082 162.402 243.082 162.299 242.737C162.056 242.798 161.813 242.858 161.563 242.921C160.141 243.158 158.959 243.222 157.511 243.105C156.753 242.438 156.753 242.438 156.406 241.632C156.528 241.267 156.649 240.903 156.775 240.527C156.509 240.557 156.244 240.588 155.968 240.619C154.587 240.496 154.101 239.989 153.092 239.054C152.773 238.765 152.454 238.476 152.127 238.177C151.217 237.172 150.731 236.218 150.145 235.002C149.849 234.718 149.849 234.718 149.549 234.428C148.827 233.673 148.786 233.091 148.672 232.056C148.932 231.017 148.932 231.017 149.339 229.96C149.47 229.609 149.602 229.257 149.736 228.896C150.145 228.001 150.145 228.001 150.882 227.264C150.807 226.296 150.686 225.648 150.086 224.871C149.166 224.119 148.219 223.788 147.107 223.375L145.81 222.896C144.562 222.458 143.317 222.09 142.054 221.744C141.773 221.607 141.49 221.47 141.203 221.331C140.168 220.994 139.582 221.03 138.511 221.101C135.177 221.165 132.507 219.013 130.15 216.829C129.941 216.625 129.734 216.424 129.517 216.214L128.953 215.668C128.522 215.241 128.099 214.81 127.675 214.372C126.909 213.606 126.511 213.44 125.51 213.105C124.338 212.682 123.469 212.243 122.519 211.426C120.707 209.901 119.002 208.829 116.626 208.479V207.743H115.89L115.385 207.069C114.258 205.573 112.457 204.583 110.597 204.295C110.045 204.262 109.488 204.229 108.936 204.197C107.234 203.903 106.023 202.673 104.848 201.483L105.724 201.207C106.737 200.854 106.737 200.854 107.006 200.036C107.573 199.008 108.174 198.842 109.245 198.397C110.509 197.796 111.05 197.505 111.916 196.371C112.369 194.633 112.12 193.296 111.433 191.657C111.054 190.651 111.057 190.312 111.479 189.333C112.282 188.88 112.282 188.88 113.276 188.526C113.602 188.407 113.928 188.288 114.263 188.165C116.046 187.558 117.486 187.465 119.346 187.561L120.189 187.582C122.064 187.676 122.948 188.028 124.351 189.335C126.498 190.352 128.734 190.86 131.054 190.212C131.986 189.479 132.307 188.558 132.804 187.494C133.909 186.072 135.592 185.428 137.297 184.96C138.848 183.789 138.877 182.36 139.201 180.503C139.437 179.387 139.437 179.387 140.173 178.282H140.91C141.047 177.986 141.047 177.986 141.186 177.686C141.647 176.809 141.647 176.809 142.453 175.752C143.219 174.655 143.219 174.655 143.12 173.428C142.674 172.176 142.45 171.903 141.278 171.288C140.472 170.988 139.658 170.718 138.837 170.46C132.318 168.401 132.318 168.401 130.955 166.869C130.777 165.473 130.764 164.63 131.463 163.392C132.06 162.818 132.06 162.818 132.796 162.818V160.239C132.167 159.786 132.167 159.786 131.323 159.503C130.321 159.793 130.321 159.793 129.482 160.239V160.976C128.907 161.226 128.333 161.47 127.754 161.713C127.434 161.849 127.113 161.986 126.782 162.125C125.758 162.46 125.022 162.563 123.953 162.447C123.217 161.711 123.217 161.711 122.48 160.606V159.133C122.794 158.985 122.794 158.985 123.114 158.834C124.782 157.987 125.975 157.195 127.165 155.725C128.042 154.635 128.255 154.381 129.651 153.976H130.594C130.438 152.963 130.333 152.285 129.857 151.398C128.933 150.746 127.968 150.318 126.911 149.924V149.188C126.683 149.089 126.454 148.99 126.219 148.889C125.434 148.45 125.434 148.45 124.701 147.346C124.068 147.082 123.43 146.819 122.793 146.568C121.729 146.049 121.037 145.294 120.282 144.399V143.663C119.948 143.608 119.948 143.608 119.608 143.553C117.125 143.089 117.125 143.089 116.23 142.165C115.221 141.189 114.359 141.185 112.997 141.041C112.039 141.092 111.509 141.301 110.706 141.822L109.969 142.927C108.953 143.144 108.953 143.144 107.715 143.273C105.568 143.551 104.106 144.079 102.227 145.136H101.491C101.126 146.473 100.762 147.81 100.386 149.187H99.6493L98.9127 151.029C97.6936 151.098 97.6936 151.098 96.3346 151.029C96.1633 150.857 95.9917 150.684 95.8153 150.506C94.8577 149.552 93.6312 149.442 92.3495 149.128C92.0847 149.026 91.8192 148.923 91.5467 148.818L91.1784 147.713C89.6094 147.19 88.0478 147.204 86.3904 147.116C85.2745 146.977 85.2745 146.977 84.1696 146.24C83.805 146.194 83.4403 146.148 83.0647 146.101C81.9598 145.871 81.9598 145.871 81.2674 145.159C80.8549 144.4 80.8549 144.4 80.8549 143.663L79.82 143.733C78.6451 143.663 78.6451 143.663 78.0484 143.158C77.8812 142.961 77.714 142.764 77.5402 142.561L76.822 142.248C75.8975 141.732 75.6766 141.301 75.2383 140.351C75.1149 140.093 74.9915 139.835 74.8626 139.57C74.5923 138.878 74.5923 138.878 74.5923 138.141L73.9956 137.911C72.0031 136.758 70.6551 135.126 69.797 132.976C69.5436 131.734 69.5436 131.734 69.4287 130.766C69.0641 130.644 68.6995 130.523 68.3238 130.397C68.5588 129.296 68.9389 128.405 69.4508 127.407C70.0659 126.085 70.2242 125.153 70.1432 123.687C70.0758 122.328 70.1625 121.683 71.064 120.649C71.3755 120.337 71.6864 120.026 72.0068 119.706C72.4451 118.395 72.4119 117.334 72.3972 115.949C72.3939 115.481 72.3906 115.014 72.3872 114.527L72.3742 113.437H69.0595V112.701H68.3229L68.0006 111.434L67.5881 110.122L66.8515 109.754L66.8976 110.745C66.8497 112.016 66.7488 112.712 66.1168 113.805C64.36 115.29 64.36 115.29 62.9162 115.257C61.9918 114.881 61.5756 114.583 60.9605 113.805C60.9046 113.087 60.9046 113.087 60.9836 112.288C61.058 110.307 60.3906 108.903 59.4883 107.169C59.2422 106.679 58.9984 106.185 58.7517 105.695H58.0151V104.959C57.5805 104.799 57.5805 104.799 57.1385 104.637C56.1735 104.224 56.1735 104.224 55.4369 103.488C55.3305 103.199 55.2241 102.909 55.1147 102.611C54.6506 101.532 54.0613 100.979 53.229 100.173V99.4362L52.5145 99.1371C51.7558 98.6989 51.7558 98.6989 51.3875 97.594C50.8976 97.3432 50.4078 97.1004 49.9143 96.8574C49.1924 96.2607 48.4889 95.6457 47.7965 95.0159L47.2294 94.5113C46.7579 94.0804 46.3086 93.6274 45.863 93.1744V92.4378C45.4983 92.3162 45.1337 92.1947 44.758 92.0695C44.0178 90.7031 43.9515 89.554 44.0214 88.0181H47.3362L47.4282 87.0274C47.7431 85.6352 48.2532 85.0312 49.1777 83.9668L49.5681 83.186C49.9135 82.4936 49.9135 82.4936 50.4446 82.0111C51.1333 81.2672 51.3985 80.4716 51.7779 79.5398C52.5034 78.0188 53.4868 76.192 55.111 75.5622L55.8071 75.493L56.912 76.5979C58.0132 76.8424 58.0132 76.8424 59.1218 76.9662C60.7349 77.5039 62.1934 78.3031 63.6887 79.0839C64.0051 79.2426 64.3222 79.401 64.6463 79.5627C66.3515 80.4466 67.6406 81.1795 68.6976 82.859C68.7584 83.1249 68.8192 83.3893 68.8818 83.6656C68.9985 84.3911 68.9985 84.3911 69.6884 84.7005L70.5391 85.0688L71.5741 85.8275C72.8668 86.612 73.8317 86.7887 75.3307 86.9103L75.7432 86.0816C76.4356 85.0688 76.4356 85.0688 77.5626 84.3801C78.7964 83.4888 78.7707 83.1647 79.0542 81.7504C79.6767 80.3545 81.0247 79.5111 82.1774 78.5462C83.0393 77.7285 83.4481 77.1245 83.9121 76.0454C84.5346 74.7564 84.5346 74.7564 85.4074 74.2481C86.6376 74.4241 87.2563 74.97 88.085 75.8723C88.7995 76.9109 89.131 77.979 89.4514 79.1907C89.6521 79.9862 89.6521 79.9862 90.4237 80.6455C91.5286 80.7991 91.5286 80.7991 92.6335 80.6455C93.3443 79.5811 93.4917 79.117 93.6942 77.9053C93.9885 76.4469 94.3682 75.6808 95.5799 74.7527C97.624 76.4174 99.4839 78.2442 101.325 80.1299C102.405 81.2679 102.405 81.2679 103.697 82.1224V82.859L105.17 83.2273V83.9639C106.264 84.0854 107.358 84.207 108.485 84.3322C108.552 83.9381 108.619 83.5403 108.688 83.1352C108.781 82.6048 108.875 82.0782 108.969 81.5478C109.012 81.2885 109.056 81.0285 109.1 80.7633C109.418 78.9918 109.929 77.4928 110.695 75.8649H111.432V75.1283C112.717 74.0529 113.951 73.3347 115.63 73.1469C116.595 73.285 116.595 73.285 117.332 73.6551C117.562 74.7821 117.562 74.7821 117.7 75.8649H118.437V76.6015C120.705 77.445 122.109 77.6181 124.33 76.6015V75.8649H125.066V75.1283C126.558 73.7177 128.024 73.1653 130.075 73.1948C130.742 73.2205 131.412 73.2507 132.079 73.2868C133.53 73.2868 134.307 73.2191 135.415 72.263C135.924 71.7473 136.421 71.217 136.903 70.6756C137.596 69.9795 138.178 69.6149 139.073 69.2355C138.922 67.9722 138.72 67.0552 138.13 65.9208C137.552 64.7091 137.507 63.9283 137.599 62.6061C140.244 61.225 140.244 61.225 141.688 60.7867C143.028 60.2895 143.872 59.4755 144.958 58.5548C146.394 57.8624 147.787 57.6451 149.341 57.4057C151.175 57.0337 152.217 56.7427 153.355 55.218C153.819 54.4703 153.819 54.4703 154.162 53.7669C154.283 53.5238 154.405 53.2807 154.53 53.0303L154.61 53ZM127.356 116.348V116.716H130.302V116.348H127.356ZM194.018 116.348V116.716H200.648V116.348H194.018ZM228.639 134.026V135.868H229.007V134.026H228.639ZM274.308 343.221V343.958H275.044V343.221H274.308ZM295.301 411.725C295.18 411.968 295.058 412.211 294.933 412.462H295.669C295.548 412.219 295.426 411.976 295.301 411.725ZM206.909 519.637C207.03 520.002 207.152 520.367 207.277 520.742V519.637H206.909ZM201.384 526.635C201.627 526.878 201.87 527.121 202.121 527.372C202.242 527.129 202.364 526.886 202.489 526.635H201.384ZM209.119 526.635C209.24 526.878 209.362 527.121 209.487 527.372C209.73 527.25 209.973 527.129 210.223 527.004C209.859 526.882 209.494 526.76 209.119 526.635ZM198.438 532.528V532.896H201.753V532.528H198.438ZM174.13 543.577C174.373 543.82 174.616 544.063 174.867 544.314C174.988 544.071 175.11 543.828 175.235 543.577H174.13ZM184.074 553.889C184.317 554.133 184.56 554.376 184.811 554.626V553.889H184.074Z" fill="#D9381F"/>
<path d="M382.957 620.184C385.391 621.034 385.391 621.034 386.131 622.349C386.857 624.18 386.971 625.984 386.64 627.911C385.509 630.408 383.012 632.367 380.747 633.803C379.734 634.092 379.734 634.092 378.905 634.172C378.246 633.512 378.456 632.577 378.445 631.686C378.481 628.084 378.942 624.062 381.483 621.3H382.22V620.563C382.463 620.441 382.706 620.32 382.957 620.195V620.184Z" fill="#D9381F"/>
<path d="M313.716 629.023C316.047 628.985 317.071 629.202 319.093 630.334C319.394 630.502 319.694 630.669 320.007 630.842C320.237 630.971 320.467 631.1 320.706 631.233V632.338C320.25 632.298 319.793 632.259 319.322 632.218C318.718 632.173 318.114 632.129 317.506 632.085C317.205 632.058 316.906 632.031 316.596 632.003C314.803 631.88 313.683 631.876 312.25 633.075C311.676 633.646 311.123 634.239 310.593 634.847C310.306 635.171 310.018 635.495 309.724 635.83C309.094 636.57 308.505 637.318 307.923 638.091C307.094 638.968 307.094 638.968 306.081 639.126C305.253 638.965 305.253 638.965 304.884 638.596C304.633 636.585 305.042 635.259 306.074 633.513C307.4 631.849 309.252 630.696 311.156 629.757C312.015 629.742 312.876 629.741 313.734 629.757V629.02L313.716 629.023Z" fill="#D9381F"/>
<path d="M108.572 527.372C110.484 528.458 111.364 529.394 112.255 531.423C112.142 532.289 112.142 532.289 111.887 533.265C111.8 533.617 111.713 533.972 111.622 534.333C111.431 535.077 111.239 535.821 111.048 536.565C110.606 538.439 110.37 540.174 110.414 542.089H109.678C109.099 540.572 108.543 539.062 108.065 537.522C107.066 534.362 107.066 534.362 104.853 532.145C104.622 532.032 104.389 531.918 104.153 531.801C104.032 531.436 103.91 531.072 103.785 530.696C103.906 530.453 104.028 530.21 104.153 529.96C104.849 529.811 104.849 529.811 105.556 529.66C106.82 529.381 107.074 529.248 108.02 528.257C108.203 527.968 108.385 527.679 108.573 527.381L108.572 527.372Z" fill="#D9381F"/>
<path d="M346.495 608.766C346.616 610.954 346.738 613.149 346.863 615.396C346.255 615.517 345.648 615.639 345.022 615.764C345.508 615.885 345.994 616.007 346.495 616.132C345.261 616.27 344.801 616.247 343.803 615.466C343.18 614.659 343.18 614.659 343.18 613.554H340.602C340.481 613.19 340.359 612.825 340.234 612.449H338.392C338.149 611.598 337.906 610.748 337.656 609.871C339.95 607.577 343.733 607.381 346.495 608.766Z" fill="#D9381F"/>
<path d="M384.798 307.128C385.623 307.728 385.623 307.728 386.386 308.439C386.642 308.675 386.898 308.91 387.163 309.153C387.354 309.335 387.546 309.517 387.741 309.706C387.519 310.991 387.408 311.149 386.312 312.03C385.741 312.337 385.741 312.337 385.163 312.652C384.798 312.531 384.434 312.409 384.058 312.284C383.794 311.429 383.55 310.571 383.321 309.706L382.585 308.969C381.856 309.212 381.126 309.455 380.375 309.706H381.112C381.204 312.512 381.204 312.512 380.375 313.757C379.524 313.958 379.524 313.958 378.533 314.033C378.207 314.062 377.882 314.09 377.543 314.119C376.692 314.125 376.692 314.125 375.955 313.757C375.725 312.63 375.725 312.63 375.587 311.547C375.823 311.475 376.058 311.403 376.302 311.328C378.57 310.544 379.856 309.675 381.31 307.756C382.356 306.544 383.384 306.695 384.798 307.126V307.128Z" fill="#D9381F"/>
<path d="M387.745 319.282C387.995 319.456 388.245 319.631 388.503 319.812C388.408 320.497 388.408 320.497 388.135 321.285C385.804 322.994 382.537 323.359 379.738 322.994C379.466 322.917 379.196 322.839 378.916 322.759C378.795 322.516 378.673 322.273 378.548 322.023H379.285C379.406 321.658 379.528 321.294 379.653 320.918H380.39V320.181C382.879 318.472 384.92 317.784 387.719 319.283L387.745 319.282Z" fill="#D9381F"/>
<path d="M322.187 616.132C324.172 616.353 324.172 616.353 325.063 616.939C325.737 617.966 325.892 618.578 325.87 619.815C325.292 620.869 324.61 621.657 323.66 622.393C322.106 622.679 321.019 622.321 319.609 621.657C319.449 620.055 319.466 619.064 320.485 617.827C321.45 616.884 321.45 616.884 322.187 616.884V616.147V616.132Z" fill="#D9381F"/>
<path d="M382.957 306.76C384.492 306.951 385.259 307.389 386.386 308.439C386.642 308.675 386.897 308.91 387.163 309.153C387.354 309.335 387.546 309.517 387.741 309.706C387.519 310.991 387.408 311.15 386.312 312.03C385.741 312.337 385.741 312.337 385.163 312.652C384.798 312.531 384.434 312.409 384.058 312.284C383.795 311.43 383.553 310.568 383.321 309.706C382.765 308.664 382.765 308.664 382.216 307.864C382.459 307.5 382.703 307.135 382.953 306.76H382.957Z" fill="#D9381F"/>
<path d="M398.425 315.599V316.704C396.624 318.317 394.893 318.453 392.532 318.545C392.256 317.716 392.256 317.716 392.164 316.704C393.958 314.192 395.958 314.317 398.425 315.599Z" fill="#D9381F"/>
<path d="M415.736 325.543C415.598 326.5 415.48 326.916 414.737 327.561C414.481 327.715 414.225 327.869 413.96 328.029C413.581 328.265 413.581 328.265 413.194 328.508C411.975 329.06 411.08 328.905 409.839 328.49C409.586 327.732 409.586 327.732 409.471 327.017C411.854 325.338 412.855 325.047 415.732 325.544L415.736 325.543Z" fill="#D9381F"/>
<path d="M406.896 293.132C407.74 293.799 407.74 293.799 408.045 294.613C408.067 294.83 408.088 295.047 408.11 295.272C407.58 295.282 407.053 295.289 406.523 295.295C406.081 295.302 406.081 295.302 405.628 295.308C404.795 295.272 404.795 295.272 403.691 294.903V293.798C402.84 293.92 401.989 294.041 401.112 294.166C401.192 293.01 401.478 292.697 402.357 291.912C404.269 291.452 405.237 292.199 406.887 293.135L406.896 293.132Z" fill="#D9381F"/>
<path d="M216.116 145.812C216.86 146.169 217.597 146.534 218.326 146.917V148.39H217.59V150.232C216.853 149.863 216.853 149.863 216.16 149.311C215.372 148.755 214.827 148.604 213.906 148.39L213.17 147.653V146.18C214.315 145.484 214.857 145.329 216.116 145.812Z" fill="#D9381F"/>
<path d="M348.705 620.184C348.751 622.67 348.751 622.67 348.336 623.498C345.85 623.222 345.85 623.222 345.022 622.393C345.068 621.473 345.068 621.473 345.39 620.552C346.532 619.653 347.353 619.808 348.705 620.184Z" fill="#D9381F"/>
<path d="M379.274 287.976C379.152 288.584 379.031 289.191 378.905 289.818C377.388 290.293 376.08 290.65 374.486 290.554C374.555 289.678 374.555 289.678 374.854 288.713C376.272 287.836 377.642 287.913 379.274 287.976Z" fill="#D9381F"/>
<path d="M381.484 621.289C381.727 621.41 381.97 621.532 382.22 621.657C381.981 622.103 381.981 622.103 381.738 622.556C380.11 625.992 378.478 630.4 379.642 634.194C379.277 634.072 378.913 633.951 378.537 633.826C378.333 629.222 378.717 625.134 381.484 621.303V621.289Z" fill="#D9381F"/>
<path d="M300.826 443.399C300.863 443.635 300.901 443.871 300.94 444.114C301.024 444.364 301.108 444.615 301.194 444.872C301.558 444.994 301.923 445.115 302.299 445.241V447.082C301.448 447.325 300.597 447.568 299.721 447.819H300.457C300.336 448.183 300.214 448.548 300.089 448.924C299.603 448.438 299.117 447.951 298.616 447.45C298.867 447.042 298.867 447.042 299.124 446.622C299.606 445.804 300.045 444.99 300.457 444.136C300.579 443.893 300.7 443.65 300.826 443.399Z" fill="#D9381F"/>
<path d="M388.481 325.543V327.384C386.839 327.567 386.839 327.567 385.166 327.753C385.045 327.145 384.923 326.537 384.798 325.911C386.117 325.049 386.978 325.2 388.481 325.543Z" fill="#D9381F"/>
<path d="M262.154 318.177C261.948 319.366 261.649 320.011 260.681 320.755H259.576V318.177C260.729 317.794 261.045 317.833 262.154 318.177Z" fill="#D9381F"/>
<path d="M383.693 319.282C383.218 319.591 382.743 319.897 382.264 320.202C382 320.373 381.734 320.544 381.461 320.722C380.743 321.123 380.743 321.123 380.007 321.123V322.965C379.52 322.722 379.034 322.479 378.533 322.228C378.777 322.107 379.02 321.985 379.27 321.86C379.392 321.495 379.513 321.131 379.638 320.755H380.375V320.018C381.631 319.075 382.202 318.81 383.69 319.282H383.693Z" fill="#D9381F"/>
<path d="M381.852 307.128H382.588V308.601C382.376 308.692 382.165 308.783 381.944 308.877C381.005 309.4 380.371 310.03 379.642 310.811C379.399 310.689 379.156 310.568 378.905 310.442C379.377 309.886 379.856 309.337 380.334 308.785C380.732 308.325 380.732 308.325 381.137 307.853C381.374 307.614 381.609 307.374 381.855 307.128H381.852Z" fill="#D9381F"/>
<path d="M406.16 297.552H407.633C407.754 298.038 407.876 298.524 408.001 299.025C407.515 299.147 407.029 299.268 406.528 299.393C406.893 299.515 407.257 299.636 407.633 299.762C407.025 299.64 406.417 299.519 405.791 299.393C405.791 297.92 405.791 297.92 406.16 297.552Z" fill="#D9381F"/>
<path d="M234.163 141.761V142.497H233.426V143.234H230.848V142.129C231.979 141.793 232.984 141.727 234.163 141.761Z" fill="#D9381F"/>
<path d="M234.163 139.551H234.9C234.778 140.28 234.657 141.009 234.531 141.761H232.69C233.158 141.009 233.651 140.273 234.163 139.551Z" fill="#D9381F"/>
<path d="M188.125 558.309C189.039 558.491 189.039 558.491 189.967 558.677C190.088 559.042 190.21 559.407 190.335 559.782C189.23 559.782 189.23 559.782 188.125 559.046V558.309Z" fill="#D9381F"/>
<path d="M366.383 335.487H367.12C367.241 335.852 367.363 336.216 367.488 336.592C366.88 336.713 366.273 336.835 365.647 336.96C365.89 336.474 366.133 335.988 366.383 335.487Z" fill="#D9381F"/>
<path d="M419.787 303.813C420.273 303.935 420.759 304.056 421.26 304.181V305.286H420.155C420.034 304.8 419.912 304.314 419.787 303.813Z" fill="#D9381F"/>
<path d="M365.278 335.487C365.521 335.608 365.764 335.73 366.015 335.855C365.893 336.341 365.772 336.828 365.647 337.328H364.542V335.855C364.785 335.734 365.028 335.612 365.278 335.487Z" fill="#D9381F"/>
<path d="M201.384 590.351C201.506 590.837 201.627 591.324 201.753 591.824C201.388 591.946 201.023 592.067 200.648 592.193C200.97 590.764 200.97 590.764 201.384 590.351Z" fill="#D9381F"/>
<path d="M125.146 528.108C126.056 528.473 126.056 528.473 126.987 528.845C126.501 528.967 126.015 529.088 125.514 529.213C125.393 528.849 125.271 528.484 125.146 528.108Z" fill="#D9381F"/>
<path d="M296.406 462.182H298.247V462.919C297.64 462.798 297.032 462.676 296.406 462.551V462.182Z" fill="#D9381F"/>
<path d="M219.063 529.213C219.184 529.699 219.306 530.186 219.431 530.686H218.326C218.569 530.2 218.812 529.714 219.063 529.213Z" fill="#D9381F"/>
<path d="M297.511 416.145C298.247 416.881 298.247 416.881 298.247 417.986H297.511V416.145Z" fill="#D9381F"/>
<path d="M248.895 125.924V126.66H246.685C248.066 125.924 248.066 125.924 248.895 125.924Z" fill="#D9381F"/>
<path d="M405.423 295.71H407.633V296.079H405.423V295.71Z" fill="#D9381F"/>
<path d="M212.065 528.477C212.43 528.598 212.794 528.72 213.17 528.845C212.805 528.967 212.441 529.088 212.065 529.213V528.477Z" fill="#D9381F"/>
<path d="M160.135 507.852H161.976V508.22H160.135V507.852Z" fill="#D9381F"/>
<path d="M215.38 311.547H217.221V311.916H215.38V311.547Z" fill="#D9381F"/>
<path d="M97.1551 151.336H98.9966V151.705H97.1551V151.336Z" fill="#D9381F"/>
<path d="M213.906 141.392H215.748V141.761H213.906V141.392Z" fill="#D9381F"/>
<path d="M113.729 141.392H115.57V141.761H113.729V141.392Z" fill="#D9381F"/>
<path d="M204.699 533.265H205.436V534.001H204.699V533.265Z" fill="#D9381F"/>
<path d="M301.93 447.45C302.295 447.633 302.295 447.633 302.667 447.819C302.424 448.062 302.181 448.305 301.93 448.555V447.45Z" fill="#D9381F"/>
<path d="M234.163 142.865H234.9V143.602H234.163V142.865Z" fill="#D9381F"/>
<path d="M236.373 137.709H237.109V138.446H236.373V137.709Z" fill="#D9381F"/>
<path d="M305.613 638.967C305.857 639.21 306.1 639.453 306.35 639.704H305.613V638.967Z" fill="#D9381F"/>
<path d="M346.127 623.13C346.37 623.373 346.613 623.616 346.863 623.867H346.127V623.13Z" fill="#D9381F"/>
<path d="M202.857 589.246C202.979 589.489 203.101 589.732 203.226 589.983C202.983 589.861 202.74 589.74 202.489 589.615C202.611 589.493 202.732 589.372 202.857 589.246Z" fill="#D9381F"/>
<path d="M185.916 557.941C186.28 558.123 186.28 558.123 186.652 558.309C186.288 558.491 186.288 558.491 185.916 558.677V557.941Z" fill="#D9381F"/>
<path d="M141.351 539.157C142.456 539.526 142.456 539.526 142.456 539.526L141.351 539.157Z" fill="#D9381F"/>
<path d="M290.145 485.017C291.25 485.385 291.25 485.385 291.25 485.385L290.145 485.017Z" fill="#D9381F"/>
<path d="M234.163 362.741L234.9 363.478H234.163V362.741Z" fill="#D9381F"/>
<path d="M268.783 325.174C269.888 325.543 269.888 325.543 269.888 325.543L268.783 325.174Z" fill="#D9381F"/>
<path d="M136.563 169.751C137.668 170.12 137.668 170.12 137.668 170.12L136.563 169.751Z" fill="#D9381F"/>
<path d="M215.748 149.495C216.853 149.863 216.853 149.863 216.853 149.863L215.748 149.495Z" fill="#D9381F"/>
<path d="M86.8426 147.285C87.9475 147.653 87.9475 147.653 87.9475 147.653L86.8426 147.285Z" fill="#D9381F"/>
<path d="M229.007 143.97C230.112 144.339 230.112 144.339 230.112 144.339L229.007 143.97Z" fill="#D9381F"/>
<path d="M77.2668 142.497L78.0034 143.234H77.2668V142.497Z" fill="#D9381F"/>
<path d="M234.531 142.129C235.636 142.497 235.636 142.497 235.636 142.497L234.531 142.129Z" fill="#D9381F"/>
<path d="M67.3227 130.343C68.4276 130.711 68.4276 130.711 68.4276 130.711L67.3227 130.343Z" fill="#D9381F"/>
<rect x="116" y="112.879" width="16" height="10" fill="#D9381F"/>
<path d="M151 101.879L155.939 117.081H171.923L158.992 126.476L163.931 141.678L151 132.283L138.069 141.678L143.008 126.476L130.077 117.081H146.061L151 101.879Z" fill="#FFF500"/>
</svg>
