<svg xmlns="http://www.w3.org/2000/svg" xmlns:xlink="http://www.w3.org/1999/xlink" width="470.9344482421875" height="278.25830078125" viewBox="0 0 470.9344482421875 278.25830078125" fill="none"><g opacity="1"  transform="translate(0.00146484375 0)  rotate(0)"><path id="路径 75" fill-rule="evenodd" style="fill:#FFFFFF" opacity="1" d="M92.743 200.306L118.163 200.306L118.163 156.846L152.953 156.846L152.953 200.306L178.093 200.306L178.093 94.6465L152.953 94.6465L152.953 134.836L118.163 134.836L118.163 94.6465L92.743 94.6465L92.743 200.306Z"></path><path id="路径 76" fill-rule="evenodd" style="fill:#FFFFFF" opacity="1" d="M189.773 200.346L215.193 200.346L215.193 172.646L226.693 157.026L251.553 200.346L279.333 200.346L241.413 137.006L273.413 94.6865L245.573 94.6865L215.573 136.436L215.143 136.436L215.143 94.6465L189.723 94.6465L189.773 200.346Z"></path><path id="路径 77" fill-rule="evenodd" style="fill:#FFFFFF" opacity="1" d="M438.123,176.016h-31.24l-6.11,24.29h-25.84l32.8,-105.6595h30.39l32.81,105.6595h-26.7zM431.023,147.476c-2.84,-10.51 -5.54,-23.15 -8.38,-33.94h-0.57c-2.55,11.07 -5.39,23.43 -8.09,33.94l-2.27,8.94h21.58z"></path><path id="路径 78" fill-rule="evenodd" style="fill:#FFFFFF" opacity="1" d="M165.4,31.98zM193.1,15.49c0.77,-2.02 2.58,-3.46 4.71,-3.76l-0.05,0.09c2.53,-0.42 5.05,0.81 6.26,3.07c1.22,2.25 0.87,5.03 -0.87,6.92c-1.74,1.88 -4.48,2.45 -6.83,1.42l-6.22,8.48c1.37,1.43 2.02,3.39 1.79,5.35c-0.24,1.96 -1.33,3.72 -3,4.79l3.36,8.74c3.4,-0.55 6.66,1.56 7.55,4.89c0.9,3.32 -0.86,6.78 -4.07,8.01c-3.22,1.24 -6.84,-0.15 -8.4,-3.21c-1.57,-3.07 -0.56,-6.82 2.32,-8.69l-3.36,-8.75c-3.08,0.46 -6.07,-1.29 -7.16,-4.21c-0.16,-0.44 -0.28,-0.89 -0.35,-1.34l-13.64,-1.81c-0.87,3.21 -3.56,5.6 -6.85,6.09c-2.07,0.31 -4.18,-0.18 -5.9,-1.37l-17.82,12.33c0.45,1.36 0.66,2.78 0.62,4.22c-0.12,5.47 -3.8,10.23 -9.08,11.72c-5.27,1.48 -10.9,-0.64 -13.86,-5.25c-2.97,-4.6 -2.59,-10.61 0.94,-14.79l-13.83,-20.37c-4.96,1.82 -10.53,0.76 -14.48,-2.75l-16.65,11.43c1.61,3.75 1.56,8.02 -0.14,11.73c-1.7,3.72 -4.89,6.55 -8.78,7.8l2.46,20.68h0.35c6.97,1.15 11.96,7.34 11.62,14.4c-0.35,7.05 -5.92,12.72 -12.96,13.2c-7.04,0.47 -13.33,-4.41 -14.61,-11.35c-1.29,-6.94 2.83,-13.74 9.57,-15.82l-2.45,-20.55c-0.28,-0.03 -0.56,-0.1 -0.85,-0.1c-3.8,-0.64 -7.2,-2.76 -9.44,-5.9c-2.24,-3.15 -3.14,-7.05 -2.5,-10.85c0.08,-0.47 0.19,-0.93 0.3,-1.38l-15.34,-6.92c-4,5.87 -11.78,7.79 -18.06,4.46c-6.28,-3.34 -9.04,-10.87 -6.41,-17.47c2.64,-6.61 9.82,-10.17 16.67,-8.28c6.85,1.9 11.18,8.65 10.04,15.67l15.87,7.15c2.54,-3.13 6.27,-5.06 10.29,-5.34c4.02,-0.28 7.97,1.13 10.91,3.88l16.5,-11.33c-1.98,-4.37 -1.66,-9.43 0.84,-13.51c2.5,-4.09 6.87,-6.67 11.65,-6.89c1.03,-0.05 2.05,0.01 3.06,0.19c5.51,0.92 9.99,4.94 11.51,10.32c1.51,5.37 -0.21,11.14 -4.42,14.81l13.45,19.8c4.95,-2.4 10.88,-1.26 14.59,2.79l17.25,-12c-0.17,-0.49 -0.29,-0.99 -0.38,-1.49c-0.44,-2.97 0.74,-5.94 3.08,-7.8c2.35,-1.86 5.51,-2.33 8.29,-1.23c2.79,1.1 4.77,3.6 5.21,6.57l13.81,1.83c0.63,-1.64 1.89,-2.97 3.5,-3.67c1.6,-0.71 3.43,-0.75 5.06,-0.1l6.32,-8.6c-1.38,-1.66 -1.76,-3.94 -0.99,-5.95z"></path><path id="路径 79" fill-rule="evenodd" style="fill:#FFFFFF" opacity="1" d="M121.553,245.256c-0.62,-0.23 -1.24,-0.48 -1.83,-0.74c-0.59,-0.26 -1.19,-0.54 -1.77,-0.85v12.94h-3.25v-1h-13.59v1h-3.2499v-12.84l-1.7701,0.83c-0.6,0.27 -1.21,0.52 -1.8399,0.76l-1,-2.92c1.93,-0.66 3.8099,-1.45 5.64,-2.36c1.7099,-0.85 3.3299,-1.86 4.8599,-3h-8.9999v-2.79h11.5399v-2.5c-1.8,0.11 -3.52,0.19 -5.15,0.24l-4.2799,0.15l-0.26,-3c1.54,0 3.26,-0.07 5.1699,-0.15c1.91,-0.08 3.85,-0.17 5.84,-0.29c1.99,-0.12 3.91,-0.25 5.78,-0.39c1.87,-0.14 3.55,-0.29 5,-0.44l0.46,2.93c-1.26,0.13 -2.69,0.25 -4.29,0.37c-1.6,0.12 -3.29,0.23 -5,0.34v2.7h11.6v2.79h-8.93c3.17,2.31 6.69,4.09 10.43,5.27zM112.683,240.626c-1.09,-0.75 -2.14,-1.57 -3.12,-2.45v3.9h-3.25v-3.74c-0.95,0.84 -1.95,1.62 -3,2.34c-1.17,0.79 -2.38,1.52 -3.6299,2.18h16.6699c-1.26,-0.68 -2.49,-1.42 -3.67,-2.23zM101.113,245.516v2.35h13.59v-2.35zM114.703,250.556h-13.59v2.34h13.59z"></path><path id="路径 80" fill-rule="evenodd" style="fill:#FFFFFF" opacity="1" d="M156.203,242.267c-0.35,-0.34 -0.74,-0.72 -1.19,-1.13c-0.45,-0.41 -0.9,-0.83 -1.36,-1.24c-0.46,-0.41 -0.93,-0.8 -1.38,-1.17c-0.45,-0.37 -0.87,-0.68 -1.24,-0.94l1.76,-2.44c0.39,0.26 0.81,0.56 1.28,0.91c0.47,0.35 0.94,0.71 1.41,1.09c0.47,0.38 0.94,0.76 1.37,1.14c0.43,0.38 0.81,0.73 1.14,1.05zM163.683,250.267v1.3c-0.05,0.51 0.08,1.02 0.35,1.46c0.39,0.34 0.89,0.51 1.4,0.49c2.41,0.17 4.84,0.17 7.25,0c0.36,-0.01 0.72,-0.05 1.07,-0.12c0.25,-0.04 0.48,-0.13 0.69,-0.27c0.18,-0.15 0.32,-0.35 0.4,-0.57c0.12,-0.32 0.2,-0.66 0.25,-1c0,-0.3 0.08,-0.6 0.11,-0.9c0.03,-0.3 0.07,-0.61 0.11,-1l2.86,1c0,0.35 -0.07,0.64 -0.09,0.89c-0.02,0.25 -0.07,0.58 -0.13,1c-0.08,0.62 -0.24,1.23 -0.46,1.81c-0.32,0.93 -1.12,1.62 -2.09,1.8c-0.66,0.15 -1.33,0.24 -2,0.26c-3,0.18 -6,0.18 -9,0c-0.55,-0.01 -1.1,-0.09 -1.64,-0.23c-0.44,-0.11 -0.85,-0.34 -1.18,-0.65c-0.35,-0.34 -0.6,-0.76 -0.74,-1.22c-0.18,-0.65 -0.26,-1.33 -0.24,-2v-6.18c-0.41,0.37 -0.83,0.72 -1.25,1.06c-0.42,0.34 -0.85,0.65 -1.28,1l-0.72,-1.27c-0.19,0.76 -0.41,1.55 -0.63,2.37c-0.22,0.82 -0.47,1.66 -0.72,2.51c-0.25,0.85 -0.5,1.68 -0.75,2.5c-0.25,0.82 -0.5,1.61 -0.76,2.37l-2.93,-0.84c0.24,-0.7 0.5,-1.49 0.77,-2.38c0.27,-0.89 0.54,-1.8 0.81,-2.73c0.27,-0.93 0.52,-1.84 0.75,-2.74c0.23,-0.9 0.43,-1.72 0.6,-2.46l2.6,0.91l-0.65,-1.2c1.25,-0.72 2.42,-1.58 3.46,-2.58c1.06,-0.98 2,-2.08 2.81,-3.27h-4.64v-2.83h4.68v-3.25h-3.32v-2.77h3.32v-3.25l3.08,0.13v3.12h5.11v-3.25l3.09,0.13v3.12h4.61v2.73h-4.61v3.25h5.55v2.83h-5.81c0.8,1.14 1.77,2.15 2.87,3c1.22,0.94 2.52,1.76 3.89,2.47l-1.37,2.76c-0.8,-0.45 -1.55,-0.91 -2.24,-1.36c-0.67,-0.44 -1.31,-0.92 -1.92,-1.43v5.43zM157.553,234.697c-0.3,-0.32 -0.68,-0.7 -1.14,-1.12c-0.46,-0.42 -0.92,-0.85 -1.41,-1.27c-0.49,-0.42 -1,-0.82 -1.46,-1.2c-0.46,-0.38 -0.91,-0.69 -1.26,-0.93l1.73,-2.31c0.39,0.26 0.81,0.57 1.28,0.93l1.42,1.1l1.38,1.14l1.15,1zM163.733,245.167v2.27h8.45v-2.27zM164.183,242.437h8.55c-0.39,-0.47 -0.75,-0.97 -1.09,-1.48c-0.34,-0.51 -0.66,-1 -1,-1.61h-4.46c-0.57,1.09 -1.24,2.12 -2,3.09zM171.033,236.517v-3.25h-5.11v3.25z"></path><path id="路径 81" fill-rule="evenodd" style="fill:#FFFFFF" opacity="1" d="M215.653,231.506v21.13h22.79v2.93h-25.81v-26.92h25.25v2.86zM226.413,242.236v8.42h-8.86v-8.42zM235.063,233.106v7.47h-15.67v-7.47zM223.843,248.106v-3.38h-3.48v3.38zM231.903,238.106v-2.44h-9.35l-0.01,2.44zM236.883,242.296v8.42h-8.81v-8.48zM234.213,248.146v-3.38h-3.58v3.38z"></path><path id="路径 82" fill-rule="evenodd" style="fill:#FFFFFF" opacity="1" d="M277.343,250.107l-0.93,0.29l-1.72,0.55l-2.1,0.7l-2.11,0.72c-0.67,0.22 -1.26,0.42 -1.75,0.6l-1,0.32l-0.81,-3.21l0.52,-0.17l0.94,-0.29l1.22,-0.39l1.41,-0.46v-10.17h-3.15v-3h3.15v-8l2.83,0.13v7.9h2.86v3h-2.86v9.23l2,-0.68l1.09,-0.39zM296.343,250.817c0,0.37 0,0.72 0,1c0,0.28 0,0.65 0,1c-0.05,0.52 -0.15,1.03 -0.31,1.53c-0.12,0.36 -0.35,0.68 -0.65,0.92c-0.34,0.25 -0.73,0.43 -1.14,0.51c-0.56,0.11 -1.13,0.18 -1.7,0.19c-1.5,0.07 -3,0.07 -4.49,0c-0.58,-0.01 -1.15,-0.09 -1.71,-0.23c-0.42,-0.1 -0.8,-0.3 -1.13,-0.58c-0.3,-0.27 -0.53,-0.61 -0.65,-1c-0.16,-0.54 -0.24,-1.1 -0.22,-1.66v-3.48c-1,1.56 -2.21,2.98 -3.59,4.23c-1.62,1.45 -3.37,2.76 -5.22,3.9l-1.72,-2.93c4.96,-2.67 8.14,-5.92 9.53,-9.75h-6.12v-14.39h5.69c0.21,-0.52 0.39,-1.05 0.54,-1.59l0.41,-1.43l3.34,0.33c-0.08,0.28 -0.21,0.67 -0.37,1.18c-0.16,0.51 -0.33,1 -0.5,1.51h7.47v14.36h-2.92l0.58,0.23c-0.13,0.35 -0.27,0.7 -0.42,1.06c-0.15,0.36 -0.3,0.72 -0.45,1.08l1.62,-0.91c0.24,0.5 0.52,1.11 0.85,1.84c0.33,0.73 0.62,1.4 0.91,2zM280.033,235.897h4.12v-3.15h-4.12zM284.153,240.447c0.04,-0.42 0,-0.83 0,-1.26v-0.75h-4.12v3.19l4,0.03c0,-0.39 0.08,-0.79 0.12,-1.21zM286.013,245.387l1.14,0.07v2.89c0.13,-0.21 0.28,-0.48 0.44,-0.79c0.16,-0.31 0.33,-0.65 0.49,-1l0.49,-1.07c0.16,-0.37 0.3,-0.71 0.43,-1l-2.73,-0.04c-0.06,0.28 -0.15,0.6 -0.26,0.94zM290.923,238.437h-4v0.72c0,0.43 0,0.85 0,1.26c0,0.42 0,0.82 -0.1,1.21l4.1,0.03zM286.923,232.747v3.15h4v-3.15zM292.823,253.077c0.2,-0.03 0.38,-0.12 0.54,-0.24c0.13,-0.12 0.23,-0.27 0.28,-0.44c0.06,-0.24 0.1,-0.48 0.11,-0.73c-0.01,-0.1 -0.01,-0.21 0,-0.31c0,-0.1 0,-0.2 0,-0.31l-1.3,0.68l-0.29,-0.71l-1.1,0.08l-1.3,0.1c-0.46,0 -0.92,0.07 -1.37,0.13l-1.27,0.14v0.26c-0.01,0.25 0.02,0.49 0.07,0.73c0.03,0.17 0.13,0.33 0.26,0.44c0.15,0.12 0.33,0.19 0.52,0.21c0.21,0 0.49,0.06 0.81,0.09c1.05,0.06 2.11,0.06 3.16,0h0.06c0.28,-0.02 0.55,-0.06 0.82,-0.12zM289.953,248.197c-0.13,0.28 -0.25,0.61 -0.36,0.85l1.63,-0.13l-0.82,-1.72c-0.17,0.37 -0.32,0.72 -0.45,1z"></path><path id="路径 83" fill-rule="evenodd" style="fill:#FFFFFF" opacity="1" d="M345.173,253.286c1.52,0 3,0.06 4.52,0c1.52,-0.06 3,-0.08 4.52,-0.17l-0.62,2.83c-1.47,0.09 -2.93,0.14 -4.38,0.16c-1.45,0.02 -2.92,0 -4.39,0c-0.71,-0.01 -1.42,-0.07 -2.12,-0.18c-0.59,-0.08 -1.16,-0.26 -1.7,-0.52c-0.52,-0.26 -1,-0.59 -1.42,-1c-0.49,-0.5 -0.91,-1.06 -1.26,-1.67c-0.63,1.11 -1.37,2.16 -2.21,3.12l-2.08,-1.82l0.78,-1l-2.2,0.55c-0.88,0.21 -1.77,0.44 -2.68,0.68l-2.62,0.68l-2,0.52l-0.52,-2.79l1.93,-0.47l2.68,-0.67v-8.42h-3.67v-2.68h3.67v-2.3h-1.85v-0.7l-0.78,1l-1.78,-2.08c0.53,-0.64 1.02,-1.31 1.48,-2c0.48,-0.74 0.94,-1.52 1.38,-2.33c0.44,-0.81 0.83,-1.63 1.2,-2.44c0.34,-0.75 0.65,-1.51 0.91,-2.29l2.83,0.46l-0.39,1.07c0.65,0.65 1.34,1.36 2.06,2.14c0.72,0.78 1.36,1.46 1.9,2l-1.78,2c-0.46,-0.52 -1,-1.1 -1.58,-1.75l-1.71,-1.86c-0.37,0.7 -0.73,1.39 -1.1,2.07c-0.36,0.69 -0.77,1.36 -1.21,2h5.69v2.74h-2.5v2.27h3.38v2.7h-3.41v7.74l1.71,-0.47c0.51,-0.14 0.92,-0.27 1.25,-0.38l0.16,1.37l0.13,0.88l0.8,-1.14c0.27,-0.39 0.53,-0.79 0.79,-1.21v-9.91h-1.88v-2.76h4.35v12.68c0.29,0.55 0.63,1.07 1,1.57c0.31,0.4 0.68,0.74 1.11,1c0.47,0.28 0.98,0.47 1.51,0.57c0.69,0.13 1.4,0.2 2.1,0.21zM327.553,244.156c0.15,0.41 0.31,0.87 0.47,1.36c0.16,0.49 0.32,1 0.49,1.52c0.17,0.52 0.3,1 0.43,1.49c0.13,0.49 0.25,0.93 0.36,1.32l-2,0.81l-0.36,-1.36c-0.13,-0.5 -0.27,-1 -0.43,-1.53c-0.16,-0.53 -0.33,-1 -0.49,-1.53c-0.16,-0.53 -0.32,-0.95 -0.47,-1.37zM332.263,249.156c0.33,-0.8 0.63,-1.66 0.93,-2.58c0.3,-0.92 0.53,-1.76 0.73,-2.52l1.95,0.65c-0.18,0.8 -0.41,1.69 -0.72,2.65c-0.31,0.96 -0.6,1.83 -0.91,2.58zM337.953,235.736c-0.11,-0.43 -0.25,-0.95 -0.42,-1.54c-0.17,-0.59 -0.37,-1.21 -0.59,-1.82c-0.22,-0.61 -0.43,-1.22 -0.65,-1.81l-0.58,-1.53l2.4,-0.81c0.17,0.41 0.37,0.9 0.59,1.46c0.22,0.56 0.42,1.15 0.63,1.76c0.21,0.61 0.4,1.2 0.59,1.77l0.47,1.48zM345.523,232.806h-4.81v-2.53h4.84v-2.84l2.41,0.13v2.73h5v2.53h-5v2h4.29v10.56h-4.29v2h5.46v2.54h-5.46v3h-2.41v-3h-5.17v-2.59h5.17v-2h-4.39v-10.54h4.39zM343.523,238.926h2v-1.83h-2zM345.523,241.246h-2v1.85h2zM347.933,238.926h2v-1.83h-2zM349.933,241.246h-2v1.85h2z"></path><path id="路径 84" fill-rule="evenodd" style="fill:#FFFFFF" opacity="1" d="M407.213 242.566C407.313 242.157 407.313 241.757 407.313 241.377C407.313 240.987 407.313 240.657 407.313 240.377L404.553 240.247C404.553 240.477 404.563 240.816 404.553 241.247C404.543 241.676 404.473 242.107 404.473 242.547L402.393 242.547L402.393 245.437L404.283 245.437C404.193 246.387 404.083 247.247 403.943 248.007C403.813 248.727 403.613 249.437 403.353 250.117C403.113 250.757 402.803 251.376 402.443 251.967C402.063 252.587 401.623 253.176 401.133 253.727C401.213 253.497 401.273 253.257 401.303 253.007C401.383 252.747 401.383 252.307 401.383 252.137C401.383 251.967 401.353 251.626 401.433 251.137C401.513 250.646 401.483 250.047 401.513 249.437C401.543 248.827 401.573 248.126 401.603 247.437C401.633 246.747 401.603 246.077 401.693 245.437C401.783 244.797 401.783 244.227 401.783 243.727C401.783 243.227 401.783 242.867 401.783 242.657L397.363 242.657L397.523 240.447L395.803 240.346C396.643 239.917 397.463 239.426 398.233 238.887C398.893 238.417 399.493 237.877 400.023 237.277C400.513 236.706 400.933 236.077 401.263 235.407C401.603 234.687 401.863 233.937 402.043 233.157L407.563 233.157L407.303 235.507C407.273 235.777 407.213 236.036 407.133 236.297C407.063 236.487 406.933 236.646 406.773 236.767C406.583 236.887 406.363 236.967 406.133 236.997C405.803 237.047 405.463 237.077 405.133 237.096L402.243 237.286L403.443 240.286L406.333 240.096C406.953 240.066 407.573 239.977 408.183 239.846C408.643 239.747 409.063 239.547 409.423 239.247C409.763 238.947 410.013 238.557 410.153 238.127C410.343 237.547 410.453 236.937 410.493 236.327C410.513 236.066 410.553 235.667 410.593 235.137C410.633 234.607 410.683 234.027 410.723 233.426C410.763 232.827 410.783 232.247 410.833 231.676C410.883 231.107 410.883 230.667 410.883 230.337L402.433 230.337C402.473 229.846 402.533 229.327 402.533 228.777C402.533 228.237 402.533 227.837 402.533 227.577L399.533 227.417C399.533 227.797 399.563 228.257 399.533 228.797C399.503 229.337 399.423 229.846 399.423 230.337L393.833 230.337L393.833 233.197L398.833 233.197C398.643 233.837 398.353 234.437 397.973 234.977C397.603 235.507 397.153 235.967 396.643 236.357C396.063 236.797 395.433 237.187 394.773 237.497C393.973 237.877 393.143 238.206 392.303 238.497L393.993 241.227L394.383 241.047C394.503 240.997 394.623 240.937 394.743 240.877L394.743 241.737C394.743 242.066 394.743 242.407 394.743 242.737L391.743 242.737L391.743 245.626L394.473 245.626C394.363 246.566 394.203 247.487 393.983 248.407C393.803 249.187 393.533 249.947 393.193 250.676C392.843 251.387 392.423 252.057 391.933 252.676C391.373 253.417 390.763 254.117 390.113 254.777L390.113 238.167L392.973 238.167L392.973 235.077L390.113 235.077L390.113 227.566L387.113 227.437L387.113 235.157L384.023 235.157L384.023 238.247L387.113 238.247L387.113 256.346L390.113 256.346L390.113 255.146L392.293 256.807C393.043 255.967 393.743 255.066 394.373 254.126C394.913 253.307 395.383 252.437 395.773 251.536C396.143 250.657 396.433 249.747 396.633 248.807C396.853 247.767 397.013 246.717 397.103 245.657L398.863 245.657C398.863 245.827 398.843 246.187 398.813 246.727C398.783 247.267 398.743 247.857 398.713 248.457C398.683 249.057 398.643 249.626 398.613 250.187C398.583 250.747 398.533 251.126 398.533 251.346C398.493 251.997 398.363 252.396 398.143 252.566C397.763 252.767 397.343 252.876 396.913 252.876L395.803 252.937L396.583 255.767L398.083 255.667C398.753 255.676 399.413 255.536 400.033 255.277L402.303 256.906C403.023 256.107 403.693 255.257 404.303 254.367C404.823 253.577 405.273 252.747 405.633 251.876C406.003 250.987 406.293 250.057 406.483 249.107C406.703 247.967 406.863 246.816 406.953 245.657L409.133 245.657C409.133 245.747 409.153 246.096 409.133 246.657C409.113 247.217 409.083 247.837 409.053 248.497C409.023 249.157 408.983 249.797 408.943 250.327C408.903 250.857 408.843 251.197 408.843 251.327C408.813 251.596 408.763 251.867 408.703 252.126C408.663 252.307 408.573 252.467 408.443 252.596C408.313 252.707 408.153 252.797 407.983 252.837C407.733 252.907 407.483 252.947 407.223 252.957L405.823 253.017L406.703 255.876L408.453 255.786C408.923 255.767 409.393 255.707 409.853 255.607C410.233 255.536 410.573 255.357 410.853 255.087C411.113 254.807 411.303 254.457 411.403 254.087C411.543 253.536 411.623 252.977 411.643 252.417C411.673 251.767 411.693 251.007 411.743 250.167C411.793 249.327 411.833 248.457 411.863 247.557C411.893 246.657 411.933 245.786 411.973 244.937C412.013 244.087 412.103 243.346 412.103 242.697L407.213 242.566Z"></path><path id="路径 85" fill-rule="evenodd" style="fill:#FFFFFF" opacity="1" d="M469.053,237.556c-0.72,-0.26 -1.44,-0.55 -2.15,-0.88v7.93h-23.5v-7.73l-1,0.44c-0.33,0.14 -0.67,0.27 -1,0.4l-1,-2.92c2.64,-0.98 5.2,-2.16 7.66,-3.53c2.1,-1.15 4.06,-2.54 5.83,-4.14h2.66c1.73,1.61 3.67,2.99 5.75,4.11c2.49,1.36 5.07,2.53 7.74,3.49zM460.723,233.656v1.36h-11.08v-1.23c-0.78,0.43 -1.59,0.87 -2.44,1.3c-0.85,0.43 -1.72,0.86 -2.63,1.27h21.55c-1.91,-0.85 -3.71,-1.75 -5.4,-2.7zM445.193,246.006h19.95v10.7h-2.95v-1h-14.05v1h-2.95zM449.073,241.066c-0.51,-0.52 -0.94,-1 -1.28,-1.33l1.43,-1.27h-2.8v4h3.9c-0.39,-0.49 -0.81,-0.96 -1.25,-1.4zM448.143,249.716h14.05v-1.59h-14.05zM462.193,251.766h-14.05v1.78h14.05zM449.553,238.436l1.29,1.3c0.51,0.52 1,1 1.31,1.4l-1.43,1.3h2.93l0.02,-4zM453.443,231.296c-0.72,0.54 -1.47,1.05 -2.24,1.52h8.13c-0.83,-0.5 -1.59,-1 -2.3,-1.5c-0.64,-0.45 -1.25,-0.93 -1.83,-1.46v-0.03c-0.56,0.52 -1.15,1.01 -1.76,1.47zM458.813,240.566c0.26,-0.25 0.5,-0.5 0.74,-0.76l0.69,-0.75l0.55,-0.62h-4.13v4h2.63l-1.2,-1.2zM460.983,238.436l1.47,1.27l-0.49,0.57c-0.2,0.22 -0.41,0.46 -0.64,0.7l-0.71,0.74l-0.67,0.72h3.94v-4z"></path><path id="路径 86" fill-rule="evenodd" style="fill:#FFFFFF" opacity="1" d="M94.3931 278.037L97.7531 278.037L97.7531 272.297L102.353 272.297L102.353 278.037L105.673 278.037L105.673 264.037L102.353 264.037L102.353 269.347L97.7531 269.347L97.7531 264.037L94.3931 264.037L94.3931 278.037Z"></path><path id="路径 87" fill-rule="evenodd" style="fill:#FFFFFF" opacity="1" d="M108.283,270.937c0,-4.58 2.59,-7.17 6.4,-7.17c3.81,0 6.4,2.61 6.4,7.17c0,4.56 -2.59,7.32 -6.4,7.32c-3.81,0 -6.4,-2.74 -6.4,-7.32zM114.663,266.647c-1.86,0 -3,1.59 -3,4.29c0,2.7 1.13,4.43 3,4.43c1.87,0 3,-1.7 3,-4.43c0,-2.7 -1.14,-4.29 -3,-4.29z"></path><path id="路径 88" fill-rule="evenodd" style="fill:#FFFFFF" opacity="1" d="M123.673 278.037L126.863 278.037L126.863 273.397C126.863 271.717 126.583 269.797 126.433 268.237L126.523 268.237L127.893 271.297L131.353 278.037L134.763 278.037L134.763 264.037L131.573 264.037L131.573 268.647C131.623 270.377 131.773 272.107 132.023 273.817L131.933 273.817L130.563 270.717L127.093 264.037L123.673 264.037L123.673 278.037Z"></path><path id="路径 89" fill-rule="evenodd" style="fill:#FFFFFF" opacity="1" d="M144.303 278.256C146.013 278.276 147.673 277.676 148.963 276.556L148.963 270.016L143.763 270.016L143.763 272.756L145.973 272.756L145.973 275.016C145.573 275.256 145.113 275.386 144.643 275.366C142.053 275.366 140.813 273.696 140.813 270.976C140.813 268.256 142.293 266.646 144.363 266.646C145.333 266.646 146.263 267.036 146.933 267.726L148.713 265.586C147.533 264.406 145.913 263.746 144.243 263.766C140.513 263.766 137.383 266.436 137.383 271.086C137.383 275.816 140.423 278.256 144.303 278.256Z"></path><path id="路径 90" fill-rule="evenodd" style="fill:#FFFFFF" opacity="1" d="M156.093 277.997L159.453 277.997L159.453 274.337L160.973 272.277L164.263 277.997L167.943 277.997L162.943 269.627L167.173 264.037L163.493 264.037L159.493 269.547L159.433 269.547L159.433 264.037L156.073 264.037L156.093 277.997Z"></path><path id="路径 91" fill-rule="evenodd" style="fill:#FFFFFF" opacity="1" d="M168.103,270.937c0,-4.58 2.6,-7.17 6.41,-7.17c3.81,0 6.4,2.61 6.4,7.17c0,4.56 -2.59,7.32 -6.4,7.32c-3.81,0 -6.41,-2.74 -6.41,-7.32zM174.493,266.647c-1.85,0 -3,1.59 -3,4.29c0,2.7 1.13,4.43 3,4.43c1.87,0 3,-1.7 3,-4.43c0,-2.7 -1.15,-4.29 -3,-4.29z"></path><path id="路径 92" fill-rule="evenodd" style="fill:#FFFFFF" opacity="1" d="M183.553 278.037L186.653 278.037L186.653 273.397C186.653 271.717 186.373 269.797 186.223 268.237L186.313 268.237L187.683 271.297L191.143 278.037L194.553 278.037L194.553 264.037L191.453 264.037L191.453 268.647C191.503 270.377 191.653 272.107 191.903 273.817L191.813 273.817L190.443 270.717L186.963 264.037L183.553 264.037L183.553 278.037Z"></path><path id="路径 93" fill-rule="evenodd" style="fill:#FFFFFF" opacity="1" d="M204.103 278.256C205.813 278.286 207.463 277.676 208.753 276.556L208.753 270.016L203.553 270.016L203.553 272.756L205.803 272.756L205.803 275.016C205.403 275.256 204.943 275.376 204.473 275.366C201.883 275.366 200.643 273.696 200.643 270.976C200.643 268.256 202.123 266.646 204.183 266.646C205.153 266.636 206.083 267.026 206.763 267.726L208.543 265.586C207.363 264.406 205.743 263.746 204.073 263.766C200.343 263.766 197.203 266.436 197.203 271.086C197.203 275.816 200.243 278.256 204.103 278.256Z"></path><path id="路径 94" fill-rule="evenodd" style="fill:#FFFFFF" opacity="1" d="M215.903,264.037h4.88c2.89,0 5.2,0.77 5.2,3.45c0.03,1.27 -0.68,2.44 -1.82,3v0.08c1.52,0.33 2.57,1.73 2.47,3.28c0,2.85 -2.42,4.13 -5.46,4.13h-5.27zM222.713,267.997c0,-0.95 -0.65,-1.41 -2.06,-1.41h-1.39v3l1.39,-0.02c1.42,0 2.06,-0.62 2.06,-1.57zM223.373,273.647c0,-1.2 -0.81,-1.6 -2.44,-1.6h-1.67v3.39l1.67,-0.01c1.61,0 2.44,-0.58 2.44,-1.78z"></path><path id="路径 95" fill-rule="evenodd" style="fill:#FFFFFF" opacity="1" d="M228.953 277.997L237.733 277.997L237.733 275.187L232.313 275.187L232.313 264.037L228.953 264.037L228.953 277.997Z"></path><path id="路径 96" fill-rule="evenodd" style="fill:#FFFFFF" opacity="1" d="M238.713,270.937c0,-4.58 2.59,-7.17 6.4,-7.17c3.81,0 6.4,2.61 6.4,7.17c0,4.56 -2.59,7.32 -6.4,7.32c-3.81,0 -6.4,-2.74 -6.4,-7.32zM245.093,266.647c-1.86,0 -3,1.59 -3,4.29c0,2.7 1.13,4.43 3,4.43c1.87,0 3,-1.7 3,-4.43c0,-2.7 -1.14,-4.29 -3,-4.29z"></path><path id="路径 97" fill-rule="evenodd" style="fill:#FFFFFF" opacity="1" d="M260.013 278.257C261.763 278.297 263.443 277.537 264.573 276.197L262.813 274.097C262.143 274.877 261.173 275.337 260.143 275.367C258.173 275.367 256.903 273.697 256.903 270.977C256.903 268.257 258.383 266.647 260.183 266.647C261.103 266.677 261.973 267.057 262.603 267.727L264.373 265.587C263.263 264.437 261.733 263.787 260.133 263.767C256.583 263.767 253.463 266.437 253.463 271.087C253.463 275.817 256.473 278.257 260.013 278.257Z"></path><path id="路径 98" fill-rule="evenodd" style="fill:#FFFFFF" opacity="1" d="M266.653 277.997L270.013 277.997L270.013 274.337L271.533 272.277L274.823 277.997L278.493 277.997L273.493 269.627L277.723 264.037L274.043 264.037L270.043 269.547L269.983 269.547L269.983 264.037L266.623 264.037L266.653 277.997Z"></path><path id="路径 99" fill-rule="evenodd" style="fill:#FFFFFF" opacity="1" d="M285.213 278.257C286.963 278.297 288.643 277.537 289.773 276.197L288.003 274.097C287.333 274.877 286.373 275.337 285.343 275.367C283.373 275.367 282.093 273.697 282.093 270.977C282.093 268.257 283.573 266.647 285.373 266.647C286.293 266.677 287.163 267.067 287.803 267.727L289.563 265.587C288.453 264.437 286.923 263.787 285.323 263.767C281.773 263.767 278.653 266.437 278.653 271.087C278.653 275.817 281.663 278.257 285.213 278.257Z"></path><path id="路径 100" fill-rule="evenodd" style="fill:#FFFFFF" opacity="1" d="M291.813 278.037L295.173 278.037L295.173 272.297L299.773 272.297L299.773 278.037L303.093 278.037L303.093 264.037L299.773 264.037L299.773 269.347L295.173 269.347L295.173 264.037L291.813 264.037L291.813 278.037Z"></path><path id="路径 101" fill-rule="evenodd" style="fill:#FFFFFF" opacity="1" d="M312.933,274.787h-4.13l-0.81,3.21h-3.44l4.33,-14h4l4.34,14h-3.53zM311.993,271.017c-0.37,-1.39 -0.73,-3.06 -1.1,-4.49h-0.08c-0.34,1.47 -0.71,3.1 -1.07,4.49l-0.3,1.18h2.85z"></path><path id="路径 102" fill-rule="evenodd" style="fill:#FFFFFF" opacity="1" d="M318.733 278.037L322.093 278.037L322.093 264.037L318.733 264.037L318.733 278.037Z"></path><path id="路径 103" fill-rule="evenodd" style="fill:#FFFFFF" opacity="1" d="M325.303 278.037L328.493 278.037L328.493 273.397C328.493 271.717 328.213 269.797 328.063 268.237L328.163 268.237L329.533 271.297L332.983 278.037L336.403 278.037L336.403 264.037L333.213 264.037L333.213 268.647C333.263 270.377 333.413 272.107 333.663 273.817L333.563 273.817L332.193 270.717L328.723 264.037L325.303 264.037L325.303 278.037Z"></path><path id="路径 104" fill-rule="evenodd" style="fill:#FFFFFF" opacity="1" d="M350.553,274.787h-4.13l-0.8,3.21h-3.42l4.34,-14h4l4.34,14h-3.53zM349.613,271.017c-0.37,-1.39 -0.73,-3.06 -1.1,-4.49h-0.08c-0.34,1.47 -0.71,3.1 -1.07,4.49l-0.3,1.18h2.85z"></path><path id="路径 105" fill-rule="evenodd" style="fill:#FFFFFF" opacity="1" d="M360.643 278.257C363.973 278.257 365.973 276.217 365.973 273.887C366.033 272.127 364.893 270.557 363.213 270.057L361.463 269.367C360.233 268.877 359.343 268.557 359.343 267.807C359.343 267.057 360.013 266.647 361.013 266.647C362.073 266.657 363.083 267.037 363.893 267.717L365.563 265.607C364.343 264.427 362.713 263.767 361.013 263.767C358.053 263.767 355.953 265.647 355.953 267.997C355.983 269.747 357.123 271.287 358.783 271.827L360.563 272.577C361.803 273.077 362.563 273.397 362.563 274.147C362.563 274.897 361.983 275.367 360.743 275.367C359.483 275.287 358.293 274.787 357.353 273.947L355.453 276.257C356.883 277.537 358.723 278.247 360.643 278.257Z"></path><path id="路径 106" fill-rule="evenodd" style="fill:#FFFFFF" opacity="1" d="M372.223 278.257C375.553 278.257 377.553 276.217 377.553 273.887C377.613 272.127 376.473 270.557 374.793 270.057L373.053 269.367C371.813 268.877 370.933 268.557 370.933 267.807C370.933 267.057 371.603 266.647 372.603 266.647C373.653 266.657 374.673 267.037 375.473 267.717L377.143 265.607C375.923 264.427 374.303 263.767 372.603 263.767C369.633 263.767 367.533 265.647 367.533 267.997C367.563 269.747 368.703 271.287 370.363 271.827L372.153 272.577C373.383 273.077 374.153 273.397 374.153 274.147C374.153 274.897 373.573 275.367 372.333 275.367C371.073 275.287 369.873 274.787 368.933 273.947L367.033 276.257C368.463 277.537 370.303 278.247 372.223 278.257Z"></path><path id="路径 107" fill-rule="evenodd" style="fill:#FFFFFF" opacity="1" d="M379.273,270.937c0,-4.58 2.59,-7.17 6.4,-7.17c3.81,0 6.4,2.61 6.4,7.17c0,4.56 -2.59,7.32 -6.4,7.32c-3.81,0 -6.4,-2.74 -6.4,-7.32zM385.663,266.647c-1.85,0 -3,1.59 -3,4.29c0,2.7 1.12,4.43 3,4.43c1.88,0 3,-1.7 3,-4.43c0,-2.7 -1.15,-4.29 -3,-4.29z"></path><path id="路径 108" fill-rule="evenodd" style="fill:#FFFFFF" opacity="1" d="M400.583 278.257C402.333 278.297 404.013 277.537 405.143 276.197L403.383 274.097C402.713 274.877 401.743 275.337 400.713 275.367C398.743 275.367 397.463 273.697 397.463 270.977C397.463 268.257 398.953 266.647 400.753 266.647C401.673 266.677 402.543 267.067 403.173 267.727L404.933 265.587C403.823 264.437 402.293 263.787 400.693 263.767C397.143 263.767 394.033 266.437 394.033 271.087C394.033 275.817 397.033 278.257 400.583 278.257Z"></path><path id="路径 109" fill-rule="evenodd" style="fill:#FFFFFF" opacity="1" d="M407.193 278.037L410.553 278.037L410.553 264.037L407.193 264.037L407.193 278.037Z"></path><path id="路径 110" fill-rule="evenodd" style="fill:#FFFFFF" opacity="1" d="M420.353,274.787h-4.13l-0.81,3.21h-3.42l4.34,-14h4l4.33,14h-3.53zM419.413,271.017c-0.38,-1.39 -0.73,-3.06 -1.11,-4.49h-0.08c-0.33,1.47 -0.71,3.1 -1.06,4.49l-0.31,1.18h2.86z"></path><path id="路径 111" fill-rule="evenodd" style="fill:#FFFFFF" opacity="1" d="M427.243 277.997L430.603 277.997L430.603 266.807L434.393 266.807L434.393 264.037L423.463 264.037L423.463 266.807L427.243 266.807L427.243 277.997Z"></path><path id="路径 112" fill-rule="evenodd" style="fill:#FFFFFF" opacity="1" d="M436.553 278.037L439.913 278.037L439.913 264.037L436.553 264.037L436.553 278.037Z"></path><path id="路径 113" fill-rule="evenodd" style="fill:#FFFFFF" opacity="1" d="M442.483,270.937c0,-4.58 2.59,-7.17 6.4,-7.17c3.81,0 6.4,2.61 6.4,7.17c0,4.56 -2.59,7.32 -6.4,7.32c-3.81,0 -6.4,-2.74 -6.4,-7.32zM448.863,266.647c-1.86,0 -3,1.59 -3,4.29c0,2.7 1.13,4.43 3,4.43c1.87,0 3,-1.7 3,-4.43c0,-2.7 -1.14,-4.29 -3,-4.29z"></path><path id="路径 114" fill-rule="evenodd" style="fill:#FFFFFF" opacity="1" d="M457.873 278.037L461.063 278.037L461.063 273.397C461.063 271.717 460.783 269.797 460.633 268.237L460.733 268.237L462.103 271.297L465.553 278.037L468.973 278.037L468.973 264.037L465.773 264.037L465.773 268.647C465.823 270.377 465.973 272.107 466.233 273.817L466.133 273.817L464.763 270.717L461.293 264.037L457.873 264.037L457.873 278.037Z"></path><path id="路径 115" fill-rule="evenodd" style="fill:#FFFFFF" opacity="1" d="M357.863,144.206c10.69,2.84 18.75,10.79 18.72,24.77c0,21.59 -18.33,31.25 -41.33,31.25h-7.86v-7h-7v7h-14.09v-21.14h7v-7h-7v-35.22h7v-7h-7v-35.2195h26c21.87,0 39.34,5.8195 39.34,26.1295c0,9.37 -5.26,19.6 -13.78,22.86zM341.553,108.686h7v-7h-7zM320.853,136.536h10.51c10.79,0 15.62,-4.68 15.62,-11.93c0,-7.52 -4.97,-10.65 -15.62,-10.65h-10.51zM333.443,180.846c12.21,0 18.46,-4.41 18.51,-13.49c0,-8.66 -6.11,-12.07 -18.46,-12.07h-12.64v25.56h12.64zM355.553,143.996h-7v7h7z"></path><path id="路径 116" fill-rule="evenodd" style="fill:#FFFFFF" opacity="1" d="M292.243 101.686L299.283 101.686L299.283 94.6465L292.243 94.6465L292.243 101.686Z"></path><path id="路径 117" fill-rule="evenodd" style="fill:#FFFFFF" opacity="1" d="M299.243 108.727L306.283 108.727L306.283 101.687L299.243 101.687L299.243 108.727Z"></path><path id="路径 118" fill-rule="evenodd" style="fill:#FFFFFF" opacity="1" d="M299.243 115.776L306.283 115.776L306.283 108.736L299.243 108.736L299.243 115.776Z"></path><path id="路径 119" fill-rule="evenodd" style="fill:#FFFFFF" opacity="1" d="M292.243 115.776L299.283 115.776L299.283 108.736L292.243 108.736L292.243 115.776Z"></path><path id="路径 120" fill-rule="evenodd" style="fill:#FFFFFF" opacity="1" d="M278.153 115.776L285.193 115.776L285.193 108.736L278.153 108.736L278.153 115.776Z"></path><path id="路径 121" fill-rule="evenodd" style="fill:#FFFFFF" opacity="1" d="M264.063 150.997L271.103 150.997L271.103 143.957L264.063 143.957L264.063 150.997Z"></path><path id="路径 122" fill-rule="evenodd" style="fill:#FFFFFF" opacity="1" d="M271.113 172.126L278.153 172.126L278.153 165.086L271.113 165.086L271.113 172.126Z"></path><path id="路径 123" fill-rule="evenodd" style="fill:#FFFFFF" opacity="1" d="M292.243 122.816L299.283 122.816L299.283 115.776L292.243 115.776L292.243 122.816Z"></path><path id="路径 124" fill-rule="evenodd" style="fill:#FFFFFF" opacity="1" d="M299.243 129.856L306.283 129.856L306.283 122.816L299.243 122.816L299.243 129.856Z"></path><path id="路径 125" fill-rule="evenodd" style="fill:#FFFFFF" opacity="1" d="M299.243 136.907L306.283 136.907L306.283 129.867L299.243 129.867L299.243 136.907Z"></path><path id="路径 126" fill-rule="evenodd" style="fill:#FFFFFF" opacity="1" d="M299.243 143.946L306.283 143.946L306.283 136.906L299.243 136.906L299.243 143.946Z"></path><path id="路径 127" fill-rule="evenodd" style="fill:#FFFFFF" opacity="1" d="M292.243 143.946L299.283 143.946L299.283 136.906L292.243 136.906L292.243 143.946Z"></path><path id="路径 128" fill-rule="evenodd" style="fill:#FFFFFF" opacity="1" d="M285.203 143.946L292.243 143.946L292.243 136.906L285.203 136.906L285.203 143.946Z"></path><path id="路径 129" fill-rule="evenodd" style="fill:#FFFFFF" opacity="1" d="M292.243 150.997L299.283 150.997L299.283 143.957L292.243 143.957L292.243 150.997Z"></path><path id="路径 130" fill-rule="evenodd" style="fill:#FFFFFF" opacity="1" d="M278.153 136.907L285.193 136.907L285.193 129.867L278.153 129.867L278.153 136.907Z"></path><path id="路径 131" fill-rule="evenodd" style="fill:#FFFFFF" opacity="1" d="M271.113 129.856L278.153 129.856L278.153 122.816L271.113 122.816L271.113 129.856Z"></path><path id="路径 132" fill-rule="evenodd" style="fill:#FFFFFF" opacity="1" d="M271.113 143.946L278.153 143.946L278.153 136.906L271.113 136.906L271.113 143.946Z"></path><path id="路径 133" fill-rule="evenodd" style="fill:#FFFFFF" opacity="1" d="M278.153 158.037L285.193 158.037L285.193 150.997L278.153 150.997L278.153 158.037Z"></path><path id="路径 134" fill-rule="evenodd" style="fill:#FFFFFF" opacity="1" d="M278.153 188.537L285.193 188.537L285.193 181.497L278.153 181.497L278.153 188.537Z"></path><path id="路径 135" fill-rule="evenodd" style="fill:#FFFFFF" opacity="1" d="M299.243 158.037L306.283 158.037L306.283 150.997L299.243 150.997L299.243 158.037Z"></path><path id="路径 136" fill-rule="evenodd" style="fill:#FFFFFF" opacity="1" d="M299.243 165.077L306.283 165.077L306.283 158.037L299.243 158.037L299.243 165.077Z"></path><path id="路径 137" fill-rule="evenodd" style="fill:#FFFFFF" opacity="1" d="M292.243 165.077L299.283 165.077L299.283 158.037L292.243 158.037L292.243 165.077Z"></path><path id="路径 138" fill-rule="evenodd" style="fill:#FFFFFF" opacity="1" d="M292.243 172.126L299.283 172.126L299.283 165.086L292.243 165.086L292.243 172.126Z"></path><path id="路径 139" fill-rule="evenodd" style="fill:#FFFFFF" opacity="1" d="M285.203 172.126L292.243 172.126L292.243 165.086L285.203 165.086L285.203 172.126Z"></path><path id="路径 140" fill-rule="evenodd" style="fill:#FFFFFF" opacity="1" d="M299.243 172.126L306.283 172.126L306.283 165.086L299.243 165.086L299.243 172.126Z"></path><path id="路径 141" fill-rule="evenodd" style="fill:#FFFFFF" opacity="1" d="M299.243 179.166L306.283 179.166L306.283 172.126L299.243 172.126L299.243 179.166Z"></path><path id="路径 142" fill-rule="evenodd" style="fill:#FFFFFF" opacity="1" d="M292.243 186.206L299.283 186.206L299.283 179.167L292.243 179.167L292.243 186.206Z"></path><path id="路径 143" fill-rule="evenodd" style="fill:#FFFFFF" opacity="1" d="M299.243 193.257L306.283 193.257L306.283 186.217L299.243 186.217L299.243 193.257Z"></path><path id="路径 144" fill-rule="evenodd" style="fill:#FFFFFF" opacity="1" d="M292.243 200.296L299.283 200.296L299.283 193.256L292.243 193.256L292.243 200.296Z"></path><path id="路径 145" fill-rule="evenodd" style="fill:#FFFFFF" opacity="1" d="M285.203 200.296L292.243 200.296L292.243 193.256L285.203 193.256L285.203 200.296Z"></path><path id="路径 146" fill-rule="evenodd" style="fill:#FFFFFF" opacity="1" d="M94.1331 219.097L96.9431 219.097L96.9431 214.297L100.783 214.297L100.783 219.097L103.553 219.097L103.553 207.437L100.733 207.437L100.733 211.877L96.8931 211.877L96.8931 207.437L94.0831 207.437L94.1331 219.097Z"></path><path id="路径 147" fill-rule="evenodd" style="fill:#FFFFFF" opacity="1" d="M109.013,212.047zM106.213,207.437h2.8v4.61l3.31,-4.61h3.07l-3.53,4.67l4.19,7h-3.07l-2.75,-4.78l-1.27,1.72v3.06h-2.8z"></path><path id="路径 148" fill-rule="evenodd" style="fill:#FFFFFF" opacity="1" d="M117.303,207.437h4.08c2.41,0 4.34,0.64 4.34,2.88c0.03,1.07 -0.56,2.06 -1.52,2.53v0.06c1.27,0.28 2.14,1.44 2.06,2.74c0,2.38 -2,3.45 -4.56,3.45h-4.4zM123.023,210.747c0,-0.8 -0.55,-1.18 -1.72,-1.18h-1.16v2.49h1.16c1.19,0 1.72,-0.51 1.72,-1.31zM123.533,215.457c0,-1.01 -0.68,-1.33 -2,-1.33h-1.39v2.82h1.39c1.35,0 2,-0.48 2,-1.49z"></path><path id="路径 149" fill-rule="evenodd" style="fill:#FFFFFF" opacity="1" d="M133.693,216.437h-3.45l-0.67,2.68h-2.85l3.62,-11.66h3.35l3.62,11.66h-3zM132.913,213.277c-0.32,-1.16 -0.61,-2.55 -0.93,-3.74h-0.06c-0.28,1.22 -0.6,2.58 -0.89,3.74l-0.25,1h2.38z"></path><path id="路径 150" fill-rule="evenodd" style="fill:#FFFFFF" opacity="1" d="M139.113 219.017C139.623 219.307 140.263 219.307 140.773 219.017C141.283 218.717 141.603 218.167 141.603 217.577C141.603 216.987 141.283 216.437 140.773 216.137C140.263 215.846 139.623 215.846 139.113 216.137C138.603 216.437 138.283 216.987 138.283 217.577C138.283 218.167 138.603 218.717 139.113 219.017Z"></path><path id="路径 151" fill-rule="evenodd" style="fill:#FFFFFF" opacity="1" d="M144.289 217.963C145.139 218.853 146.319 219.343 147.539 219.303C148.609 219.333 149.659 218.983 150.479 218.303L149.409 216.473C148.979 216.853 148.439 217.073 147.859 217.093C146.759 217.093 145.959 216.173 145.959 214.683C145.959 213.193 146.739 212.253 147.959 212.253C148.399 212.263 148.809 212.443 149.109 212.743L150.409 210.953C149.699 210.313 148.779 209.953 147.809 209.953C146.559 209.913 145.339 210.383 144.439 211.273C143.549 212.163 143.079 213.393 143.119 214.643C143.019 215.873 143.449 217.073 144.289 217.963Z"></path><path id="路径 152" fill-rule="evenodd" style="fill:#FFFFFF" opacity="1" d="M154.573 219.297C155.043 219.307 155.513 219.227 155.953 219.057L155.623 217.057C155.523 217.067 155.413 217.067 155.313 217.057C155.093 217.057 154.813 216.887 154.813 216.307L154.813 206.577L152.033 206.577L152.033 216.197C152.033 218.067 152.663 219.317 154.573 219.297Z"></path><path id="路径 153" fill-rule="evenodd" style="fill:#FFFFFF" opacity="1" d="M159.883 219.317C160.983 219.317 162.023 218.777 162.663 217.877L162.733 217.877L162.933 219.097L165.203 219.097L165.203 210.177L162.413 210.177L162.413 216.027C162.123 216.577 161.553 216.937 160.933 216.937C160.263 216.937 159.933 216.587 159.933 215.347L159.933 210.177L157.143 210.177L157.143 215.697C157.143 217.917 157.973 219.317 159.883 219.317Z"></path><path id="路径 154" fill-rule="evenodd" style="fill:#FFFFFF" opacity="1" d="M169.943,218.137h-0.06l-0.22,1h-2.18v-12.56h2.78v3l-0.07,1.33c0.62,-0.61 1.44,-0.96 2.31,-1c2.13,0 3.49,1.79 3.49,4.52c0,3.08 -1.83,4.84 -3.74,4.84c-0.9,-0.03 -1.74,-0.44 -2.31,-1.13zM171.683,212.237c-0.56,0.02 -1.08,0.3 -1.42,0.75v3.52c0.36,0.34 0.84,0.53 1.33,0.52c0.84,0 1.53,-0.7 1.53,-2.49c0,-1.57 -0.45,-2.3 -1.44,-2.3z"></path></g></svg>