<svg width="128" height="98" viewBox="0 0 128 98" fill="none" xmlns="http://www.w3.org/2000/svg">
<g clip-path="url(#clip0_250_119)">
<path d="M46.7335 97.9019C44.1313 97.9019 41.9784 97.1006 40.3364 95.523C38.6979 93.9489 37.8681 91.8407 37.8681 89.2552C37.8681 86.6698 38.7155 84.574 40.3875 82.975C42.0647 81.3706 44.2 80.5569 46.7352 80.5569C48.8476 80.5569 50.6958 81.1391 52.225 82.2912C52.9808 82.8592 53.6063 83.5216 54.0872 84.2659L51.6524 86.2014C51.3212 85.3628 50.7521 84.679 49.9576 84.1662C49.045 83.5786 47.9597 83.2795 46.7335 83.2795C45.0052 83.2795 43.6169 83.8261 42.6091 84.9052C41.6049 85.9771 41.0975 87.4408 41.0975 89.2534C41.0975 91.0661 41.6102 92.5155 42.6197 93.6124C43.6362 94.7164 45.0192 95.2755 46.7335 95.2755C48.0302 95.2755 49.1648 94.9514 50.1038 94.3104C51.0534 93.664 51.707 92.7719 52.0506 91.6555L52.1862 91.2139H48.2627V88.6872H55.3381C55.3434 88.8581 55.3469 89.0469 55.3469 89.2534C55.3469 91.8229 54.5206 93.9276 52.8892 95.5105C51.2543 97.0971 49.1841 97.9019 46.7335 97.9019Z" fill="#231F20"/>
<path d="M68.571 97.7186L64.9417 91.1392L64.7532 91.1303C64.3673 91.1125 63.8353 91.1036 63.1711 91.1036C62.047 91.1036 60.916 91.1285 60.9036 91.1285L60.5742 91.1357V97.7168H57.2585V81.0093H65.7204C67.6848 81.0093 69.2193 81.4847 70.2799 82.4195C71.3423 83.3561 71.8585 84.5616 71.8585 86.1054C71.8585 87.2041 71.5801 88.1692 71.0305 88.9722C70.4825 89.7735 69.6774 90.3753 68.6379 90.7564L68.2503 90.8988L72.387 97.7151H68.5692L68.571 97.7186ZM60.5759 88.5306H65.7222C66.6207 88.5306 67.3201 88.3169 67.8011 87.8967C68.2944 87.464 68.5463 86.8622 68.5463 86.109C68.5463 85.3558 68.2926 84.7468 67.794 84.2892C67.3025 83.8405 66.6066 83.6125 65.7222 83.6125H60.5759V88.5306Z" fill="#231F20"/>
<path d="M82.7623 97.9998C80.0579 97.9998 77.8046 97.1647 76.0657 95.5194C74.3321 93.8813 73.4547 91.7801 73.4547 89.2784C73.4547 86.7766 74.3338 84.6755 76.0657 83.0373C77.8046 81.392 80.0579 80.5569 82.7623 80.5569C85.4666 80.5569 87.7182 81.3902 89.4589 83.0373C91.1925 84.6772 92.0716 86.7766 92.0716 89.2784C92.0716 91.7801 91.1925 93.8795 89.4589 95.5194C87.72 97.1647 85.4666 97.9998 82.7623 97.9998ZM82.7623 83.2795C81.0234 83.2795 79.5805 83.835 78.4741 84.9319C77.3659 86.0305 76.8039 87.4924 76.8039 89.2784C76.8039 91.0643 77.3659 92.5262 78.4741 93.6231C79.5787 94.7199 81.0216 95.2755 82.7623 95.2755C84.5029 95.2755 85.9441 94.7199 87.0487 93.6231C88.1569 92.5262 88.7189 91.0625 88.7189 89.2784C88.7189 87.4942 88.1569 86.0323 87.0487 84.9319C85.9441 83.835 84.5012 83.2795 82.7623 83.2795Z" fill="#231F20"/>
<path d="M102.276 97.9999C99.8588 97.9999 97.8221 97.3731 96.2207 96.1356C94.6245 94.9034 93.8493 93.1655 93.8493 90.8222V80.9255H97.4257V90.9202C97.4257 92.2823 97.838 93.3792 98.6484 94.1769C99.4571 94.9729 100.678 95.3753 102.276 95.3753C103.874 95.3753 105.095 94.9729 105.904 94.1769C106.716 93.3792 107.126 92.2823 107.126 90.9202V80.9255H110.703V90.8222C110.703 93.1637 109.927 94.9016 108.331 96.1356C106.73 97.3731 104.693 97.9999 102.276 97.9999Z" fill="#231F20"/>
<path d="M113.162 97.8094V81.1018H121.462C123.678 81.1018 125.343 81.5772 126.411 82.5121C127.48 83.4504 128 84.647 127.998 86.173C127.998 87.6812 127.466 88.8706 126.37 89.8073C125.273 90.7456 123.622 91.2211 121.46 91.2211H116.635V97.8094H113.16H113.162ZM116.636 88.6214H121.462C122.447 88.6214 123.206 88.4059 123.721 87.9821C124.254 87.5405 124.526 86.9333 124.526 86.1748C124.526 85.4198 124.256 84.8073 123.722 84.3568C123.206 83.9223 122.445 83.7015 121.46 83.7015H116.635V88.6196L116.636 88.6214Z" fill="#231F20"/>
<path d="M12.5563 82.3554C11.982 83.1353 11.5081 84.0755 11.1892 85.2062C11.1046 85.1029 11.0148 84.9996 10.9196 84.9035C9.88897 83.8583 8.32625 83.3258 6.27552 83.3258H3.19237V86.2799C0.620144 85.4412 0.392872 84.7699 0.151506 81.4865C0.130364 81.2016 0.110984 80.9167 0.086319 80.6335H6.3777C8.91293 80.6335 10.9883 81.2105 12.5563 82.3554Z" fill="#231F20"/>
<path d="M29.6141 91.814C29.2335 93.6391 28.3139 95.1188 26.8815 96.2157C25.3364 97.398 23.4284 97.9998 21.2068 97.9998C18.9851 97.9998 17.2092 97.4194 15.6959 96.2709C16.2984 95.5105 16.7547 94.59 17.0084 93.4717C17.0454 93.5198 17.0842 93.5608 17.1247 93.6053C18.1007 94.6986 19.4749 95.2523 21.2068 95.2523C22.5035 95.2523 23.6187 94.9265 24.5278 94.2855C25.3787 93.6872 25.9672 92.8556 26.2825 91.814H29.6141Z" fill="#231F20"/>
<path d="M0.0299416 97.8664C-0.204378 94.6844 0.912603 91.0858 3.19237 88.7834V95.1741H6.27552C10.6184 95.2221 12.3819 93.5092 12.4136 88.8333C12.4295 86.3956 12.8118 80.4519 21.2085 80.4519C23.4284 80.4519 25.3364 81.052 26.8815 82.2361C27.6426 82.8183 28.2628 83.511 28.7261 84.298L26.1786 86.3244C25.8473 85.4287 25.2924 84.704 24.5278 84.1627C23.6169 83.5235 22.5017 83.1994 21.2068 83.1994C16.2737 83.1994 15.6994 87.3037 15.5355 91.636C15.3964 95.288 13.1131 97.8664 6.37594 97.8664H0.0299416Z" fill="#231F20"/>
<path d="M86.8673 50.3648C86.3282 49.7647 85.1266 48.7533 85.1266 48.7533C85.1266 48.7533 82.0029 33.9475 81.2119 19.8093C80.4208 5.66942 83.3683 0.00170898 83.3683 0.00170898C79.5153 1.07008 74.17 3.35818 70.3698 9.1078C69.9751 8.37063 69.9082 7.56044 69.9082 7.56044C67.3483 13.0572 66.7951 17.8435 66.7105 18.7285C65.9759 23.8228 67.1263 27.5461 67.1263 27.5461C67.1263 27.5461 68.4565 25.2562 70.8331 25.7014C72.3236 25.9792 73.3102 27.7972 73.8405 29.1131C72.6284 28.6412 71.603 28.7676 71.603 28.7676C73.2644 29.4728 74.8677 31.2587 75.0755 31.4955C76.4832 33.3972 79.2722 37.5888 78.6185 40.1494C77.6073 44.1059 72.7218 43.618 69.998 39.7505C68.2944 37.336 66.0093 34.6775 63.1411 32.9681C64.5118 32.7153 66.0692 33.0465 66.0692 33.0465C62.4188 31.0326 58.4618 30.9204 55.7098 31.2053C55.0509 31.2587 54.3638 31.3602 53.6626 31.5151C52.7324 31.7021 52.181 31.8802 52.181 31.8802C52.181 31.8802 52.2074 31.8873 52.2479 31.898C47.2162 33.5112 41.8674 38.0001 40.8297 47.6208C39.4238 60.6906 49.9047 67.8611 49.9047 67.8611C49.9047 67.8611 46.0252 63.885 47.329 54.6561C48.9128 43.4506 58.9287 42.5336 63.7119 44.0347C68.497 45.534 72.9667 49.6205 75.2447 51.0859C77.5209 52.5532 82.4222 54.8804 84.7972 54.2483C87.1721 53.6162 87.8539 51.4616 86.869 50.3648H86.8673Z" fill="#231F20"/>
<path d="M66.5625 61.134C61.2401 58.066 56.663 53.2192 57.8081 48.9065C58.9516 44.5939 63.5446 44.4479 63.5446 44.4479C63.5446 44.4479 56.2031 42.815 51.9801 49.7505C47.2796 57.4713 51.4868 68.4577 55.2465 70.6568C59.0079 72.8576 67.2214 73.7586 74.6457 69.056C74.6457 69.056 71.8849 64.1985 66.5625 61.1323V61.134Z" fill="#231F20"/>
</g>
<defs>
<clipPath id="clip0_250_119">
<rect width="128" height="98" fill="white"/>
</clipPath>
</defs>
</svg>
