<svg width="181" height="80" viewBox="0 0 181 80" fill="none" xmlns="http://www.w3.org/2000/svg">
<g clip-path="url(#clip0_250_48)">
<path d="M82.18 24.5401L77.83 14.5801H79.84L83.73 23.5901H82.58L86.51 14.5801H88.36L84 24.5401H82.18Z" fill="#F9F7F7"/>
<path d="M89.39 24.5401V14.5801H91.24V24.5401H89.39Z" fill="#F9F7F7"/>
<path d="M95.78 22.9901H101.4V24.5401H93.93V14.5801H101.2V16.1301H95.78V22.9901ZM95.64 18.7201H100.59V20.2401H95.64V18.7201Z" fill="#F9F7F7"/>
<path d="M105.49 24.5401V16.1401H102.19V14.5701H110.64V16.1401H107.34V24.5401H105.49Z" fill="#F9F7F7"/>
<path d="M112.03 24.5401V14.5801H113.55L119.8 22.2501H119.05V14.5801H120.89V24.5401H119.37L113.12 16.8701H113.87V24.5401H112.03Z" fill="#F9F7F7"/>
<path d="M122.15 24.5401L126.63 14.5801H128.45L132.95 24.5401H131.01L127.15 15.5601H127.89L124.05 24.5401H122.15ZM124.22 22.2401L124.72 20.7901H130.1L130.6 22.2401H124.22Z" fill="#F9F7F7"/>
<path d="M134.22 24.5401V14.5801H135.74L140.09 21.8501H139.29L143.57 14.5801H145.09L145.1 24.5401H143.35L143.34 17.3201H143.71L140.07 23.4001H139.24L135.54 17.3201H135.97V24.5401H134.22Z" fill="#F9F7F7"/>
<path d="M77.82 39.4799V29.6899H82.41C83.59 29.6899 84.48 29.9199 85.1 30.3799C85.72 30.8399 86.02 31.4599 86.02 32.2299C86.02 32.7499 85.9 33.1999 85.66 33.5699C85.42 33.9399 85.09 34.2199 84.69 34.4199C84.29 34.6199 83.84 34.7199 83.37 34.7199L83.62 34.2199C84.17 34.2199 84.66 34.3199 85.1 34.5199C85.54 34.7199 85.89 35.0099 86.14 35.3899C86.4 35.7699 86.52 36.2499 86.52 36.8199C86.52 37.6599 86.2 38.3099 85.55 38.7799C84.91 39.2499 83.95 39.4799 82.68 39.4799H77.82ZM79.64 38.0499H82.58C83.26 38.0499 83.78 37.9399 84.15 37.7099C84.51 37.4899 84.7 37.1299 84.7 36.6299C84.7 36.1499 84.52 35.7899 84.15 35.5599C83.79 35.3299 83.26 35.2199 82.58 35.2199H79.5V33.8099H82.21C82.84 33.8099 83.33 33.6999 83.67 33.4699C84.01 33.2499 84.18 32.9099 84.18 32.4599C84.18 31.9999 84.01 31.6599 83.67 31.4399C83.33 31.2199 82.84 31.0999 82.21 31.0999H79.64V38.0499Z" fill="#F9F7F7"/>
<path d="M88.47 39.4799V29.6899H90.29V37.9399H95.41V39.4799H88.47Z" fill="#F9F7F7"/>
<path d="M101.26 39.62C100.49 39.62 99.79 39.49 99.15 39.24C98.51 38.99 97.95 38.64 97.47 38.18C96.99 37.73 96.63 37.2 96.36 36.59C96.1 35.98 95.97 35.31 95.97 34.58C95.97 33.85 96.1 33.18 96.36 32.57C96.62 31.96 96.99 31.43 97.47 30.98C97.95 30.53 98.51 30.18 99.15 29.92C99.79 29.67 100.49 29.54 101.25 29.54C102.01 29.54 102.72 29.67 103.36 29.92C104 30.17 104.56 30.52 105.03 30.98C105.51 31.43 105.87 31.96 106.14 32.57C106.4 33.18 106.53 33.85 106.53 34.58C106.53 35.31 106.4 35.98 106.14 36.59C105.88 37.21 105.51 37.74 105.03 38.18C104.55 38.63 104 38.98 103.36 39.23C102.71 39.49 102.01 39.62 101.26 39.62ZM101.24 38.02C101.73 38.02 102.19 37.94 102.61 37.77C103.03 37.6 103.39 37.36 103.7 37.05C104.01 36.74 104.25 36.37 104.42 35.96C104.59 35.55 104.68 35.09 104.68 34.58C104.68 34.07 104.59 33.62 104.42 33.2C104.25 32.78 104.01 32.42 103.7 32.11C103.39 31.8 103.03 31.56 102.61 31.39C102.19 31.22 101.73 31.14 101.24 31.14C100.75 31.14 100.29 31.22 99.88 31.39C99.46 31.56 99.1 31.8 98.79 32.11C98.48 32.42 98.24 32.79 98.06 33.2C97.89 33.62 97.8 34.07 97.8 34.58C97.8 35.07 97.89 35.53 98.06 35.95C98.23 36.37 98.47 36.74 98.78 37.05C99.09 37.36 99.45 37.6 99.87 37.77C100.29 37.94 100.75 38.02 101.24 38.02Z" fill="#F9F7F7"/>
<path d="M112.98 39.6201C112.23 39.6201 111.54 39.5001 110.9 39.2501C110.26 39.0001 109.71 38.6501 109.24 38.2001C108.77 37.7501 108.4 37.2101 108.14 36.6001C107.88 35.9801 107.75 35.3101 107.75 34.5901C107.75 33.8701 107.88 33.1901 108.14 32.5801C108.4 31.9601 108.77 31.4301 109.25 30.9801C109.73 30.5301 110.28 30.1801 110.91 29.9301C111.54 29.6801 112.24 29.5601 112.99 29.5601C113.79 29.5601 114.52 29.7001 115.19 29.9701C115.85 30.2501 116.41 30.6501 116.87 31.1901L115.69 32.3001C115.34 31.9201 114.94 31.6301 114.5 31.4401C114.06 31.2501 113.59 31.1501 113.07 31.1501C112.56 31.1501 112.09 31.2301 111.66 31.4001C111.24 31.5701 110.87 31.8101 110.55 32.1101C110.24 32.4201 110 32.7801 109.82 33.2001C109.64 33.6201 109.56 34.0801 109.56 34.5901C109.56 35.1001 109.65 35.5601 109.82 35.9801C109.99 36.4001 110.24 36.7601 110.55 37.0701C110.86 37.3801 111.23 37.6201 111.66 37.7801C112.08 37.9501 112.55 38.0301 113.07 38.0301C113.58 38.0301 114.06 37.9301 114.5 37.7401C114.94 37.5501 115.33 37.2601 115.69 36.8701L116.87 37.9901C116.41 38.5201 115.85 38.9301 115.19 39.2101C114.53 39.4901 113.79 39.6201 112.98 39.6201Z" fill="#F9F7F7"/>
<path d="M118.62 39.4799V29.6899H120.44V39.4799H118.62ZM120.24 37.1699L120.14 35.0199L125.27 29.6899H127.31L123.04 34.2199L122.03 35.3299L120.24 37.1699ZM125.45 39.4799L121.7 35.0199L122.9 33.6899L127.57 39.4799H125.45Z" fill="#F9F7F7"/>
<path d="M133 39.6201C132.25 39.6201 131.56 39.5001 130.92 39.2501C130.28 39.0001 129.73 38.6501 129.26 38.2001C128.79 37.7501 128.42 37.2101 128.16 36.6001C127.9 35.9801 127.77 35.3101 127.77 34.5901C127.77 33.8701 127.9 33.1901 128.16 32.5801C128.42 31.9601 128.79 31.4301 129.27 30.9801C129.75 30.5301 130.3 30.1801 130.93 29.9301C131.56 29.6801 132.26 29.5601 133.01 29.5601C133.81 29.5601 134.54 29.7001 135.21 29.9701C135.87 30.2501 136.43 30.6501 136.89 31.1901L135.71 32.3001C135.36 31.9201 134.96 31.6301 134.52 31.4401C134.08 31.2501 133.61 31.1501 133.09 31.1501C132.58 31.1501 132.11 31.2301 131.68 31.4001C131.26 31.5701 130.89 31.8101 130.57 32.1101C130.26 32.4201 130.02 32.7801 129.84 33.2001C129.66 33.6201 129.58 34.0801 129.58 34.5901C129.58 35.1001 129.67 35.5601 129.84 35.9801C130.01 36.4001 130.26 36.7601 130.57 37.0701C130.88 37.3801 131.25 37.6201 131.68 37.7801C132.1 37.9501 132.57 38.0301 133.09 38.0301C133.6 38.0301 134.08 37.9301 134.52 37.7401C134.96 37.5501 135.35 37.2601 135.71 36.8701L136.89 37.9901C136.43 38.5201 135.87 38.9301 135.21 39.2101C134.55 39.4801 133.81 39.6201 133 39.6201Z" fill="#F9F7F7"/>
<path d="M140.46 39.4799H138.64V29.6899H140.46V39.4799ZM145.66 35.2799H140.3V33.7299H145.66V35.2799ZM145.52 29.6799H147.34V39.4699H145.52V29.6799Z" fill="#F9F7F7"/>
<path d="M148.59 39.4799L153 29.6899H154.79L159.21 39.4799H157.31L153.52 30.6499H154.25L150.47 39.4799H148.59ZM150.62 37.2099L151.11 35.7799H156.4L156.89 37.2099H150.62Z" fill="#F9F7F7"/>
<path d="M160.45 39.4799V29.6899H162.27V39.4799H160.45Z" fill="#F9F7F7"/>
<path d="M164.91 39.4799V29.6899H166.41L172.55 37.2299H171.81V29.6899H173.62V39.4799H172.12L165.98 31.9399H166.72V39.4799H164.91Z" fill="#F9F7F7"/>
<path d="M77.77 65.3502L78.75 60.4702H79.26L78.28 65.3502H77.77Z" fill="#F9F7F7"/>
<path d="M79.88 65.3502L80.86 60.4702H81.28L83.74 64.7302L83.58 64.7002L84.42 60.4702H84.93L83.95 65.3502H83.53L81.07 61.0902L81.23 61.1202L80.39 65.3502H79.88Z" fill="#F9F7F7"/>
<path d="M86.88 65.3502L85.69 60.4702H86.22L87.33 65.0602H87.02L89.98 60.4702H90.52L87.38 65.3502H86.88Z" fill="#F9F7F7"/>
<path d="M90.85 64.9002H93.79L93.7 65.3502H90.26L91.24 60.4702H94.59L94.5 60.9202H91.66L90.85 64.9002ZM91.25 62.6502H93.83L93.75 63.0902H91.17L91.25 62.6502Z" fill="#F9F7F7"/>
<path d="M96.34 65.3902C96.1 65.3902 95.87 65.3602 95.64 65.3102C95.41 65.2602 95.2 65.1802 95.02 65.0902C94.83 65.0002 94.69 64.8902 94.57 64.7702L94.82 64.3702C94.93 64.4902 95.07 64.5902 95.23 64.6802C95.4 64.7702 95.58 64.8402 95.78 64.8902C95.98 64.9402 96.18 64.9602 96.38 64.9602C96.67 64.9602 96.92 64.9202 97.14 64.8502C97.36 64.7802 97.52 64.6702 97.65 64.5202C97.77 64.3802 97.83 64.2002 97.83 64.0002C97.83 63.8402 97.78 63.7102 97.69 63.6102C97.6 63.5102 97.48 63.4302 97.33 63.3702C97.18 63.3102 97.02 63.2502 96.83 63.2002C96.65 63.1502 96.47 63.0902 96.29 63.0302C96.11 62.9702 95.94 62.9002 95.79 62.8102C95.64 62.7202 95.52 62.6102 95.43 62.4602C95.34 62.3202 95.29 62.1302 95.29 61.9202C95.29 61.6102 95.37 61.3502 95.54 61.1302C95.71 60.9102 95.94 60.7402 96.23 60.6202C96.52 60.5002 96.86 60.4502 97.24 60.4502C97.53 60.4502 97.81 60.4802 98.07 60.5502C98.33 60.6202 98.56 60.7202 98.75 60.8602L98.53 61.2802C98.35 61.1502 98.15 61.0502 97.92 60.9802C97.69 60.9102 97.45 60.8802 97.2 60.8802C96.92 60.8802 96.67 60.9202 96.45 61.0002C96.24 61.0802 96.07 61.1902 95.95 61.3402C95.83 61.4902 95.77 61.6602 95.77 61.8702C95.77 62.0302 95.82 62.1702 95.91 62.2702C96 62.3702 96.12 62.4602 96.27 62.5202C96.42 62.5902 96.59 62.6402 96.77 62.7002C96.95 62.7502 97.13 62.8102 97.31 62.8702C97.49 62.9302 97.66 63.0002 97.81 63.0902C97.96 63.1802 98.08 63.2902 98.18 63.4202C98.27 63.5602 98.32 63.7302 98.32 63.9502C98.32 64.2602 98.23 64.5302 98.06 64.7502C97.89 64.9702 97.65 65.1402 97.35 65.2502C97.07 65.3302 96.73 65.3902 96.34 65.3902Z" fill="#F9F7F7"/>
<path d="M100.08 65.3502L100.97 60.9202H99.25L99.34 60.4702H103.29L103.2 60.9202H101.48L100.59 65.3502H100.08Z" fill="#F9F7F7"/>
<path d="M103.14 65.3502L104.12 60.4702H104.54L106.03 64.2802L105.81 64.2702L108.74 60.4602H109.19L108.21 65.3402H107.71L108.53 61.2202L108.66 61.2302L105.95 64.7202H105.71L104.33 61.2102L104.44 61.2302L103.62 65.3402H103.14V65.3502Z" fill="#F9F7F7"/>
<path d="M110.4 64.9002H113.34L113.25 65.3502H109.8L110.78 60.4702H114.13L114.04 60.9202H111.2L110.4 64.9002ZM110.8 62.6502H113.38L113.3 63.0902H110.72L110.8 62.6502Z" fill="#F9F7F7"/>
<path d="M114.46 65.3502L115.44 60.4702H115.86L118.32 64.7302L118.16 64.7002L119 60.4702H119.51L118.53 65.3502H118.11L115.65 61.0902L115.81 61.1202L114.97 65.3502H114.46Z" fill="#F9F7F7"/>
<path d="M121.08 65.3502L121.97 60.9202H120.25L120.34 60.4702H124.29L124.2 60.9202H122.48L121.59 65.3502H121.08Z" fill="#F9F7F7"/>
<path d="M127.22 65.3902C126.91 65.3902 126.65 65.3402 126.43 65.2502C126.21 65.1602 126.04 65.0302 125.91 64.8602C125.79 64.6902 125.73 64.5002 125.73 64.2702C125.73 64.0302 125.79 63.8202 125.91 63.6302C126.03 63.4402 126.22 63.2502 126.48 63.0702C126.74 62.8902 127.07 62.7002 127.48 62.5202C127.83 62.3602 128.11 62.2102 128.31 62.0902C128.51 61.9702 128.65 61.8502 128.73 61.7302C128.81 61.6102 128.85 61.4802 128.85 61.3302C128.85 61.1902 128.79 61.0602 128.68 60.9602C128.57 60.8602 128.41 60.8102 128.2 60.8102C127.94 60.8102 127.72 60.8802 127.56 61.0302C127.4 61.1702 127.32 61.3602 127.32 61.6002C127.32 61.7302 127.35 61.8602 127.41 61.9902C127.47 62.1302 127.57 62.2802 127.7 62.4502L129.78 65.1102L129.44 65.4302L127.28 62.6602C127.15 62.4802 127.04 62.3102 126.97 62.1502C126.9 61.9902 126.86 61.8202 126.86 61.6502C126.86 61.4002 126.92 61.1802 127.03 61.0002C127.15 60.8202 127.31 60.6802 127.51 60.5802C127.71 60.4802 127.95 60.4302 128.21 60.4302C128.42 60.4302 128.61 60.4602 128.77 60.5302C128.93 60.6002 129.05 60.7002 129.14 60.8302C129.23 60.9602 129.27 61.1102 129.27 61.2902C129.27 61.5102 129.21 61.7002 129.1 61.8702C128.99 62.0402 128.81 62.2002 128.57 62.3502C128.33 62.5002 128.02 62.6702 127.64 62.8402C127.29 63.0102 127.01 63.1602 126.8 63.3002C126.59 63.4402 126.44 63.5802 126.35 63.7202C126.26 63.8602 126.21 64.0202 126.21 64.1902C126.21 64.4202 126.3 64.6102 126.48 64.7502C126.66 64.8902 126.91 64.9702 127.24 64.9702C127.56 64.9702 127.85 64.9002 128.14 64.7702C128.42 64.6402 128.68 64.4302 128.91 64.1602C129.14 63.8902 129.33 63.5402 129.49 63.1302L129.88 63.2602C129.7 63.7302 129.47 64.1302 129.2 64.4502C128.93 64.7702 128.63 65.0102 128.29 65.1602C127.97 65.3102 127.61 65.3902 127.22 65.3902Z" fill="#F9F7F7"/>
<path d="M131.67 65.3502L134.88 60.4702H135.39L136.65 65.3502H136.13L134.99 60.7502H135.2L132.24 65.3502H131.67ZM132.81 64.0502L133.05 63.6302H135.89L135.97 64.0502H132.81Z" fill="#F9F7F7"/>
<path d="M137.45 65.3502L138.43 60.4702H140.18C140.73 60.4702 141.16 60.5902 141.47 60.8302C141.77 61.0702 141.93 61.4102 141.93 61.8502C141.93 62.2702 141.84 62.6202 141.65 62.9102C141.47 63.2002 141.21 63.4202 140.87 63.5802C140.53 63.7302 140.13 63.8102 139.66 63.8102H138.05L138.33 63.5702L137.97 65.3602H137.45V65.3502ZM138.31 63.6102L138.13 63.3602H139.66C140.21 63.3602 140.64 63.2402 140.95 62.9902C141.25 62.7402 141.41 62.3802 141.41 61.9002C141.41 61.5802 141.3 61.3402 141.08 61.1702C140.86 61.0002 140.55 60.9202 140.14 60.9202H138.63L138.9 60.6602L138.31 63.6102Z" fill="#F9F7F7"/>
<path d="M142.39 65.3502L143.37 60.4702H145.12C145.67 60.4702 146.1 60.5902 146.41 60.8302C146.71 61.0702 146.87 61.4102 146.87 61.8502C146.87 62.2702 146.78 62.6202 146.59 62.9102C146.41 63.2002 146.15 63.4202 145.81 63.5802C145.47 63.7302 145.07 63.8102 144.6 63.8102H142.99L143.27 63.5702L142.91 65.3602H142.39V65.3502ZM143.25 63.6102L143.07 63.3602H144.6C145.15 63.3602 145.58 63.2402 145.89 62.9902C146.19 62.7402 146.35 62.3802 146.35 61.9002C146.35 61.5802 146.24 61.3402 146.02 61.1702C145.8 61.0002 145.49 60.9202 145.08 60.9202H143.57L143.84 60.6602L143.25 63.6102Z" fill="#F9F7F7"/>
<path d="M147.33 65.3502L148.31 60.4702H148.82L147.93 64.9102H150.66L150.57 65.3602H147.33V65.3502Z" fill="#F9F7F7"/>
<path d="M151.44 65.3502L152.42 60.4702H152.93L151.95 65.3502H151.44Z" fill="#F9F7F7"/>
<path d="M155.84 65.3902C155.36 65.3902 154.94 65.3102 154.61 65.1402C154.27 64.9702 154.01 64.7302 153.83 64.4302C153.65 64.1302 153.56 63.7702 153.56 63.3702C153.56 62.9702 153.63 62.5902 153.77 62.2402C153.91 61.8902 154.11 61.5702 154.36 61.3002C154.62 61.0302 154.93 60.8202 155.29 60.6602C155.66 60.5102 156.07 60.4302 156.53 60.4302C156.92 60.4302 157.27 60.4902 157.57 60.6102C157.87 60.7302 158.1 60.9102 158.27 61.1402L157.91 61.4602C157.76 61.2702 157.56 61.1302 157.33 61.0302C157.1 60.9302 156.82 60.8902 156.49 60.8902C156.12 60.8902 155.79 60.9502 155.49 61.0802C155.19 61.2102 154.94 61.3902 154.73 61.6102C154.52 61.8402 154.36 62.1002 154.25 62.3902C154.14 62.6802 154.08 63.0002 154.08 63.3302C154.08 63.6402 154.15 63.9202 154.29 64.1602C154.43 64.4002 154.63 64.5902 154.9 64.7202C155.17 64.8502 155.5 64.9202 155.89 64.9202C156.21 64.9202 156.5 64.8702 156.76 64.7702C157.02 64.6702 157.25 64.5302 157.44 64.3402L157.74 64.6802C157.53 64.9102 157.25 65.0802 156.92 65.2002C156.58 65.3302 156.22 65.3902 155.84 65.3902Z" fill="#F9F7F7"/>
<path d="M157.65 65.3502L160.86 60.4702H161.37L162.63 65.3502H162.11L160.97 60.7502H161.18L158.22 65.3502H157.65ZM158.79 64.0502L159.03 63.6302H161.87L161.95 64.0502H158.79Z" fill="#F9F7F7"/>
<path d="M164.13 65.3502L165.02 60.9202H163.3L163.39 60.4702H167.34L167.25 60.9202H165.53L164.64 65.3502H164.13Z" fill="#F9F7F7"/>
<path d="M167.19 65.3502L168.17 60.4702H168.68L167.7 65.3502H167.19Z" fill="#F9F7F7"/>
<path d="M171.57 65.3902C171.09 65.3902 170.68 65.3102 170.34 65.1402C170 64.9702 169.74 64.7302 169.57 64.4302C169.4 64.1302 169.31 63.7702 169.31 63.3702C169.31 62.9702 169.38 62.5902 169.51 62.2402C169.65 61.8902 169.84 61.5702 170.1 61.3002C170.36 61.0302 170.67 60.8202 171.03 60.6602C171.39 60.5102 171.8 60.4302 172.25 60.4302C172.73 60.4302 173.14 60.5102 173.48 60.6802C173.82 60.8502 174.07 61.0902 174.25 61.3902C174.42 61.6902 174.51 62.0502 174.51 62.4502C174.51 62.8502 174.44 63.2302 174.31 63.5802C174.18 63.9302 173.98 64.2502 173.72 64.5202C173.46 64.7902 173.15 65.0002 172.79 65.1602C172.43 65.3102 172.02 65.3902 171.57 65.3902ZM171.62 64.9302C171.98 64.9302 172.31 64.8702 172.6 64.7402C172.89 64.6102 173.14 64.4302 173.35 64.2102C173.56 63.9802 173.72 63.7202 173.83 63.4302C173.94 63.1302 174 62.8202 174 62.4902C174 62.1702 173.93 61.9002 173.79 61.6602C173.65 61.4202 173.45 61.2402 173.19 61.1002C172.93 60.9702 172.59 60.9002 172.2 60.9002C171.84 60.9002 171.51 60.9602 171.22 61.0902C170.93 61.2202 170.68 61.4002 170.47 61.6202C170.26 61.8502 170.1 62.1102 169.99 62.4002C169.88 62.7002 169.82 63.0102 169.82 63.3402C169.82 63.6502 169.89 63.9302 170.03 64.1702C170.17 64.4102 170.37 64.6002 170.63 64.7302C170.89 64.8602 171.22 64.9302 171.62 64.9302Z" fill="#F9F7F7"/>
<path d="M175.15 65.3502L176.13 60.4702H176.55L179.01 64.7302L178.85 64.7002L179.69 60.4702H180.2L179.22 65.3502H178.8L176.34 61.0902L176.5 61.1202L175.66 65.3502H175.15Z" fill="#F9F7F7"/>
<path d="M119.77 49.49H77.77V50.49H119.77V49.49Z" fill="#F8F7F7"/>
<path d="M27.08 50.8699C24.63 50.3799 22.25 49.9699 19.91 49.4199C16 48.4999 12.23 47.1499 8.73999 45.1399C6.53999 43.8699 4.50999 42.3799 2.84999 40.4299C-0.920009 35.9999 -0.900009 30.8999 2.93999 26.5199C3.42999 25.9599 3.95999 25.4399 4.42999 24.9399C11.17 29.9799 19 31.7999 27.08 32.9299C27.08 38.8899 27.08 44.7799 27.08 50.8699Z" fill="#D0D2D3"/>
<path d="M54.39 47.94C54.39 47.94 54.28 47.78 54.08 47.53C53.84 47.23 53.71 47.05 53.45 46.76C53.24 46.52 52.89 46.19 52.61 45.93C52.21 45.56 51.77 45.21 51.35 44.98C51.31 45.01 51.28 45.04 51.25 45.06C50.92 45.33 49.82 46.2 48.57 46.93C46.05 48.34 43.36 49.4 40.6 50.27C38.93 50.8 37.23 51.27 35.51 51.57C33.19 51.98 30.84 52.33 28.48 52.46C27 52.54 25.51 52.6 24.03 52.64C23.96 52.64 23.89 52.65 23.81 52.65C21.33 52.75 19.4 52.77 17.88 52.75C17.62 52.75 17.36 52.76 17.1 52.76C16.63 52.76 16.17 52.73 15.7 52.69C13.46 52.57 12.82 52.36 12.82 52.36C12.82 53.11 12.82 53.64 12.82 54.17C12.82 61.57 12.82 68.97 12.82 76.37L12.81 77.76H12.8V79.97C12.8 79.97 15.34 80.05 23.88 79.9C25.34 79.87 31.28 79.31 34.23 78.57C37.52 77.74 40.73 76.76 43.77 75.27C48.68 72.86 52.9 69.69 55.77 64.88C56.77 63.21 57.39 61.44 57.61 59.58C58.14 55.23 56.9 51.33 54.39 47.94Z" fill="url(#paint0_linear_250_48)"/>
<path d="M28.75 17.3201C31.2 17.8401 33.58 18.2801 35.92 18.8701C39.83 19.8501 43.59 21.2901 47.09 23.4401C49.29 24.7901 51.32 26.3801 52.98 28.4601C56.75 33.1901 56.73 38.6201 52.9 43.3001C52.41 43.8901 51.88 44.4501 51.41 44.9801C44.67 39.6101 36.84 37.6601 28.76 36.4501C28.75 30.1001 28.75 23.8201 28.75 17.3201Z" fill="#2560D6"/>
<path d="M44.83 0.349968C41.54 0.109968 38.24 -0.0500325 34.94 0.00996751C32.05 0.0599675 29.16 0.369967 26.3 0.769967C23.54 1.14997 20.77 1.63997 18.08 2.36997C15.37 3.10997 12.68 4.02997 10.13 5.17997C7.06 6.56997 4.2 8.35997 2.11 11.14C-0.140004 14.14 -0.800004 17.32 1.17 20.66C2.09 22.21 3.48 23.57 4.52 24.93C4.54 24.91 4.56 24.9 4.58 24.88C5.19 24.28 10.54 18.71 23.89 16.35C24.02 16.32 24.14 16.29 24.27 16.26C25.56 16 26.88 15.84 28.2 15.73C33.12 15.2 38.92 15.11 45.72 15.76C45.72 10.56 45.72 5.46997 45.72 0.449968C45.4 0.399967 45.12 0.369968 44.83 0.349968Z" fill="url(#paint1_linear_250_48)"/>
</g>
<defs>
<linearGradient id="paint0_linear_250_48" x1="12.8132" y1="62.4959" x2="57.7417" y2="62.4959" gradientUnits="userSpaceOnUse">
<stop stop-color="#2560D6"/>
<stop offset="0.3973" stop-color="#255FD4"/>
<stop offset="0.5564" stop-color="#245BCD"/>
<stop offset="0.6728" stop-color="#2455C1"/>
<stop offset="0.7677" stop-color="#224BB0"/>
<stop offset="0.8474" stop-color="#21409A"/>
<stop offset="0.8675" stop-color="#20398D"/>
<stop offset="0.9206" stop-color="#1E2A70"/>
<stop offset="0.9666" stop-color="#1D205E"/>
<stop offset="1" stop-color="#1D1D58"/>
</linearGradient>
<linearGradient id="paint1_linear_250_48" x1="-3.87924e-06" y1="12.4686" x2="45.716" y2="12.4686" gradientUnits="userSpaceOnUse">
<stop stop-color="#8149FA"/>
<stop offset="1" stop-color="#F3257B"/>
</linearGradient>
<clipPath id="clip0_250_48">
<rect width="180.19" height="80.01" fill="white"/>
</clipPath>
</defs>
</svg>
