<svg width="242" height="46" viewBox="0 0 242 46" fill="none" xmlns="http://www.w3.org/2000/svg">
<path d="M23.6076 46.0003C23.0743 45.9884 22.541 45.9935 22.0094 45.9593C21.4787 45.9251 20.948 45.8687 20.4224 45.7901C19.3549 45.632 18.302 45.4038 17.267 45.0927C14.551 44.2774 12.0999 42.9553 9.85652 41.2366C8.10025 39.8905 6.53968 38.3488 5.22355 36.5669C3.50488 34.2414 2.31266 31.6673 1.61015 28.8649C1.3606 27.871 1.17344 26.8651 1.04439 25.8498C0.892262 24.6567 0.839275 23.4568 0.86235 22.2535C0.915337 19.4058 1.50076 16.6753 2.63828 14.0644C4.00655 10.9253 5.97392 8.20756 8.48825 5.8915C10.8556 3.71048 13.5955 2.16017 16.6585 1.17392C17.8567 0.788482 19.0772 0.50047 20.3172 0.292794C20.6531 0.236388 20.9958 0.22015 21.3351 0.186819C21.824 0.138105 22.312 0.0705892 22.8017 0.0466594C23.429 0.0167472 24.0588 -0.00290937 24.6853 0.0193111C25.2707 0.040677 25.8536 0.123576 26.4381 0.179128C27.4996 0.27912 28.5457 0.473122 29.5798 0.730367C32.5086 1.45937 35.1785 2.73448 37.5885 4.54887C39.7687 6.18977 41.648 8.11953 43.1599 10.3971C44.6495 12.6414 45.6682 15.0839 46.2588 17.7094C46.4622 18.6153 46.6083 19.5315 46.728 20.451C46.7878 20.91 46.8032 21.3758 46.8331 21.839C46.8587 22.2338 46.8904 22.6295 46.8972 23.0252C46.9117 23.9003 46.8425 24.7712 46.7596 25.6412C46.5571 27.7787 46.0101 29.8281 45.1794 31.8031C44.3701 33.7295 43.2898 35.4969 42.007 37.1429C40.8686 38.6035 39.5944 39.9324 38.1492 41.0939C35.9066 42.8972 33.4025 44.2005 30.6404 45.0081C29.5251 45.3346 28.391 45.5687 27.2415 45.7388C26.0356 45.9174 24.8263 46.0003 23.6084 45.9995L23.6076 46.0003ZM27.1945 30.3528C27.1141 30.246 27.0612 30.1887 27.0227 30.1221C26.5774 29.3444 26.4988 28.5188 26.7569 27.671C27.1261 26.4574 27.9594 25.7045 29.1747 25.3951C29.6216 25.2814 29.6447 25.2327 29.6447 24.7909C29.6447 23.6294 29.6473 22.468 29.6473 21.3065C29.6473 20.7715 29.6225 20.7399 29.1089 20.6143C27.1731 20.1417 26.2347 18.1478 26.7843 16.4796C27.197 15.2258 28.5533 14.0174 30.3011 14.2814C31.4036 14.4481 32.2231 15.0147 32.7393 16.0087C33.0188 16.5462 33.0932 17.124 33.0641 17.7188C33.053 17.9359 33.0342 18.1564 32.9786 18.3649C32.7693 19.1546 32.2924 19.7502 31.6078 20.1861C31.2702 20.4006 30.9002 20.5357 30.5122 20.6314C30.1643 20.7168 30.0985 20.8126 30.0891 21.1766C30.0891 21.204 30.0891 21.2313 30.0891 21.2587C30.0891 22.4475 30.0891 23.6363 30.0908 24.8251C30.0908 24.9208 30.0951 25.0165 30.0994 25.1114C30.1045 25.219 30.1652 25.2934 30.2618 25.3267C30.4036 25.3754 30.5506 25.4079 30.6942 25.4507C31.9052 25.8113 32.7 26.5813 33.0034 27.8214C33.0915 28.1812 33.0872 28.5521 33.0667 28.9222C33.0282 29.6221 32.7479 30.2187 32.2761 30.722C31.6061 31.4374 30.7728 31.7861 29.79 31.7861C24.9784 31.7843 20.1668 31.7861 15.3552 31.7843C15.2048 31.7843 15.0544 31.7861 14.9048 31.7732C14.8425 31.7681 14.7835 31.7279 14.7245 31.704C14.7177 31.4929 14.863 31.3946 14.9766 31.2835C15.4253 30.8434 15.88 30.4092 16.3321 29.9725C17.9431 28.4145 19.5617 26.8634 21.1625 25.2951C21.8163 24.655 22.4316 23.9764 23.0615 23.3115C23.1435 23.2252 23.2461 23.1431 23.2427 22.9833C23.1991 22.9175 23.1504 22.8355 23.0931 22.7603C22.153 21.5467 21.5547 20.1887 21.359 18.6606C21.3437 18.5426 21.3334 18.4179 21.2009 18.3187C21.1385 18.3914 21.071 18.4538 21.0232 18.5298C20.8779 18.7614 20.742 18.9982 20.6001 19.2315C20.3711 19.6075 20.095 19.9425 19.7711 20.2417C19.1994 20.7698 18.6319 21.3048 18.0713 21.845C16.4569 23.4004 14.8467 24.9584 13.2357 26.5172C12.5187 27.2112 11.8008 27.9035 11.0906 28.6043C10.3522 29.3324 10.0001 30.2246 9.99839 31.2579C9.99582 32.4604 9.99497 33.6628 10.001 34.8653C10.0018 35.0679 10.0274 35.2738 10.0676 35.4729C10.1685 35.9678 10.4847 36.2472 10.971 36.3643C11.2145 36.4224 11.4572 36.4276 11.7034 36.4276C17.0893 36.4267 22.4752 36.4284 27.8602 36.4207C28.7747 36.419 29.69 36.4626 30.6045 36.3592C31.3001 36.2806 31.9856 36.1618 32.6376 35.9097C34.9144 35.0285 36.4485 33.4124 37.2894 31.1357C37.7176 29.9759 37.8552 28.7743 37.674 27.5488C37.4321 25.9122 36.7689 24.467 35.6528 23.2363C35.5998 23.1773 35.5571 23.1098 35.5024 23.0355C35.5605 22.9594 35.6066 22.8936 35.6571 22.8321C35.7699 22.6953 35.8887 22.5628 35.9989 22.4235C36.9245 21.2638 37.492 19.946 37.6723 18.476C37.7842 17.5641 37.7415 16.6496 37.5296 15.7497C37.1629 14.1934 36.4382 12.8294 35.2579 11.7466C33.3179 9.96896 31.0138 9.32029 28.4337 9.75445C26.2766 10.1177 24.5921 11.2783 23.3538 13.0653C22.2692 14.6301 21.8693 16.3804 22.0376 18.2743C22.1342 19.3563 22.4684 20.3545 22.9957 21.2946C23.2973 21.833 23.6657 22.3244 24.0691 22.791C24.1289 22.8603 24.1776 22.9397 24.2383 23.0235C24.152 23.1346 24.0785 23.2312 24.0033 23.326C23.8674 23.497 23.7247 23.6628 23.5931 23.838C22.5427 25.237 21.9872 26.8087 21.9915 28.5615C21.9932 29.258 22.112 29.9443 22.2726 30.6255C22.4043 31.1852 22.6136 31.3314 23.1939 31.328C24.793 31.3194 26.3928 31.3237 27.9918 31.3169C28.2098 31.3169 28.4294 31.2989 28.6439 31.2647C29.1815 31.1801 29.5746 30.6947 29.5763 30.1298C29.5781 29.576 29.1738 29.0786 28.6474 28.9863C28.0867 28.888 27.444 29.3068 27.2962 29.8708C27.2594 30.0101 27.2364 30.1537 27.1962 30.3503L27.1945 30.3528ZM23.3127 11.8415C23.264 11.7577 23.2495 11.7167 23.2221 11.6885C23.1367 11.6005 23.0495 11.5133 22.9563 11.4338C21.23 9.97922 19.2225 9.44763 17.0047 9.66813C16.0184 9.76641 15.0852 10.0792 14.2109 10.5518C12.6153 11.4141 11.4504 12.673 10.7394 14.3438C10.406 15.1275 10.2266 15.9471 10.1368 16.7966C10.0334 17.7778 10.1334 18.7324 10.389 19.6733C10.7881 21.1407 11.6205 22.3398 12.7401 23.3491C13.2118 23.7747 13.1742 23.7645 13.6212 23.3329C14.4861 22.4979 15.3492 21.6612 16.2124 20.8245C16.556 20.4912 16.8961 20.1562 17.2363 19.8203C17.426 19.6332 17.561 19.4135 17.5961 19.146C17.6764 18.5324 17.2859 17.9931 16.7038 17.8564C16.0885 17.7111 15.4971 18.0538 15.3168 18.6469C15.2715 18.7973 15.2527 18.9554 15.2202 19.1178C14.9536 18.752 14.7698 18.2521 14.7279 17.8342C14.6425 16.9778 14.8801 16.2121 15.3689 15.5181C15.7338 15.001 16.2133 14.6327 16.8192 14.4319C17.432 14.2285 18.0584 14.225 18.6815 14.3378C19.5993 14.5036 20.2702 15.0344 20.7215 15.8412C20.8608 16.0907 20.9625 16.3608 21.089 16.6172C21.1138 16.6676 21.1736 16.7001 21.2454 16.7684C21.277 16.6633 21.2992 16.6009 21.3137 16.536C21.3351 16.4428 21.3548 16.3497 21.3676 16.2548C21.4812 15.395 21.706 14.5677 22.1282 13.8071C22.4265 13.2704 22.7598 12.7542 23.0777 12.2286C23.1546 12.1013 23.2315 11.9748 23.3127 11.8415Z" fill="black"/>
<path d="M120.771 0.372816C120.911 0.365979 121.032 0.355723 121.154 0.355723C122.274 0.354869 123.395 0.354014 124.516 0.355723C124.922 0.355723 124.924 0.356578 125.135 0.700141C126.766 3.35292 128.398 6.00571 130.028 8.65849C130.765 9.85669 131.502 11.0557 132.241 12.2531C132.318 12.3779 132.379 12.5189 132.506 12.5907C132.652 12.5633 132.657 12.459 132.656 12.3667C132.653 11.9984 132.643 11.6292 132.632 11.2609C132.627 11.0703 132.608 10.8788 132.606 10.6882C132.595 9.66354 132.592 8.63883 132.577 7.61413C132.55 5.89375 132.519 4.17252 132.485 2.45214C132.474 1.89236 132.447 1.33342 132.438 0.773639C132.431 0.368543 132.446 0.357432 132.848 0.357432C134.119 0.355723 135.389 0.357432 136.66 0.357432C136.674 0.357432 136.688 0.357432 136.701 0.357432C137.038 0.365979 137.068 0.395891 137.079 0.739454C137.082 0.835173 137.08 0.930892 137.08 1.02661C137.08 7.06545 137.08 13.1034 137.08 19.1423C137.08 19.2517 137.082 19.3611 137.078 19.4705C137.065 19.7636 137.025 19.8046 136.747 19.8166C136.692 19.8192 136.637 19.8174 136.582 19.8174C135.476 19.8174 134.368 19.8174 133.261 19.8174C133.179 19.8174 133.097 19.8149 133.015 19.814C132.896 19.814 132.808 19.7593 132.747 19.6568C132.698 19.5747 132.645 19.4944 132.595 19.4141C130.282 15.7212 127.969 12.0283 125.655 8.3363C125.583 8.22177 125.5 8.11238 125.416 8.00726C125.374 7.95513 125.264 7.98931 125.253 8.05598C125.241 8.13631 125.233 8.21836 125.233 8.29955C125.244 9.97976 125.227 11.6608 125.276 13.3402C125.335 15.3477 125.296 17.3561 125.341 19.3636C125.341 19.4047 125.342 19.4457 125.341 19.4867C125.329 19.7704 125.292 19.8149 124.997 19.8157C123.671 19.8192 122.346 19.8174 121.02 19.8174C120.993 19.8174 120.966 19.8174 120.938 19.8149C120.769 19.8004 120.716 19.7534 120.705 19.5927C120.697 19.4841 120.701 19.3739 120.701 19.2645C120.701 13.1436 120.701 7.02358 120.702 0.902689C120.702 0.742018 120.675 0.576219 120.767 0.376234L120.771 0.372816Z" fill="black"/>
<path d="M178.272 30.9784C178.384 31.4758 178.237 31.9476 178.374 32.398C178.379 32.4151 178.419 32.4211 178.469 32.445C178.517 32.3946 178.58 32.345 178.622 32.2809C179.291 31.2502 180.269 30.7246 181.455 30.5178C181.999 30.4229 182.546 30.4127 183.088 30.4622C183.95 30.5409 184.733 30.8485 185.405 31.4066C185.84 31.7681 186.197 32.1963 186.497 32.6749C186.567 32.7877 186.606 32.9287 186.77 32.9928C186.82 32.9424 186.882 32.892 186.93 32.8304C187.065 32.6586 187.189 32.4783 187.328 32.3099C188.143 31.322 189.173 30.7041 190.449 30.5135C191.394 30.3725 192.332 30.3956 193.244 30.6938C195.029 31.2776 196.104 32.5373 196.592 34.3192C196.715 34.7653 196.765 35.2302 196.771 35.6969C196.775 36.0797 196.788 36.4618 196.788 36.8446C196.79 39.4949 196.788 42.1459 196.788 44.7962C196.788 44.8919 196.79 44.9876 196.788 45.0833C196.779 45.4653 196.755 45.4935 196.356 45.4952C195.235 45.4987 194.114 45.497 192.993 45.4961C192.925 45.4961 192.857 45.4961 192.788 45.4901C192.626 45.4747 192.569 45.4217 192.558 45.2611C192.548 45.1252 192.552 44.9876 192.552 44.8517C192.552 42.5015 192.551 40.1521 192.552 37.8018C192.552 37.254 192.504 36.7113 192.392 36.1755C192.356 36.0028 192.3 35.8319 192.237 35.6678C191.997 35.0456 191.531 34.673 190.897 34.5123C190.355 34.3747 189.813 34.4132 189.28 34.5781C188.73 34.7491 188.329 35.0986 188.071 35.614C187.891 35.9738 187.797 36.3592 187.755 36.7523C187.714 37.1455 187.696 37.5429 187.696 37.9377C187.69 40.2469 187.693 42.5553 187.692 44.8645C187.692 45.0013 187.692 45.138 187.68 45.2739C187.667 45.4098 187.605 45.4705 187.473 45.485C187.379 45.4952 187.283 45.4961 187.187 45.4961C186.108 45.4961 185.027 45.4961 183.948 45.4961C183.907 45.4961 183.866 45.4961 183.825 45.4961C183.484 45.485 183.457 45.4611 183.453 45.1132C183.449 44.703 183.452 44.2936 183.452 43.8834C183.452 41.793 183.451 39.7025 183.453 37.6121C183.453 37.1044 183.405 36.6036 183.287 36.1105C183.219 35.831 183.117 35.5627 182.958 35.32C182.658 34.8602 182.235 34.597 181.697 34.4858C181.257 34.3953 180.824 34.4243 180.398 34.532C179.546 34.7474 179.054 35.3336 178.82 36.1507C178.689 36.6113 178.632 37.0848 178.634 37.5668C178.64 39.1376 178.636 40.7093 178.636 42.2801C178.636 43.1681 178.636 44.056 178.636 44.944C178.636 45.0534 178.638 45.1628 178.631 45.2713C178.622 45.4141 178.568 45.4713 178.433 45.485C178.338 45.4952 178.243 45.4944 178.147 45.4944C177.054 45.4944 175.96 45.4927 174.867 45.4952C174.332 45.497 174.356 45.4645 174.356 44.9628C174.356 40.4538 174.356 35.9456 174.356 31.4365C174.356 31.3271 174.356 31.2177 174.366 31.1092C174.374 31.0186 174.436 30.9622 174.527 30.9502C174.594 30.9408 174.662 30.9408 174.731 30.9408C175.81 30.9408 176.89 30.94 177.97 30.9425C178.062 30.9425 178.154 30.9639 178.273 30.9784H178.272Z" fill="black"/>
<path d="M151.785 0.366881C151.929 0.362608 152.064 0.355771 152.199 0.355771C153.497 0.355771 154.796 0.354916 156.095 0.355771C156.569 0.355771 156.571 0.358335 156.571 0.831802C156.571 6.99457 156.571 13.1565 156.571 19.3192C156.571 19.4286 156.571 19.538 156.56 19.6466C156.551 19.738 156.489 19.7927 156.398 19.8038C156.317 19.8132 156.235 19.8141 156.153 19.8141C154.814 19.8141 153.473 19.8149 152.134 19.8141C152.015 19.8141 151.895 19.7978 151.76 19.7876C151.739 19.6876 151.715 19.6107 151.71 19.5329C151.703 19.4107 151.707 19.2868 151.707 19.1637C151.707 17.0186 151.707 14.8734 151.707 12.7283C151.707 12.6189 151.709 12.5095 151.706 12.4001C151.697 12.0335 151.651 11.989 151.271 11.9728C151.203 11.9702 151.134 11.9711 151.066 11.9711C149.303 11.9711 147.54 11.9711 145.776 11.972C145.587 11.972 145.391 11.9446 145.214 12.0549C145.131 12.207 145.164 12.3745 145.164 12.536C145.161 14.7632 145.162 16.9904 145.162 19.2175C145.162 19.3406 145.167 19.4637 145.156 19.5859C145.151 19.65 145.117 19.7115 145.09 19.7936C144.961 19.8013 144.841 19.8141 144.72 19.8141C143.395 19.8158 142.068 19.8149 140.743 19.8141C140.688 19.8141 140.633 19.8149 140.579 19.8124C140.347 19.7995 140.304 19.7551 140.291 19.5115C140.285 19.4021 140.288 19.2928 140.288 19.1834C140.288 13.1163 140.288 7.04926 140.288 0.983072C140.288 0.860005 140.286 0.736938 140.294 0.614725C140.307 0.422432 140.357 0.372009 140.541 0.359189C140.623 0.353207 140.705 0.355771 140.787 0.355771C142.085 0.355771 143.385 0.355771 144.683 0.355771C145.16 0.355771 145.162 0.358335 145.163 0.831802C145.164 2.92224 145.163 5.01267 145.163 7.10396C145.163 7.22703 145.16 7.3501 145.168 7.47316C145.179 7.65435 145.234 7.70819 145.424 7.72357C145.532 7.73297 145.642 7.73041 145.752 7.73041C147.542 7.73041 149.333 7.73041 151.124 7.73041C151.233 7.73041 151.343 7.73297 151.452 7.72272C151.627 7.70648 151.688 7.64323 151.702 7.45949C151.712 7.3236 151.709 7.18601 151.709 7.05012C151.709 5.00071 151.709 2.95129 151.71 0.901027C151.71 0.740356 151.679 0.573702 151.786 0.367736L151.785 0.366881Z" fill="black"/>
<path d="M73.1456 12.0814C73.1336 12.3506 73.1114 12.6224 73.1114 12.8933C73.1088 14.9837 73.1097 17.075 73.1097 19.1654C73.1097 19.3022 73.1114 19.4389 73.1003 19.5748C73.0866 19.7372 73.0268 19.7945 72.8712 19.8081C72.7764 19.8167 72.6798 19.8141 72.5841 19.8141C71.3124 19.8141 70.0415 19.8141 68.7699 19.8141C68.6605 19.8141 68.5511 19.8141 68.4425 19.8013C68.3519 19.791 68.2981 19.7287 68.2827 19.6398C68.2733 19.5859 68.269 19.5312 68.2673 19.4765C68.2648 19.3671 68.2648 19.2577 68.2648 19.1484C68.2648 13.1087 68.2648 7.06896 68.2648 1.0284C68.2648 0.891662 68.2613 0.754921 68.2707 0.619034C68.2844 0.414776 68.3374 0.367772 68.5545 0.356661C68.6502 0.352388 68.7459 0.354097 68.8416 0.354097C70.0723 0.354097 71.3021 0.354097 72.5328 0.354097C73.0909 0.354097 73.1114 0.323331 73.1105 0.951487C73.108 2.9462 73.1088 4.94177 73.1105 6.93649C73.1105 7.18006 73.096 7.42705 73.1917 7.65438C73.3644 7.76292 73.5464 7.72703 73.7216 7.72703C75.1565 7.72959 76.5923 7.72873 78.0272 7.72873C78.4101 7.72873 78.793 7.72959 79.1759 7.72788C79.2853 7.72788 79.3947 7.72361 79.5023 7.70822C79.5895 7.6954 79.6562 7.63302 79.6656 7.54584C79.6818 7.39714 79.6861 7.24587 79.6861 7.09631C79.687 5.04689 79.6861 2.99663 79.687 0.947213C79.687 0.824146 79.6844 0.701079 79.6921 0.578012C79.7032 0.418195 79.7579 0.369481 79.9271 0.357516C80.0091 0.352388 80.0912 0.354097 80.1732 0.354097C81.4714 0.354097 82.7705 0.354097 84.0687 0.354097C84.549 0.354097 84.5515 0.355807 84.5515 0.823292C84.5515 6.99973 84.5515 13.1762 84.5515 19.3526C84.5515 19.8081 84.549 19.8116 84.0986 19.8116C82.773 19.8133 81.4466 19.8133 80.1211 19.8116C79.6998 19.8116 79.6878 19.7987 79.6878 19.3714C79.6861 17.1442 79.6878 14.9171 79.687 12.689C79.687 12.566 79.6904 12.4429 79.6835 12.3198C79.6699 12.0498 79.6143 11.9959 79.3365 11.9728C79.2682 11.9669 79.1998 11.9677 79.1314 11.9677C77.3136 11.9677 75.495 11.9677 73.6772 11.9677C73.5156 11.9677 73.3481 11.9498 73.1464 12.0771L73.1456 12.0814Z" fill="black"/>
<path d="M185.468 9.05849C185.361 8.96106 185.262 8.86962 185.162 8.77988C184.7 8.36538 184.31 7.89619 184.037 7.33384C183.765 6.77149 183.635 6.17837 183.618 5.55535C183.598 4.8366 183.706 4.14007 183.959 3.46748C184.359 2.40517 185.083 1.60437 186.015 0.983909C186.936 0.371991 187.955 0.0549219 189.059 0.0147541C189.798 -0.0125942 190.533 0.000225314 191.255 0.190809C192.671 0.564284 193.816 1.33004 194.647 2.54191C195.063 3.1487 195.301 3.82642 195.401 4.55628C195.514 5.38186 195.473 6.19034 195.175 6.97489C194.904 7.69364 194.451 8.28505 193.885 8.79612C193.787 8.88415 193.652 8.94482 193.626 9.12601C193.681 9.16788 193.738 9.22258 193.804 9.26018C194.018 9.38154 194.242 9.48581 194.45 9.61742C195.347 10.1866 195.986 10.9669 196.307 11.9848C196.729 13.324 196.754 14.6692 196.291 16.0058C195.966 16.9468 195.387 17.7151 194.637 18.3578C193.576 19.2671 192.364 19.8585 190.977 20.0756C190.261 20.1875 189.545 20.2286 188.816 20.1628C187.767 20.0679 186.774 19.8012 185.847 19.3056C184.856 18.7757 184.005 18.0792 183.369 17.1442C182.777 16.275 182.477 15.3118 182.461 14.2572C182.451 13.5992 182.486 12.9462 182.661 12.3087C183.024 10.984 183.822 10.0088 185.04 9.37556C185.162 9.31232 185.281 9.24736 185.399 9.17814C185.419 9.16703 185.426 9.13284 185.467 9.05678L185.468 9.05849ZM187.303 13.6274C187.31 14.0043 187.378 14.3649 187.505 14.7136C187.65 15.1127 187.902 15.4315 188.28 15.6306C188.829 15.9195 189.419 16.0195 190.024 15.8845C190.875 15.6947 191.399 15.1307 191.65 14.3196C191.823 13.7581 191.777 13.1872 191.606 12.6274C191.418 12.0189 191.011 11.6284 190.405 11.448C189.857 11.2848 189.303 11.2805 188.75 11.425C188.019 11.6156 187.573 12.0865 187.417 12.8206C187.361 13.0855 187.34 13.3582 187.303 13.6274ZM189.586 3.87599C189.331 3.91616 189.072 3.93496 188.824 4.00077C188.299 4.14093 187.942 4.47936 187.78 5.00069C187.61 5.55107 187.626 6.10231 187.819 6.64586C187.97 7.07147 188.262 7.36204 188.686 7.50904C189.274 7.7133 189.865 7.70475 190.444 7.474C190.773 7.34324 191.03 7.11847 191.176 6.79542C191.476 6.13052 191.502 5.45279 191.219 4.77421C191.082 4.44432 190.835 4.21528 190.506 4.07854C190.214 3.95633 189.91 3.88881 189.586 3.87599Z" fill="black"/>
<path d="M119.01 19.7705C118.875 19.7902 118.798 19.8098 118.719 19.8124C117.358 19.8585 114.157 19.8312 113.802 19.7714C113.701 19.6756 113.675 19.5389 113.632 19.4107C113.414 18.7646 113.196 18.1185 112.978 17.4724C112.813 16.9861 112.809 16.9793 112.278 16.9784C110.338 16.9759 108.398 16.9776 106.458 16.9776C106.417 16.9776 106.376 16.9776 106.335 16.9784C105.935 16.9921 105.915 17.0049 105.776 17.3827C105.535 18.0356 105.3 18.6911 105.059 19.3432C105.003 19.4936 104.976 19.6628 104.847 19.7739C104.5 19.8269 100.093 19.8295 99.729 19.7773C99.6632 19.6295 99.7683 19.5133 99.8145 19.3945C100.144 18.5561 100.485 17.722 100.82 16.8861C102.965 11.5412 105.109 6.1955 107.253 0.85062C107.478 0.290835 107.436 0.357496 107.992 0.354932C108.921 0.352369 109.85 0.354932 110.779 0.354932C110.847 0.354932 110.916 0.36177 110.984 0.354078C111.226 0.324166 111.353 0.43014 111.442 0.658328C111.927 1.90438 112.426 3.14531 112.921 4.38795C114.626 8.67394 116.331 12.9599 118.036 17.2459C118.323 17.9689 118.612 18.6911 118.898 19.415C118.937 19.5133 118.963 19.6175 119.01 19.7697L119.01 19.7705ZM111.433 13.1018C111.484 12.9078 111.414 12.7557 111.367 12.6001C111.031 11.4763 110.695 10.3516 110.356 9.2286C110.092 8.35345 109.825 7.47916 109.56 6.60487C109.529 6.50232 109.511 6.37156 109.373 6.38096C109.257 6.38865 109.252 6.51343 109.225 6.60231C109.049 7.17577 108.871 7.74923 108.698 8.3244C108.265 9.76103 107.834 11.1985 107.403 12.636C107.36 12.777 107.293 12.9163 107.34 13.0975C107.424 13.1138 107.513 13.1462 107.603 13.1462C108.792 13.1497 109.98 13.1497 111.169 13.1462C111.26 13.1462 111.349 13.1163 111.433 13.1009V13.1018Z" fill="black"/>
<path d="M174.066 15.6784C174.168 15.7109 174.229 15.7417 174.292 15.7468C174.427 15.7571 174.565 15.7554 174.701 15.7554C176.478 15.7554 178.254 15.7554 180.031 15.7562C180.168 15.7562 180.305 15.7596 180.441 15.7707C180.53 15.7784 180.592 15.8357 180.604 15.9271C180.615 16.0083 180.618 16.0904 180.618 16.1724C180.619 17.2518 180.62 18.3312 180.618 19.4106C180.618 19.5183 180.601 19.6251 180.591 19.7465C180.502 19.7704 180.428 19.8012 180.35 19.8089C180.241 19.8191 180.131 19.814 180.022 19.814C175.867 19.814 171.711 19.814 167.556 19.814C166.929 19.814 166.953 19.8516 166.954 19.2106C166.954 18.309 166.954 17.4074 166.954 16.5049C166.954 16.3955 166.956 16.2861 166.96 16.1767C166.963 16.075 167.007 15.9921 167.09 15.934C167.191 15.8639 167.294 15.7955 167.396 15.728C168.469 15.0212 169.533 14.3025 170.534 13.4931C171.911 12.3787 173.151 11.1335 174.195 9.69857C174.646 9.07811 175.04 8.42517 175.323 7.70727C175.495 7.27141 175.589 6.81845 175.635 6.35524C175.666 6.03903 175.609 5.72794 175.525 5.42454C175.364 4.84767 174.979 4.49128 174.408 4.33489C173.964 4.21353 173.515 4.20926 173.071 4.33147C172.575 4.46821 172.194 4.76733 171.932 5.21003C171.706 5.59034 171.573 6.00484 171.503 6.43985C171.466 6.66889 171.444 6.89964 171.414 7.12954C171.395 7.27568 171.347 7.32696 171.21 7.33722C171.115 7.34491 171.018 7.34234 170.923 7.34234C169.706 7.34234 168.489 7.34234 167.273 7.34234C167.205 7.34234 167.137 7.34405 167.068 7.34063C166.837 7.32952 166.787 7.2791 166.787 7.03809C166.785 6.28345 166.878 5.53821 167.082 4.81263C167.715 2.5581 169.172 1.08813 171.387 0.359984C172.185 0.100175 173.009 0.00531072 173.849 0.000182916C174.871 -0.00579952 175.863 0.13436 176.817 0.509545C178.09 1.01121 179.118 1.80773 179.808 3.00849C180.146 3.59563 180.349 4.2272 180.447 4.89638C180.626 6.10569 180.394 7.26115 179.979 8.38842C179.652 9.27809 179.183 10.0943 178.634 10.866C177.902 11.895 177.055 12.8223 176.143 13.6897C175.559 14.2452 174.956 14.7802 174.36 15.3246C174.261 15.4152 174.146 15.4921 174.065 15.6784H174.066Z" fill="black"/>
<path d="M142.386 32.5183C142.419 32.3371 142.442 32.261 142.444 32.185C142.449 31.9525 142.448 31.7209 142.446 31.4884C142.442 30.9116 142.429 30.9389 143.015 30.9398C143.371 30.9406 143.726 30.9398 144.081 30.9398C144.791 30.9398 145.502 30.9398 146.213 30.9398C146.322 30.9398 146.431 30.9389 146.54 30.9483C146.653 30.9577 146.709 31.0184 146.718 31.1338C146.726 31.2286 146.725 31.3252 146.725 31.4201C146.725 35.9419 146.725 40.4638 146.725 44.9857C146.725 45.4899 146.724 45.4925 146.233 45.4933C145.14 45.495 144.047 45.495 142.953 45.4933C142.447 45.4933 142.446 45.4908 142.444 45.0011C142.444 44.7686 142.446 44.5361 142.443 44.3045C142.441 44.2114 142.428 44.1174 142.417 43.9883C142.337 44.0199 142.274 44.0311 142.23 44.0661C142.189 44.0977 142.167 44.1541 142.137 44.1994C141.743 44.8028 141.193 45.2181 140.541 45.5027C139.885 45.789 139.201 45.9617 138.481 45.9865C137.491 46.0206 136.518 45.9531 135.569 45.6378C134.341 45.2301 133.327 44.5156 132.506 43.5268C131.632 42.4739 131.092 41.2646 130.868 39.9151C130.757 39.2537 130.691 38.5887 130.716 37.9179C130.801 35.7403 131.53 33.8361 133.134 32.3149C134.186 31.3184 135.43 30.7167 136.872 30.515C137.459 30.433 138.046 30.4133 138.629 30.4586C139.598 30.5338 140.502 30.827 141.3 31.3996C141.613 31.6243 141.88 31.897 142.11 32.2055C142.173 32.2892 142.248 32.3636 142.384 32.5174L142.386 32.5183ZM142.446 38.2375C142.446 38.1691 142.447 38.1008 142.446 38.0324C142.421 36.8684 141.952 35.9197 141.048 35.1907C140.323 34.607 139.479 34.3805 138.561 34.4104C137.495 34.4446 136.594 34.848 135.908 35.6744C134.989 36.7812 134.768 38.052 135.166 39.4083C135.535 40.6612 136.394 41.4766 137.639 41.8799C138.049 42.0124 138.47 42.0218 138.895 42.0167C139.843 42.0056 140.655 41.6629 141.329 41.0048C142.103 40.2484 142.46 39.316 142.446 38.2383V38.2375Z" fill="black"/>
<path d="M60.3141 30.3183C60.1962 30.7029 60.1868 31.0191 60.221 32.9839C60.2235 33.1326 60.2073 33.2865 60.3073 33.4249C60.4372 33.5155 60.5919 33.4822 60.7389 33.4822C61.8046 33.4856 62.8712 33.4839 63.9369 33.4839C64.5386 33.4839 65.1394 33.4813 65.741 33.4847C66.0855 33.4864 66.1179 33.5155 66.1188 33.8599C66.1231 35.035 66.1205 36.2102 66.1196 37.3853C66.1196 37.44 66.1188 37.4947 66.1119 37.5485C66.0949 37.6861 66.0385 37.7459 65.9051 37.7571C65.7966 37.7656 65.6863 37.763 65.5769 37.763C63.9916 37.763 62.4063 37.763 60.8209 37.763C60.6585 37.763 60.4961 37.7707 60.3568 37.7741C60.2278 37.8878 60.2252 38.0126 60.2235 38.134C60.2192 38.3801 60.2201 38.6254 60.2201 38.8715C60.2201 39.445 60.2201 40.0193 60.2201 40.5927C60.2201 40.7021 60.2175 40.8115 60.2261 40.9201C60.2457 41.1722 60.3056 41.2337 60.5483 41.2499C60.6705 41.2585 60.7944 41.2551 60.9175 41.2551C62.5302 41.2551 64.1429 41.2551 65.7556 41.2551C65.8786 41.2551 66.0017 41.2534 66.1239 41.2628C66.2649 41.2739 66.3213 41.3311 66.3341 41.4653C66.341 41.5328 66.3393 41.6021 66.3393 41.6704C66.3393 42.8045 66.341 43.9386 66.3393 45.0727C66.3393 45.4701 66.3205 45.4898 65.9231 45.4915C65.1026 45.4949 64.283 45.4932 63.4626 45.4932C61.0568 45.4932 58.6518 45.4932 56.2461 45.4932C56.123 45.4932 55.9999 45.4966 55.8768 45.4906C55.6307 45.4787 55.588 45.4368 55.5769 45.2035C55.5726 45.1214 55.5752 45.0394 55.5752 44.9573C55.5752 38.8228 55.5752 32.6882 55.5752 26.5537C55.5752 26.4443 55.5735 26.3349 55.582 26.2263C55.5931 26.0904 55.6495 26.0375 55.7931 26.0272C55.888 26.0204 55.9845 26.0229 56.0803 26.0229C59.333 26.0229 62.5857 26.0229 65.8385 26.0229C66.3384 26.0229 66.3393 26.0246 66.3393 26.5161C66.3393 27.6091 66.3367 28.7022 66.341 29.7953C66.3427 30.32 66.3359 30.3029 65.8111 30.3021C64.1437 30.3004 62.4763 30.3012 60.8089 30.3021C60.6474 30.3021 60.485 30.3115 60.3133 30.3166L60.3141 30.3183Z" fill="black"/>
<path d="M98.3838 4.55492C98.2556 4.66687 98.0983 4.63012 97.9522 4.63098C96.8856 4.63354 95.8199 4.63269 94.7533 4.63269C94.0833 4.63269 93.4132 4.63012 92.7441 4.6344C92.4022 4.63696 92.3603 4.67286 92.3578 5.00787C92.3518 5.81379 92.3552 6.62057 92.3561 7.42649C92.3561 7.48118 92.3595 7.53588 92.368 7.58972C92.3877 7.7145 92.4526 7.78201 92.5851 7.79483C92.721 7.80765 92.8577 7.80765 92.9945 7.80765C94.567 7.80765 96.1387 7.80765 97.7112 7.80936C97.8719 7.80936 98.0385 7.7786 98.2129 7.87175C98.2257 7.94269 98.2522 8.02046 98.2522 8.09823C98.2547 9.3007 98.2547 10.5032 98.2539 11.7056C98.2539 11.7603 98.2522 11.8159 98.2436 11.8689C98.2282 11.9586 98.1718 12.0201 98.0812 12.0287C97.9454 12.0415 97.8086 12.0466 97.6727 12.0466C96.1276 12.0475 94.5832 12.0466 93.0381 12.0483C92.8876 12.0483 92.7372 12.0509 92.5885 12.0689C92.4355 12.0877 92.3808 12.1543 92.3637 12.3133C92.3552 12.3945 92.3552 12.4774 92.3552 12.5586C92.3552 13.3918 92.3552 14.226 92.3552 15.0592C92.3552 15.1002 92.3552 15.1413 92.3561 15.1823C92.3697 15.5002 92.4176 15.5498 92.7492 15.5677C92.8723 15.5746 92.9953 15.5711 93.1184 15.5711C94.7046 15.5711 96.2899 15.5711 97.8761 15.5711C98.4376 15.5711 98.4393 15.5737 98.4393 16.148C98.4402 17.2001 98.441 18.253 98.4393 19.305C98.4393 19.8093 98.4359 19.8118 97.9428 19.8118C94.7029 19.8118 91.463 19.8118 88.223 19.8118C87.7128 19.8118 87.7103 19.8101 87.7103 19.2794C87.7103 16.2044 87.7103 13.1295 87.7103 10.0545C87.7103 7.03421 87.7103 4.01393 87.7103 0.993657C87.7103 0.843241 87.712 0.692826 87.7239 0.543265C87.7333 0.429599 87.7949 0.371483 87.9077 0.360373C88.0026 0.350972 88.0991 0.351827 88.194 0.351827C91.4476 0.351827 94.7012 0.351827 97.9548 0.351827C98.4334 0.351827 98.4376 0.355245 98.4385 0.829567C98.4402 1.93632 98.4402 3.04307 98.4385 4.15067C98.4385 4.28571 98.4599 4.42501 98.3846 4.5515L98.3838 4.55492Z" fill="black"/>
<path d="M109.362 41.0546C109.328 41.1631 109.318 41.217 109.296 41.2657C108.521 42.9228 107.375 44.2424 105.758 45.1286C105.034 45.526 104.261 45.7867 103.439 45.8987C101.957 46.1012 100.526 45.9388 99.153 45.326C98.5881 45.0739 98.0659 44.75 97.5882 44.3603C96.4558 43.4365 95.5644 42.3306 95.0619 40.9418C94.7858 40.1794 94.6345 39.3932 94.6149 38.5787C94.5944 37.713 94.6687 36.8618 94.9063 36.0259C95.2217 34.914 95.7772 33.9372 96.537 33.0732C97.072 32.4647 97.6728 31.9305 98.3659 31.5023C99.2026 30.9853 100.107 30.6665 101.079 30.5161C101.734 30.4152 102.391 30.4058 103.042 30.4631C105.087 30.6443 106.767 31.5511 108.094 33.1142C108.98 34.1585 109.538 35.361 109.796 36.7019C109.954 37.5258 109.953 38.3591 109.897 39.1923C109.881 39.4171 109.811 39.4761 109.588 39.4863C109.465 39.4923 109.342 39.4889 109.219 39.4889C105.979 39.4889 102.739 39.4889 99.4991 39.4889C99.3487 39.4889 99.1983 39.4872 99.0487 39.4983C98.8923 39.5103 98.8188 39.594 98.8539 39.7436C98.9128 39.9957 98.9778 40.2478 99.0667 40.4905C99.3496 41.264 99.8726 41.8195 100.645 42.1101C101.566 42.4562 102.502 42.5382 103.45 42.2083C103.911 42.0477 104.304 41.7836 104.65 41.4443C104.718 41.3776 104.792 41.3135 104.85 41.2383C104.979 41.0717 105.143 41.023 105.352 41.0247C106.596 41.0324 107.839 41.0281 109.084 41.0289C109.162 41.0289 109.241 41.0418 109.362 41.052L109.362 41.0546ZM98.9598 36.6045C99.1128 36.713 99.2957 36.6737 99.4692 36.6737C101.354 36.6763 103.238 36.6754 105.122 36.6754C105.231 36.6754 105.341 36.6754 105.449 36.666C105.591 36.6532 105.646 36.5848 105.631 36.4524C105.627 36.4114 105.622 36.3703 105.611 36.331C105.305 35.2379 104.65 34.4799 103.532 34.1688C102.795 33.9637 102.048 33.9466 101.302 34.0979C100.078 34.3466 99.2932 35.079 98.9496 36.2823C98.9197 36.3883 98.8889 36.4934 98.959 36.6045H98.9598Z" fill="black"/>
<path d="M203.52 39.5623C203.512 39.6375 203.486 39.7204 203.499 39.7948C203.658 40.6468 204.032 41.369 204.779 41.8561C204.904 41.9382 205.035 42.0168 205.173 42.0724C206.004 42.4082 206.862 42.5185 207.741 42.3151C208.367 42.1698 208.901 41.8433 209.353 41.3852C209.738 40.9947 209.596 41.0323 210.203 41.0314C211.311 41.0297 212.418 41.0306 213.525 41.0314C213.659 41.0314 213.794 41.0408 213.902 41.0451C214.01 41.169 213.941 41.2579 213.902 41.3374C213.538 42.092 213.094 42.7937 212.532 43.4184C211.801 44.2312 210.959 44.8926 209.958 45.3447C209.089 45.7379 208.18 45.9524 207.224 45.9746C206.386 45.9951 205.56 45.9199 204.753 45.6849C203.476 45.3131 202.396 44.6192 201.467 43.6765C200.719 42.9184 200.125 42.0595 199.742 41.0605C199.467 40.3417 199.3 39.5999 199.269 38.8282C199.233 37.9513 199.266 37.0804 199.484 36.2249C199.746 35.2045 200.203 34.2789 200.856 33.4542C201.665 32.4329 202.627 31.5971 203.828 31.0613C204.43 30.7929 205.058 30.6194 205.71 30.5168C206.351 30.416 206.994 30.4066 207.632 30.4604C209.566 30.6254 211.196 31.4296 212.51 32.8654C213.553 34.0055 214.194 35.3413 214.459 36.8599C214.585 37.577 214.583 38.3009 214.557 39.0247C214.552 39.1743 214.52 39.3213 214.427 39.4503C214.264 39.511 214.099 39.4871 213.937 39.4871C210.656 39.4888 207.376 39.4871 204.095 39.4905C203.908 39.4905 203.712 39.4503 203.52 39.5606V39.5623ZM206.869 36.6753C207.825 36.6753 208.781 36.6753 209.737 36.6753C209.859 36.6753 209.983 36.6719 210.104 36.6582C210.215 36.6454 210.275 36.5668 210.268 36.4617C210.266 36.4207 210.261 36.3796 210.25 36.3403C209.988 35.4139 209.478 34.6952 208.562 34.3063C208.192 34.149 207.806 34.0755 207.413 34.0302C206.697 33.9473 205.991 34.0174 205.319 34.2807C204.352 34.6601 203.803 35.4045 203.563 36.3942C203.517 36.5822 203.574 36.654 203.756 36.6685C203.864 36.677 203.974 36.6753 204.083 36.6753C205.011 36.6753 205.94 36.6753 206.868 36.6753H206.869Z" fill="black"/>
<path d="M73.2806 30.9526C73.2977 31.109 73.3174 31.2141 73.3199 31.3201C73.3251 31.5662 73.3199 31.8115 73.3234 32.0576C73.3242 32.1525 73.3311 32.2491 73.3447 32.3422C73.3584 32.4311 73.4738 32.4636 73.5345 32.3961C73.6071 32.3149 73.6738 32.2277 73.7379 32.1405C74.4011 31.2346 75.2984 30.7082 76.3983 30.527C77.4666 30.3509 78.5187 30.415 79.5494 30.7663C80.1117 30.9586 80.6211 31.2457 81.0852 31.6124C81.7825 32.1636 82.2346 32.8841 82.5013 33.7242C82.7124 34.3916 82.8303 35.077 82.8337 35.777C82.8423 37.5119 82.8414 39.2468 82.8431 40.9817C82.844 42.279 82.8431 43.5772 82.8431 44.8746C82.8431 44.9976 82.8457 45.1207 82.838 45.2429C82.826 45.4267 82.7739 45.4745 82.5816 45.4891C82.5004 45.495 82.4175 45.4942 82.3355 45.4942C81.2698 45.4942 80.204 45.495 79.1383 45.4942C78.6101 45.4942 78.6067 45.4916 78.6067 44.9754C78.6059 42.585 78.6067 40.1946 78.6067 37.8042C78.6067 37.2709 78.5734 36.7402 78.4666 36.2171C78.4392 36.0838 78.4067 35.9505 78.3623 35.8223C78.0999 35.0523 77.5632 34.6181 76.759 34.4805C76.2334 34.3908 75.7232 34.4292 75.2207 34.5771C74.56 34.7719 74.1148 35.2018 73.8849 35.8548C73.7387 36.2701 73.6507 36.6957 73.6464 37.1367C73.6413 37.7512 73.6413 38.3657 73.6404 38.981C73.6404 40.9757 73.6404 42.9696 73.6404 44.9643C73.6404 45.4925 73.6396 45.495 73.1285 45.4959C72.0354 45.4976 70.9424 45.4959 69.8493 45.4959C69.7536 45.4959 69.6578 45.4959 69.563 45.4856C69.4288 45.4711 69.3767 45.4138 69.3664 45.2703C69.3596 45.1754 69.3621 45.0788 69.3621 44.984C69.3621 40.4766 69.3621 35.9684 69.3613 31.4611C69.3613 30.9381 69.351 30.9406 69.8783 30.9423C70.862 30.9449 71.8457 30.9423 72.8302 30.9432C72.9653 30.9432 73.1003 30.95 73.2832 30.9551L73.2806 30.9526Z" fill="black"/>
<path d="M157.66 45.4722C157.642 45.3269 157.623 45.2346 157.621 45.1423C157.617 44.8825 157.619 44.6235 157.619 44.3637C157.619 40.0743 157.619 35.7858 157.619 31.4964C157.619 30.9152 157.597 30.9391 158.181 30.94C159.123 30.9417 160.066 30.94 161.01 30.94C161.105 30.94 161.201 30.9374 161.297 30.9417C161.534 30.952 161.575 30.9904 161.58 31.24C161.587 31.5399 161.58 31.8408 161.585 32.1416C161.587 32.2211 161.599 32.3057 161.629 32.3783C161.641 32.4057 161.742 32.4322 161.76 32.4151C161.847 32.3305 161.925 32.2348 161.998 32.1373C162.253 31.7955 162.547 31.4946 162.893 31.2434C163.378 30.8921 163.917 30.6614 164.499 30.552C165.604 30.3452 166.699 30.3956 167.772 30.7545C168.336 30.9434 168.847 31.2263 169.313 31.5904C170.027 32.1459 170.489 32.8749 170.759 33.7287C170.97 34.3961 171.087 35.0815 171.091 35.7815C171.099 37.5984 171.097 39.4145 171.099 41.2315C171.099 42.434 171.099 43.6356 171.099 44.838C171.099 44.9201 171.099 45.0021 171.099 45.0842C171.092 45.4628 171.071 45.4918 170.711 45.4927C169.564 45.4961 168.416 45.4944 167.268 45.4935C167.213 45.4935 167.159 45.4935 167.104 45.4876C166.944 45.4705 166.883 45.4149 166.869 45.2585C166.858 45.1226 166.86 44.9859 166.86 44.8492C166.86 42.4587 166.861 40.0683 166.857 37.6779C166.857 37.1865 166.826 36.6959 166.722 36.2131C166.69 36.0669 166.652 35.9208 166.602 35.7798C166.342 35.0431 165.818 34.6252 165.052 34.485C164.53 34.3893 164.02 34.4201 163.513 34.5653C162.834 34.7602 162.375 35.1884 162.14 35.8567C161.99 36.2857 161.904 36.725 161.903 37.1797C161.901 37.9993 161.899 38.8189 161.899 39.6385C161.899 41.4144 161.899 43.1903 161.899 44.9654C161.899 45.491 161.898 45.4927 161.384 45.4935C160.291 45.4953 159.198 45.4944 158.105 45.4935C157.97 45.4935 157.836 45.4807 157.662 45.4722H157.66Z" fill="black"/>
<path d="M221.162 32.4875C221.272 32.4132 221.323 32.3918 221.355 32.3551C221.418 32.2833 221.47 32.2021 221.527 32.126C222.201 31.2338 223.093 30.7022 224.197 30.5219C225.099 30.3749 225.999 30.3962 226.879 30.6295C227.99 30.9235 228.95 31.4756 229.638 32.4277C230.087 33.0482 230.343 33.7507 230.475 34.4993C230.591 35.1591 230.643 35.8249 230.642 36.4966C230.636 39.2981 230.639 42.0996 230.639 44.9011C230.639 45.0241 230.643 45.1472 230.635 45.2703C230.625 45.4139 230.573 45.4711 230.438 45.4856C230.357 45.495 230.275 45.495 230.193 45.495C229.072 45.495 227.951 45.4968 226.83 45.495C226.362 45.4942 226.36 45.4908 226.36 45.0053C226.36 42.45 226.357 39.8946 226.361 37.3393C226.361 36.8718 226.313 36.4129 226.186 35.9633C226.149 35.8326 226.1 35.7035 226.046 35.5787C225.833 35.0873 225.465 34.7506 224.961 34.5856C224.205 34.3378 223.451 34.3771 222.718 34.6839C222.315 34.8531 222.015 35.1497 221.807 35.536C221.617 35.8898 221.511 36.2727 221.469 36.6675C221.425 37.088 221.401 37.5119 221.4 37.9341C221.394 40.2433 221.397 42.5534 221.396 44.8626C221.396 44.9994 221.397 45.1361 221.386 45.272C221.374 45.4121 221.317 45.4703 221.183 45.4848C221.088 45.495 220.992 45.4959 220.896 45.4959C219.816 45.4959 218.737 45.4959 217.656 45.4959C217.615 45.4959 217.574 45.4959 217.533 45.4959C217.194 45.4848 217.168 45.4592 217.16 45.1113C217.157 45.0156 217.16 44.9199 217.16 44.8242C217.16 40.41 217.16 35.9966 217.16 31.5825C217.16 31.432 217.16 31.2816 217.17 31.1321C217.178 31.0167 217.238 30.962 217.353 30.95C217.434 30.9415 217.517 30.9423 217.598 30.9423C218.624 30.9423 219.649 30.9423 220.674 30.9423C220.729 30.9423 220.784 30.9415 220.838 30.9441C221.077 30.956 221.118 30.9936 221.122 31.2415C221.127 31.5286 221.121 31.8158 221.125 32.1021C221.127 32.2072 221.145 32.3115 221.163 32.4892L221.162 32.4875Z" fill="black"/>
<path d="M57.8442 4.64603C57.6801 4.6409 57.5314 4.63236 57.3836 4.63236C56.4409 4.6315 55.4983 4.63236 54.5547 4.6315C54.0873 4.6315 54.0753 4.61954 54.0744 4.14607C54.0727 3.03932 54.0719 1.93342 54.0744 0.826674C54.0753 0.361753 54.083 0.355771 54.5658 0.355771C58.4194 0.355771 62.2729 0.355771 66.1256 0.355771C66.2077 0.355771 66.2897 0.353207 66.3718 0.359189C66.5487 0.372863 66.6068 0.430124 66.6213 0.617289C66.6307 0.739501 66.6281 0.862569 66.6281 0.985636C66.6324 2.10606 66.6358 3.22563 66.6401 4.34606C66.6401 4.3734 66.6435 4.40075 66.6418 4.4281C66.6358 4.54604 66.5837 4.61185 66.4743 4.6221C66.3658 4.63236 66.2564 4.63236 66.147 4.63236C65.2043 4.63236 64.2617 4.63236 63.3182 4.63321C63.1703 4.63321 63.019 4.61527 62.8575 4.68706C62.843 4.76226 62.819 4.83918 62.8156 4.91695C62.8079 5.06651 62.8114 5.21693 62.8114 5.36734C62.8114 9.99775 62.8114 14.629 62.8096 19.2594C62.8096 19.4201 62.8455 19.5867 62.7498 19.7654C62.6866 19.779 62.6105 19.8047 62.5327 19.8107C62.4242 19.8192 62.314 19.8141 62.2046 19.8141C60.9884 19.8141 59.7723 19.8141 58.5561 19.8141C58.4741 19.8141 58.392 19.8158 58.31 19.8141C57.9741 19.8055 57.9502 19.7816 57.9425 19.4286C57.9399 19.3056 57.9425 19.1825 57.9425 19.0594C57.9425 14.47 57.9425 9.87981 57.9408 5.29043C57.9408 5.08873 57.975 4.8802 57.8442 4.64603Z" fill="black"/>
<path d="M127.18 45.4737C127.069 45.4796 126.935 45.4933 126.8 45.4933C125.694 45.495 124.587 45.4959 123.481 45.4933C123.006 45.4933 123.003 45.489 123.003 45.0122C123.003 41.6116 123.003 38.211 123.002 34.8104C123.002 34.66 123.002 34.5096 122.99 34.36C122.979 34.2241 122.921 34.1677 122.778 34.1626C122.519 34.1532 122.259 34.1557 121.999 34.1549C121.712 34.154 121.426 34.1583 121.138 34.1523C120.908 34.1472 120.861 34.0942 120.845 33.8558C120.842 33.8011 120.843 33.7464 120.843 33.6917C120.843 32.9268 120.84 32.1619 120.843 31.397C120.844 30.9517 120.857 30.9415 121.307 30.9398C121.703 30.938 122.099 30.9398 122.496 30.9389C122.605 30.9389 122.714 30.9363 122.822 30.9227C122.911 30.9116 122.975 30.85 122.984 30.7611C122.999 30.6261 123.001 30.4885 123.001 30.3526C123.002 29.0826 123.004 27.8127 123.001 26.5427C123.001 26.0179 122.995 26.0222 123.519 26.0239C124.598 26.0265 125.677 26.0239 126.756 26.0248C126.865 26.0248 126.975 26.023 127.083 26.0316C127.195 26.0401 127.259 26.1 127.269 26.2119C127.28 26.3341 127.279 26.4572 127.279 26.5803C127.279 27.8503 127.279 29.1202 127.28 30.3902C127.28 30.5133 127.282 30.6364 127.293 30.7586C127.3 30.8483 127.358 30.9107 127.449 30.9218C127.557 30.9346 127.667 30.9389 127.775 30.9398C128.158 30.9415 128.54 30.9398 128.923 30.9415C129.018 30.9415 129.118 30.9363 129.207 30.9611C129.262 30.9765 129.329 31.0389 129.343 31.0919C129.37 31.1953 129.369 31.3081 129.37 31.4166C129.372 32.1679 129.371 32.9191 129.371 33.6703C129.371 33.7113 129.371 33.7524 129.37 33.7934C129.357 34.1104 129.322 34.1506 129.014 34.154C128.591 34.1592 128.167 34.1532 127.743 34.1566C127.61 34.1575 127.47 34.1293 127.32 34.225C127.309 34.2856 127.287 34.3634 127.284 34.4412C127.277 34.5771 127.28 34.7138 127.28 34.8506C127.28 38.2101 127.28 41.5697 127.277 44.9293C127.277 45.1019 127.326 45.2865 127.179 45.4728L127.18 45.4737Z" fill="black"/>
<path d="M234.722 34.2223C234.565 34.1326 234.425 34.1574 234.29 34.1565C233.88 34.1531 233.47 34.1565 233.06 34.1548C232.965 34.1548 232.869 34.1565 232.774 34.1471C232.665 34.1369 232.609 34.0745 232.597 33.9582C232.591 33.9044 232.591 33.8489 232.591 33.7942C232.591 32.9609 232.591 32.1268 232.591 31.2935C232.591 31.2388 232.591 31.1841 232.597 31.1294C232.61 31.0149 232.666 30.9568 232.78 30.9474C232.889 30.9388 232.999 30.9397 233.107 30.9397C233.559 30.938 234.01 30.9422 234.46 30.9354C234.694 30.932 234.752 30.873 234.772 30.6482C234.783 30.526 234.78 30.403 234.78 30.2799C234.78 29.0364 234.78 27.7929 234.78 26.5494C234.78 26.0255 234.782 26.0247 235.298 26.0238C236.378 26.0238 237.457 26.0238 238.538 26.0238C238.633 26.0238 238.729 26.0221 238.824 26.0307C238.937 26.0409 238.997 26.099 239.006 26.2136C239.016 26.3358 239.016 26.4588 239.016 26.5819C239.016 27.8254 239.016 29.0689 239.017 30.3124C239.017 30.4491 239.018 30.5859 239.033 30.7217C239.047 30.8542 239.114 30.9166 239.245 30.9286C239.368 30.9397 239.491 30.938 239.614 30.9388C240.038 30.9405 240.462 30.9363 240.885 30.9431C241.081 30.9465 241.126 30.9961 241.139 31.185C241.144 31.2397 241.143 31.2943 241.143 31.349C241.143 32.1413 241.143 32.9344 241.143 33.7266C241.143 33.8087 241.143 33.8907 241.133 33.9719C241.12 34.0822 241.061 34.1386 240.944 34.148C240.849 34.1557 240.752 34.154 240.656 34.154C240.273 34.154 239.891 34.1522 239.509 34.1548C239.374 34.1557 239.235 34.1352 239.083 34.2104C239.064 34.2873 239.031 34.3762 239.023 34.4676C239.011 34.6035 239.017 34.7402 239.017 34.877C239.017 38.1972 239.017 41.5175 239.017 44.8377C239.017 44.9881 239.017 45.1386 239.007 45.2881C238.998 45.4061 238.942 45.4642 238.83 45.4779C238.735 45.4898 238.639 45.4915 238.544 45.4915C237.451 45.4924 236.357 45.4932 235.264 45.4915C234.794 45.4907 234.781 45.4779 234.781 45.0061C234.779 41.6448 234.781 38.2835 234.78 34.9223C234.78 34.7855 234.786 34.6488 234.775 34.5129C234.766 34.4069 234.736 34.3035 234.721 34.2206L234.722 34.2223Z" fill="black"/>
<path d="M91.3519 30.9169C91.4647 30.9237 91.5989 30.9382 91.733 30.9391C92.1023 30.9425 92.4706 30.9399 92.8398 30.9408C92.9355 30.9408 93.0312 30.9382 93.127 30.9459C93.2705 30.957 93.3269 31.0092 93.344 31.1425C93.3526 31.21 93.3543 31.2784 93.3543 31.3467C93.3543 32.1527 93.3543 32.9586 93.3543 33.7645C93.3543 33.8329 93.3509 33.9012 93.3415 33.9688C93.3252 34.079 93.2663 34.138 93.1526 34.1482C93.0577 34.1568 92.9612 34.1551 92.8663 34.1551C92.4834 34.1551 92.1014 34.1534 91.7185 34.1568C91.5843 34.1576 91.4442 34.132 91.2912 34.2234C91.275 34.3089 91.2468 34.4132 91.2382 34.5191C91.228 34.655 91.2331 34.7918 91.2331 34.9285C91.2331 38.2342 91.2331 41.54 91.2331 44.8457C91.2331 44.9952 91.2288 45.1457 91.2169 45.2952C91.2083 45.4038 91.1391 45.4687 91.0314 45.4807C90.9365 45.4909 90.8408 45.4943 90.7451 45.4943C89.652 45.4952 88.5589 45.4961 87.4659 45.4943C86.9967 45.4935 86.9933 45.4892 86.9933 45.0072C86.9933 41.6331 86.9933 38.259 86.9933 34.8849C86.9933 34.7345 86.9967 34.5841 86.9856 34.4345C86.9796 34.3568 86.9462 34.2815 86.9292 34.2209C86.7822 34.132 86.6428 34.1585 86.5087 34.1576C86.0984 34.1542 85.6891 34.1568 85.2789 34.1559C85.1968 34.1559 85.1148 34.1559 85.0336 34.1482C84.9259 34.1371 84.8575 34.0747 84.8438 33.9662C84.8319 33.8713 84.8276 33.7756 84.8276 33.6807C84.8259 32.9295 84.825 32.1783 84.8276 31.4271C84.8293 30.9536 84.8413 30.9442 85.3105 30.9425C85.707 30.9408 86.1027 30.9425 86.4993 30.9425C86.5813 30.9425 86.6634 30.9433 86.7454 30.9357C86.9035 30.9203 86.9676 30.8622 86.983 30.7075C86.995 30.5853 86.9933 30.4622 86.9941 30.3391C86.9941 29.0691 86.9941 27.7983 86.9941 26.5283C86.9941 26.0292 86.9958 26.0283 87.4889 26.0283C88.5957 26.0283 89.7024 26.0266 90.8092 26.0283C91.2032 26.0283 91.2322 26.054 91.2331 26.4446C91.2365 27.7419 91.2331 29.0401 91.2365 30.3374C91.2365 30.5254 91.2074 30.722 91.3562 30.9194L91.3519 30.9169Z" fill="black"/>
<path d="M120.15 34.7002C119.838 34.7378 119.526 34.766 119.217 34.8164C118.935 34.8626 118.651 34.9121 118.378 34.995C117.441 35.2779 116.929 35.9343 116.797 36.8872C116.748 37.2376 116.734 37.5948 116.734 37.9487C116.729 40.2442 116.731 42.5398 116.731 44.8353C116.731 44.9584 116.735 45.0814 116.727 45.2045C116.713 45.4353 116.664 45.4814 116.422 45.4925C116.258 45.5002 116.094 45.4959 115.929 45.4959C114.945 45.4959 113.961 45.4976 112.977 45.4959C112.499 45.4951 112.494 45.4908 112.494 45.0156C112.493 40.4792 112.493 35.942 112.494 31.4056C112.494 30.9466 112.498 30.9432 112.946 30.9424C113.971 30.9407 114.996 30.9424 116.022 30.9424C116.063 30.9424 116.104 30.9424 116.145 30.9424C116.42 30.9518 116.459 30.9843 116.465 31.2458C116.471 31.5193 116.465 31.7927 116.469 32.0654C116.47 32.1602 116.476 32.2568 116.494 32.35C116.5 32.3816 116.546 32.42 116.578 32.4269C116.611 32.4329 116.662 32.4123 116.683 32.3859C116.742 32.3115 116.792 32.2295 116.842 32.1483C117.414 31.2398 118.233 30.7048 119.288 30.521C119.531 30.4783 119.773 30.4356 120.02 30.451C120.156 30.4595 120.213 30.5176 120.225 30.6569C120.232 30.7381 120.23 30.821 120.23 30.9031C120.23 32.0235 120.231 33.1439 120.228 34.2643C120.228 34.3977 120.261 34.5387 120.151 34.7011L120.15 34.7002Z" fill="black"/>
<path d="M150.063 38.1991C150.063 35.9719 150.063 33.7456 150.063 31.5184C150.063 31.3817 150.065 31.2449 150.076 31.109C150.084 31.0176 150.146 30.9603 150.236 30.9509C150.331 30.9407 150.427 30.9407 150.522 30.9407C151.629 30.9407 152.737 30.9407 153.844 30.9407C153.885 30.9407 153.926 30.9407 153.967 30.9407C154.251 30.9509 154.288 30.9877 154.301 31.2808C154.305 31.3765 154.302 31.4723 154.302 31.568C154.302 35.9941 154.302 40.4211 154.302 44.8473C154.302 44.9977 154.298 45.1481 154.287 45.2968C154.279 45.4054 154.209 45.4694 154.101 45.4806C154.006 45.49 153.91 45.4934 153.814 45.4934C152.721 45.4934 151.627 45.4951 150.534 45.4934C150.069 45.4925 150.064 45.4865 150.064 45.002C150.063 42.7338 150.064 40.4664 150.064 38.1982L150.063 38.1991Z" fill="black"/>
<path d="M154.267 29.2023C154.13 29.2203 154.038 29.2425 153.945 29.2425C152.773 29.2451 151.6 29.2442 150.428 29.2442C150.387 29.2442 150.345 29.2442 150.304 29.2408C150.136 29.2271 150.085 29.1793 150.069 29.0203C150.066 28.993 150.065 28.9656 150.065 28.9383C150.065 28.0657 150.065 27.1931 150.065 26.3214C150.065 26.294 150.065 26.2667 150.069 26.2393C150.084 26.0975 150.135 26.0419 150.27 26.0291C150.338 26.0222 150.406 26.024 150.475 26.024C151.606 26.024 152.738 26.0222 153.87 26.024C154.275 26.024 154.299 26.0445 154.301 26.4299C154.305 27.2341 154.303 28.0383 154.301 28.8425C154.301 28.9494 154.28 29.0562 154.266 29.2015L154.267 29.2023Z" fill="black"/>
</svg>
