<svg width="225" height="60" viewBox="0 0 225 60" fill="none" xmlns="http://www.w3.org/2000/svg">
<g clip-path="url(#clip0_521_91)">
<path d="M224.586 44.9995V14.9995L197.794 0L171 14.9995V44.9995L197.794 60L224.586 44.9995Z" fill="#0A0A0A"/>
<path d="M209.399 15.7395L204.876 13.2108L197.746 9.22339L190.71 13.1815L186.109 15.7698L179.05 19.7421V27.68V32.8133V40.7318L186.149 44.7007L190.71 47.2512V42.1352V34.1994V26.2539L197.764 22.2859L204.876 18.2834V26.2625V34.1658L197.785 38.1554L204.876 42.12L209.439 44.6704L216.537 40.6776V32.783V27.6054V19.7312L209.399 15.7395Z" fill="#CC2727"/>
</g>
<g clip-path="url(#clip1_521_91)">
<mask id="mask0_521_91" style="mask-type:luminance" maskUnits="userSpaceOnUse" x="0" y="13" width="138" height="33">
<path d="M138 13H0V46H138V13Z" fill="white"/>
</mask>
<g mask="url(#mask0_521_91)">
<path d="M16.4062 44.6972C24.7734 44.6972 31.5564 37.8931 31.5564 29.4998C31.5564 21.1066 24.7734 14.3025 16.4062 14.3025C8.03894 14.3025 1.25598 21.1066 1.25598 29.4998C1.25598 37.8931 8.03894 44.6972 16.4062 44.6972Z" fill="white"/>
<path d="M16.4454 37.671L21.5477 32.5395L16.4454 27.4079L19.4284 24.4079L27.5136 32.5395L19.4284 40.6316L16.4454 37.671ZM16.3669 31.5921L11.2645 26.4606L16.3669 21.3289L13.384 18.329L5.33788 26.4606L13.4232 34.5921L16.3669 31.5921ZM0 29.5C0 38.6185 7.37884 46.0395 16.4454 46.0395C23.0393 46.0395 29.0051 42.0526 31.5563 35.9342C35.0495 27.5264 31.1246 17.8158 22.7645 14.3026C14.4437 10.7895 4.82764 14.6974 1.29523 23.0658C0.43174 25.0789 0 27.2895 0 29.5ZM30.1041 29.5C30.1041 37.079 23.942 43.2764 16.4062 43.2764C8.8703 43.2764 2.74745 37.079 2.74745 29.5C2.74745 21.9211 8.8703 15.7237 16.4062 15.7237C23.942 15.7237 30.1041 21.9211 30.1041 29.5Z" fill="url(#paint0_linear_521_91)"/>
<path d="M38.0717 30.0526H49.4932V26.3025H42.4284V13.2762H38.0717V30.0526ZM68.4897 30.0526L61.4642 13.2762H56.9897L49.8465 30.0526H54.3208L55.4983 27.092H62.7202L63.8584 30.0526H68.4897ZM59.1092 17.7368L61.3856 23.7368H56.7543L59.1092 17.7368ZM73.5921 23.1447V13.2762H69.2355V23.1447C69.2355 24.6052 69.5495 25.8683 70.1775 26.9736C70.8054 28.0789 71.7083 28.9078 72.8465 29.4999C73.9847 30.0921 75.3191 30.3684 76.8498 30.3684C78.3806 30.3684 79.7151 30.0921 80.8533 29.4999C81.9915 28.9078 82.855 28.0789 83.4829 26.9736C84.111 25.8683 84.3856 24.6052 84.3856 23.1447V13.2762H80.029V23.1447C80.029 24.2105 79.7543 25.0789 79.1655 25.7105C78.5769 26.342 77.8311 26.6578 76.8891 26.6578C75.9471 26.6578 75.1621 26.342 74.5341 25.7105C73.9062 25.0394 73.5921 24.171 73.5921 23.1447ZM98.7901 23.3815L91.1758 13.2762H87.3294V30.0526H91.4113V20.0262L98.9864 30.0526H102.793V13.2762H98.7509L98.7901 23.3815ZM118.14 18.9605L120.652 15.8815C119.828 14.9736 118.768 14.2631 117.591 13.7499C116.373 13.2368 115.157 12.9604 113.94 12.9604C112.252 12.9604 110.722 13.3552 109.387 14.1052C108.014 14.8552 106.954 15.8815 106.169 17.1841C105.384 18.4868 104.992 19.9473 104.992 21.6052C104.992 23.2631 105.384 24.7237 106.13 26.0657C106.875 27.4078 107.935 28.4341 109.27 29.2236C110.604 29.9736 112.096 30.3684 113.745 30.3684C114.961 30.3684 116.217 30.0921 117.434 29.4999C118.689 28.9473 119.749 28.1578 120.652 27.2105L118.101 24.4473C117.512 25.0394 116.844 25.5525 116.1 25.8683C115.353 26.2236 114.647 26.3815 113.94 26.3815C113.116 26.3815 112.331 26.1841 111.625 25.75C110.918 25.3157 110.408 24.763 109.976 24.0131C109.584 23.2631 109.387 22.4341 109.387 21.5262C109.387 20.6183 109.584 19.7894 109.976 19.0394C110.369 18.2894 110.918 17.6973 111.625 17.3026C112.331 16.8683 113.077 16.671 113.94 16.671C114.686 16.671 115.393 16.8683 116.139 17.2631C116.962 17.7368 117.591 18.2894 118.14 18.9605ZM122.536 30.0526H126.893V23.6183H133.643V30.0526H138V13.2762H133.643V20.1052H126.893V13.2762H122.536V30.0526ZM38.4642 35.3815H46.0785L38.2679 45.0131V45.9209H47.6092V44.8946H39.7594L47.5699 35.2236V34.3552H38.4642V35.3815ZM55.0273 34.2368C53.9284 34.2368 52.9078 34.5131 52.0051 35.0263C51.1024 35.5394 50.3566 36.2499 49.8072 37.1578C49.2577 38.0657 48.9829 39.0131 48.9829 40.1184C48.9829 41.1842 49.2577 42.171 49.8072 43.0788C50.3566 43.9868 51.0631 44.6973 52.0051 45.2104C52.9078 45.7236 53.9284 45.9999 55.0273 45.9999C56.1263 45.9999 57.1468 45.7236 58.0495 45.2104C58.9522 44.6973 59.698 43.9473 60.2474 43.0788C60.797 42.171 61.0717 41.1842 61.0717 40.1184C61.0717 39.0526 60.797 38.0657 60.2474 37.1578C59.698 36.2499 58.9915 35.5394 58.0495 35.0263C57.1468 34.5131 56.1263 34.2368 55.0273 34.2368ZM55.0666 35.2631C55.93 35.2631 56.7542 35.4605 57.4607 35.8946C58.2065 36.3289 58.7953 36.921 59.227 37.6316C59.6587 38.3815 59.8942 39.1709 59.8942 40.0789C59.8942 40.9473 59.6587 41.7762 59.227 42.5263C58.7953 43.2763 58.2065 43.8683 57.4607 44.3026C56.7151 44.7368 55.93 44.9736 55.0666 44.9736C54.2031 44.9736 53.3788 44.7368 52.6331 44.3026C51.8874 43.8683 51.2986 43.2763 50.8669 42.5263C50.4352 41.7762 50.1997 40.9473 50.1997 40.0789C50.1997 39.2104 50.4352 38.3815 50.8669 37.6316C51.2986 36.8815 51.8874 36.2894 52.6331 35.8946C53.3788 35.4999 54.1639 35.2631 55.0666 35.2631ZM71.8652 44.1446L64.7611 34.3552H63.5444V45.9209H64.6826V36.1315L71.7867 45.9209H73.0034V34.3552H71.8652V44.1446ZM76.6536 45.9209H84.582V44.8946H77.7918V40.5525H83.6792V39.5262H77.7918V35.3815H84.3465V34.3552H76.6536V45.9209Z" fill="url(#paint1_linear_521_91)"/>
</g>
</g>
<defs>
<linearGradient id="paint0_linear_521_91" x1="4.79485" y1="41.1597" x2="28.1311" y2="17.9562" gradientUnits="userSpaceOnUse">
<stop stop-color="#328B31"/>
<stop offset="1" stop-color="#96CF24"/>
</linearGradient>
<linearGradient id="paint1_linear_521_91" x1="50.7724" y1="-1.94318" x2="117.952" y2="54.1059" gradientUnits="userSpaceOnUse">
<stop stop-color="#328B31"/>
<stop offset="1" stop-color="#4D5E2A"/>
</linearGradient>
<clipPath id="clip0_521_91">
<rect width="54" height="60" fill="white" transform="translate(171)"/>
</clipPath>
<clipPath id="clip1_521_91">
<rect width="138" height="33" fill="white" transform="translate(0 13)"/>
</clipPath>
</defs>
</svg>
