<svg width="24" height="25" viewBox="0 0 24 25" fill="none" xmlns="http://www.w3.org/2000/svg">
<path fill-rule="evenodd" clip-rule="evenodd" d="M24 12.8301C24 19.4575 18.6274 24.8301 12 24.8301C5.37258 24.8301 0 19.4575 0 12.8301C0 6.20266 5.37258 0.830078 12 0.830078C18.6274 0.830078 24 6.20266 24 12.8301ZM12.43 9.68901C11.2628 10.1745 8.93014 11.1793 5.43189 12.7034C4.86383 12.9293 4.56626 13.1503 4.53917 13.3664C4.49339 13.7316 4.95071 13.8754 5.57347 14.0712C5.65818 14.0978 5.74595 14.1254 5.83594 14.1547C6.44864 14.3539 7.27283 14.5869 7.70129 14.5961C8.08994 14.6045 8.52373 14.4443 9.00264 14.1154C12.2712 11.9091 13.9584 10.7939 14.0643 10.7698C14.139 10.7529 14.2426 10.7316 14.3128 10.7939C14.3829 10.8563 14.376 10.9744 14.3686 11.0061C14.3233 11.1992 12.5281 12.8682 11.5991 13.7319C11.3095 14.0011 11.1041 14.1921 11.0621 14.2357C10.968 14.3334 10.8721 14.4258 10.78 14.5147C10.2108 15.0634 9.78391 15.4749 10.8036 16.1469C11.2936 16.4698 11.6858 16.7368 12.077 17.0032C12.5042 17.2942 12.9303 17.5843 13.4816 17.9457C13.6221 18.0378 13.7562 18.1335 13.8869 18.2266C14.3841 18.5811 14.8307 18.8995 15.3826 18.8487C15.7032 18.8192 16.0345 18.5177 16.2027 17.6184C16.6002 15.4932 17.3816 10.8885 17.5622 8.99105C17.578 8.82481 17.5581 8.61205 17.5422 8.51865C17.5262 8.42526 17.4928 8.29219 17.3714 8.19368C17.2276 8.07701 17.0056 8.05241 16.9064 8.05416C16.455 8.06211 15.7626 8.3029 12.43 9.68901Z" fill="#777E90"/>
</svg>
