<?xml version="1.0" encoding="UTF-8"?>
<!DOCTYPE svg PUBLIC "-//W3C//DTD SVG 1.1//EN" "http://www.w3.org/Graphics/SVG/1.1/DTD/svg11.dtd">
<svg xmlns="http://www.w3.org/2000/svg" version="1.1" width="42px" height="42px" style="shape-rendering:geometricPrecision; text-rendering:geometricPrecision; image-rendering:optimizeQuality; fill-rule:evenodd; clip-rule:evenodd" xmlns:xlink="http://www.w3.org/1999/xlink">
<g><path style="opacity:0.977" fill="#d7a107" d="M 26.5,-0.5 C 31.5,-0.5 36.5,-0.5 41.5,-0.5C 41.5,4.5 41.5,9.5 41.5,14.5C 36.5354,18.9634 31.7021,23.6301 27,28.5C 27.4729,33.6611 25.9729,37.9944 22.5,41.5C 21.5,41.5 20.5,41.5 19.5,41.5C 16.7605,39.0997 15.9271,36.0997 17,32.5C 20.3333,29.1667 23.6667,25.8333 27,22.5C 27.4974,19.854 27.6641,17.1873 27.5,14.5C 24.4816,14.3354 21.4816,14.502 18.5,15C 15.5,18 12.5,21 9.5,24C 5.57891,25.1387 2.24558,24.3054 -0.5,21.5C -0.5,20.5 -0.5,19.5 -0.5,18.5C 1.29585,17.2073 2.96252,15.7073 4.5,14C 7.5,13.6667 10.5,13.3333 13.5,13C 18.0367,8.63118 22.3701,4.13118 26.5,-0.5 Z"/></g>
<g><path style="opacity:0.957" fill="#d29d07" d="M 5.5,29.5 C 11.4877,29.664 12.821,32.164 9.5,37C 5.79835,38.3927 3.79835,37.226 3.5,33.5C 3.80288,31.8857 4.46954,30.5523 5.5,29.5 Z"/></g>
</svg>
