<svg width="67" height="67" viewBox="0 0 67 67" fill="none" xmlns="http://www.w3.org/2000/svg">
<g filter="url(#filter0_d_577_156)">
<circle cx="33.5" cy="29.5" r="19.5" fill="white"/>
</g>
<g clip-path="url(#clip0_577_156)">
<path d="M43.0401 20.3073C41.2855 19.5022 39.4039 18.909 37.4366 18.5693C37.4008 18.5627 37.365 18.5791 37.3465 18.6119C37.1045 19.0423 36.8365 19.6038 36.6488 20.0451C34.5328 19.7283 32.4277 19.7283 30.3551 20.0451C30.1674 19.594 29.8896 19.0423 29.6465 18.6119C29.6281 18.5802 29.5923 18.5638 29.5565 18.5693C27.5902 18.9079 25.7087 19.5011 23.953 20.3073C23.9378 20.3138 23.9247 20.3248 23.9161 20.339C20.3471 25.6709 19.3694 30.8718 19.8491 36.0082C19.8512 36.0333 19.8653 36.0574 19.8849 36.0726C22.2396 37.8019 24.5205 38.8517 26.7591 39.5475C26.7949 39.5584 26.8328 39.5453 26.8556 39.5158C27.3852 38.7927 27.8572 38.0302 28.2619 37.2284C28.2858 37.1814 28.263 37.1257 28.2142 37.1071C27.4655 36.8231 26.7525 36.4768 26.0667 36.0836C26.0125 36.0519 26.0082 35.9743 26.0581 35.9372C26.2024 35.829 26.3467 35.7165 26.4845 35.6029C26.5095 35.5822 26.5442 35.5778 26.5735 35.5909C31.0789 37.6479 35.9565 37.6479 40.4087 35.5909C40.438 35.5767 40.4727 35.5811 40.4987 35.6018C40.6366 35.7154 40.7809 35.829 40.9263 35.9372C40.9762 35.9743 40.973 36.0519 40.9187 36.0836C40.2329 36.4845 39.52 36.8231 38.7702 37.106C38.7214 37.1246 38.6996 37.1814 38.7235 37.2284C39.1369 38.0291 39.609 38.7916 40.1287 39.5148C40.1504 39.5453 40.1895 39.5584 40.2253 39.5475C42.4747 38.8517 44.7556 37.8019 47.1103 36.0726C47.131 36.0574 47.144 36.0344 47.1462 36.0093C47.7202 30.071 46.1847 24.9128 43.0759 20.34C43.0683 20.3248 43.0553 20.3138 43.0401 20.3073ZM28.9347 32.8807C27.5783 32.8807 26.4606 31.6354 26.4606 30.106C26.4606 28.5767 27.5566 27.3314 28.9347 27.3314C30.3236 27.3314 31.4305 28.5876 31.4088 30.106C31.4088 31.6354 30.3128 32.8807 28.9347 32.8807ZM38.0822 32.8807C36.7258 32.8807 35.6082 31.6354 35.6082 30.106C35.6082 28.5767 36.7041 27.3314 38.0822 27.3314C39.4712 27.3314 40.578 28.5876 40.5563 30.106C40.5563 31.6354 39.4712 32.8807 38.0822 32.8807Z" fill="#D913FA"/>
</g>
<defs>
<filter id="filter0_d_577_156" x="0" y="0" width="67" height="67" filterUnits="userSpaceOnUse" color-interpolation-filters="sRGB">
<feFlood flood-opacity="0" result="BackgroundImageFix"/>
<feColorMatrix in="SourceAlpha" type="matrix" values="0 0 0 0 0 0 0 0 0 0 0 0 0 0 0 0 0 0 127 0" result="hardAlpha"/>
<feOffset dy="4"/>
<feGaussianBlur stdDeviation="7"/>
<feColorMatrix type="matrix" values="0 0 0 0 0 0 0 0 0 0 0 0 0 0 0 0 0 0 0.15 0"/>
<feBlend mode="normal" in2="BackgroundImageFix" result="effect1_dropShadow_577_156"/>
<feBlend mode="normal" in="SourceGraphic" in2="effect1_dropShadow_577_156" result="shape"/>
</filter>
<clipPath id="clip0_577_156">
<rect width="27.5294" height="27.5294" fill="white" transform="translate(19.7353 15.5405)"/>
</clipPath>
</defs>
</svg>
