<svg width="67" height="67" viewBox="0 0 67 67" fill="none" xmlns="http://www.w3.org/2000/svg">
<g filter="url(#filter0_d_577_159)">
<circle cx="33.5" cy="29.5" r="19.5" fill="white"/>
</g>
<g clip-path="url(#clip0_577_159)">
<path fill-rule="evenodd" clip-rule="evenodd" d="M33.5114 15.5405C25.8936 15.5405 19.7353 21.7442 19.7353 29.419C19.7353 35.5538 23.6811 40.7469 29.155 42.5849C29.8394 42.723 30.0901 42.2862 30.0901 41.9188C30.0901 41.5971 30.0675 40.4942 30.0675 39.3451C26.2353 40.1725 25.4373 37.6907 25.4373 37.6907C24.8215 36.0823 23.909 35.6689 23.909 35.6689C22.6547 34.8187 24.0003 34.8187 24.0003 34.8187C25.3916 34.9106 26.1217 36.2433 26.1217 36.2433C27.3531 38.3571 29.3374 37.7598 30.1357 37.3921C30.2497 36.496 30.6148 35.8756 31.0026 35.531C27.9461 35.2093 24.7304 34.0145 24.7304 28.6836C24.7304 27.1671 25.2774 25.9263 26.1442 24.9614C26.0075 24.6168 25.5284 23.1919 26.2813 21.2848C26.2813 21.2848 27.4445 20.9171 30.0672 22.7094C31.1901 22.4056 32.3481 22.2511 33.5114 22.2498C34.6746 22.2498 35.8603 22.4108 36.9553 22.7094C39.5783 20.9171 40.7415 21.2848 40.7415 21.2848C41.4944 23.1919 41.015 24.6168 40.8782 24.9614C41.7679 25.9263 42.2924 27.1671 42.2924 28.6836C42.2924 34.0145 39.0766 35.1861 35.9974 35.531C36.4993 35.9675 36.9324 36.7946 36.9324 38.1044C36.9324 39.9655 36.9099 41.4592 36.9099 41.9185C36.9099 42.2862 37.1608 42.723 37.8449 42.5851C43.3188 40.7466 47.2646 35.5538 47.2646 29.419C47.2872 21.7442 41.1064 15.5405 33.5114 15.5405Z" fill="#FF4D00"/>
</g>
<defs>
<filter id="filter0_d_577_159" x="0" y="0" width="67" height="67" filterUnits="userSpaceOnUse" color-interpolation-filters="sRGB">
<feFlood flood-opacity="0" result="BackgroundImageFix"/>
<feColorMatrix in="SourceAlpha" type="matrix" values="0 0 0 0 0 0 0 0 0 0 0 0 0 0 0 0 0 0 127 0" result="hardAlpha"/>
<feOffset dy="4"/>
<feGaussianBlur stdDeviation="7"/>
<feColorMatrix type="matrix" values="0 0 0 0 0 0 0 0 0 0 0 0 0 0 0 0 0 0 0.15 0"/>
<feBlend mode="normal" in2="BackgroundImageFix" result="effect1_dropShadow_577_159"/>
<feBlend mode="normal" in="SourceGraphic" in2="effect1_dropShadow_577_159" result="shape"/>
</filter>
<clipPath id="clip0_577_159">
<rect width="27.5294" height="27.5294" fill="white" transform="translate(19.7353 15.5405)"/>
</clipPath>
</defs>
</svg>
