<svg width="67" height="67" viewBox="0 0 67 67" fill="none" xmlns="http://www.w3.org/2000/svg">
<g filter="url(#filter0_d_577_158)">
<circle cx="33.5" cy="29.5" r="19.5" fill="white"/>
</g>
<g clip-path="url(#clip0_577_158)">
<path fill-rule="evenodd" clip-rule="evenodd" d="M47.2647 29.3052C47.2647 36.9073 41.102 43.0699 33.5 43.0699C25.898 43.0699 19.7353 36.9073 19.7353 29.3052C19.7353 21.7032 25.898 15.5405 33.5 15.5405C41.102 15.5405 47.2647 21.7032 47.2647 29.3052ZM33.9933 25.7022C32.6544 26.2591 29.9787 27.4117 25.966 29.1599C25.3144 29.419 24.9731 29.6725 24.942 29.9204C24.8895 30.3393 25.414 30.5043 26.1284 30.7289C26.2256 30.7594 26.3262 30.7911 26.4295 30.8246C27.1323 31.0531 28.0777 31.3204 28.5691 31.331C29.0149 31.3406 29.5125 31.1568 30.0618 30.7796C33.811 28.2488 35.7464 26.9696 35.8679 26.942C35.9536 26.9226 36.0724 26.8981 36.1529 26.9696C36.2334 27.0412 36.2254 27.1767 36.2169 27.213C36.165 27.4345 34.1058 29.3489 33.0402 30.3396C32.708 30.6485 32.4723 30.8675 32.4241 30.9176C32.3162 31.0297 32.2063 31.1357 32.1006 31.2376C31.4476 31.867 30.958 32.339 32.1277 33.1098C32.6898 33.4802 33.1395 33.7865 33.5883 34.0921C34.0783 34.4258 34.5671 34.7587 35.1995 35.1732C35.3606 35.2788 35.5145 35.3885 35.6644 35.4954C36.2347 35.9019 36.747 36.2672 37.38 36.209C37.7478 36.1751 38.1278 35.8293 38.3207 34.7978C38.7767 32.36 39.673 27.0782 39.8802 24.9016C39.8983 24.711 39.8755 24.4669 39.8572 24.3598C39.8388 24.2526 39.8005 24.1 39.6613 23.987C39.4964 23.8532 39.2418 23.825 39.1279 23.827C38.6102 23.8361 37.8159 24.1123 33.9933 25.7022Z" fill="#1E55E3"/>
</g>
<defs>
<filter id="filter0_d_577_158" x="0" y="0" width="67" height="67" filterUnits="userSpaceOnUse" color-interpolation-filters="sRGB">
<feFlood flood-opacity="0" result="BackgroundImageFix"/>
<feColorMatrix in="SourceAlpha" type="matrix" values="0 0 0 0 0 0 0 0 0 0 0 0 0 0 0 0 0 0 127 0" result="hardAlpha"/>
<feOffset dy="4"/>
<feGaussianBlur stdDeviation="7"/>
<feColorMatrix type="matrix" values="0 0 0 0 0 0 0 0 0 0 0 0 0 0 0 0 0 0 0.15 0"/>
<feBlend mode="normal" in2="BackgroundImageFix" result="effect1_dropShadow_577_158"/>
<feBlend mode="normal" in="SourceGraphic" in2="effect1_dropShadow_577_158" result="shape"/>
</filter>
<clipPath id="clip0_577_158">
<rect width="27.5294" height="27.5294" fill="white" transform="translate(19.7353 15.5405)"/>
</clipPath>
</defs>
</svg>
