<svg width="67" height="67" viewBox="0 0 67 67" fill="none" xmlns="http://www.w3.org/2000/svg">
<g filter="url(#filter0_d_577_157)">
<circle cx="33.5" cy="29.5" r="19.5" fill="white"/>
</g>
<g clip-path="url(#clip0_577_157)">
<path d="M40.0292 28.2999C39.9106 28.243 39.7902 28.1883 39.6682 28.136C39.4557 24.2206 37.3163 21.9791 33.7239 21.9562C33.7077 21.9561 33.6915 21.9561 33.6752 21.9561C31.5265 21.9561 29.7395 22.8732 28.6396 24.5422L30.6153 25.8974C31.437 24.6508 32.7265 24.385 33.6762 24.385C33.6871 24.385 33.6981 24.385 33.709 24.3851C34.8918 24.3927 35.7844 24.7366 36.362 25.4072C36.7824 25.8955 37.0636 26.5702 37.2028 27.4217C36.1541 27.2435 35.02 27.1887 33.8075 27.2582C30.3921 27.4549 28.1964 29.4469 28.3439 32.2147C28.4187 33.6187 29.1182 34.8266 30.3133 35.6156C31.3238 36.2826 32.6252 36.6088 33.9778 36.535C35.764 36.4371 37.1653 35.7556 38.1429 34.5094C38.8853 33.5631 39.3549 32.3368 39.5622 30.7915C40.4135 31.3053 41.0443 31.9813 41.3928 32.794C41.9852 34.1755 42.0198 36.4457 40.1674 38.2965C38.5445 39.9178 36.5936 40.6192 33.6453 40.6409C30.3749 40.6167 27.9015 39.5678 26.2933 37.5235C24.7874 35.6092 24.0092 32.8442 23.9802 29.3052C24.0092 25.7662 24.7874 23.0012 26.2933 21.0869C27.9015 19.0426 30.3748 17.9938 33.6453 17.9695C36.9394 17.994 39.456 19.0479 41.1256 21.102C41.9444 22.1094 42.5616 23.3762 42.9685 24.8533L45.2837 24.2355C44.7905 22.4175 44.0144 20.8508 42.9582 19.5515C40.8177 16.918 37.687 15.5685 33.6533 15.5405H33.6372C29.6117 15.5684 26.5161 16.923 24.4366 19.5666C22.586 21.9191 21.6314 25.1924 21.5994 29.2956L21.5993 29.3052L21.5994 29.3149C21.6314 33.418 22.586 36.6914 24.4366 39.0439C26.5161 41.6874 29.6117 43.0421 33.6372 43.0699H33.6533C37.2322 43.0451 39.7549 42.1081 41.8331 40.0318C44.552 37.3154 44.4702 33.9105 43.574 31.8203C42.9311 30.3214 41.7053 29.104 40.0292 28.2999ZM33.8499 34.1095C32.353 34.1939 30.7979 33.522 30.7212 32.0828C30.6643 31.0158 31.4806 29.8251 33.9418 29.6833C34.2236 29.667 34.5002 29.6591 34.7719 29.6591C35.6659 29.6591 36.5023 29.7459 37.2626 29.9122C36.979 33.454 35.3155 34.0291 33.8499 34.1095Z" fill="#595959"/>
</g>
<defs>
<filter id="filter0_d_577_157" x="0" y="0" width="67" height="67" filterUnits="userSpaceOnUse" color-interpolation-filters="sRGB">
<feFlood flood-opacity="0" result="BackgroundImageFix"/>
<feColorMatrix in="SourceAlpha" type="matrix" values="0 0 0 0 0 0 0 0 0 0 0 0 0 0 0 0 0 0 127 0" result="hardAlpha"/>
<feOffset dy="4"/>
<feGaussianBlur stdDeviation="7"/>
<feColorMatrix type="matrix" values="0 0 0 0 0 0 0 0 0 0 0 0 0 0 0 0 0 0 0.15 0"/>
<feBlend mode="normal" in2="BackgroundImageFix" result="effect1_dropShadow_577_157"/>
<feBlend mode="normal" in="SourceGraphic" in2="effect1_dropShadow_577_157" result="shape"/>
</filter>
<clipPath id="clip0_577_157">
<rect width="27.5294" height="27.5294" fill="white" transform="translate(19.7353 15.5405)"/>
</clipPath>
</defs>
</svg>
